/* XPM */
static char *dummy[]={
"70 70 234 2",
"Qt c None",
".5 c None",
"#J c #2498e1",
"ap c #2498e1",
"#2 c #2498e1",
"aG c #2498e1",
"#B c #2498e1",
"aa c #2498e1",
".W c #2498e1",
"bz c #2498e1",
".l c #2498e1",
".m c #2498e1",
".1 c #2498e1",
".e c #2498e1",
"ah c #2498e1",
"bk c #2498e1",
"#G c #2498e1",
".E c #2498e1",
"bd c #2498e1",
"bI c #2498e1",
"aj c #2498e1",
"a1 c #2498e1",
".D c #2498e1",
"#h c #2498e1",
"aV c #2498e1",
"aH c #2498e1",
"a9 c #2498e1",
"#g c #2498e1",
"#j c #2498e1",
".3 c #2498e1",
"bx c #2498e1",
"#q c #2498e1",
"b# c #2498e1",
"aU c #2498e1",
"ab c #2498e1",
"al c #2498e1",
".L c #2498e1",
"aS c #2498e1",
"bi c #2498e1",
".8 c #2498e1",
"at c #2498e1",
".f c #2498e1",
"#c c #2498e1",
".6 c #2498e1",
"#v c #2498e1",
"#d c #2498e1",
".Q c #2498e1",
"aM c #2498e1",
"ar c #2498e1",
"bB c #2498e1",
"bh c #2498e1",
"#5 c #2498e1",
"#9 c #2498e1",
"#F c #2498e1",
"aT c #2498e1",
".# c #2498e1",
".7 c #2498e1",
"#M c #2498e1",
"#6 c #2498e1",
"a3 c #2498e1",
"#. c #2498e1",
"a8 c #2498e1",
"a2 c #2498e1",
"as c #2498e1",
"aD c #2498e1",
"ay c #2498e1",
"#u c #2498e1",
"#7 c #2498e1",
"#R c #2498e1",
"be c #2498e1",
"bv c #2498e1",
"bn c #2498e1",
"bo c #2498e1",
".z c #2498e1",
".A c #2498e1",
"bM c #2498e1",
"bp c #2498e1",
"bA c #2498e1",
"#r c #2498e1",
"#1 c #2498e1",
"aN c #2498e1",
"aF c #2498e1",
"bN c #2498e1",
".T c #2498e1",
"#z c #2498e1",
"aE c #2498e1",
"aY c #2498e1",
"#Z c #2498e1",
"aW c #2498e1",
"aX c #2498e1",
"ae c #2498e1",
"ax c #2498e1",
"#f c #2498e1",
".Y c #2498e1",
"by c #2498e1",
"bw c #2498e1",
".q c #2498e1",
"bj c #2498e1",
"bD c #2498e1",
".S c #2498e1",
"aA c #2498e1",
"#U c #2498e1",
"#8 c #2498e1",
".K c #2498e1",
"bf c #2498e1",
".t c #2498e1",
"a4 c #2498e1",
"aO c #2498e1",
"aZ c #2498e1",
"#W c #2498e1",
"bm c #2498e1",
"#D c #2498e1",
"a# c #2498e1",
"#o c #2498e1",
".k c #2498e1",
"a7 c #2498e1",
"#I c #2498e1",
"a6 c #2498e1",
"au c #2498e1",
"bL c #2498e1",
"ao c #2498e1",
".J c #2498e1",
"#a c #2498e1",
"bF c #2498e1",
"br c #2498e1",
"bs c #2498e1",
"#t c #2498e1",
".V c #2498e1",
"bH c #2498e1",
"#m c #2498e1",
"bl c #2498e1",
"aP c #2498e1",
"af c #2498e1",
"bb c #2498e1",
"bt c #2498e1",
"ai c #2498e1",
"a5 c #2498e1",
"#w c #2498e1",
"#T c #2498e1",
"bc c #2498e1",
"aB c #2498e1",
"bq c #2498e1",
"ag c #2498e1",
"#X c #2498e1",
"#n c #2498e1",
"#l c #2498e1",
".X c #2498e1",
"bK c #2498e1",
"#P c #2498e1",
"a0 c #2498e1",
"#A c #2498e1",
"bJ c #2498e1",
"aQ c #2498e1",
"#L c #2498e1",
"#O c #2498e1",
"aJ c #2498e1",
"bu c #2498e1",
"ak c #2498e1",
"az c #2498e1",
"aR c #2498e1",
"aw c #2498e1",
".d c #2498e1",
"bg c #2498e1",
"b. c #2498e1",
"a. c #2498e1",
"ba c #2498e1",
"bE c #2498e1",
"aI c #2498e1",
"aK c #2498e1",
".O c #2498e1",
"## c #2498e1",
".a c #2498e1",
".p c #2498e1",
"#3 c #2498e1",
"#y c #2498e1",
"bG c #2498e1",
"ac c #2498e1",
"#x c #2498e1",
"aC c #2498e1",
".n c #2498e1",
"#V c #2498e1",
"#s c #2498e1",
"bC c #2498e1",
"#H c #2498e1",
"#K c #2498e1",
"#e c #2498e1",
"#p c #2498e1",
".M c #2498e1",
".u c #2498e1",
".C c #2498e1",
".F c #2498e1",
".4 c #2498e1",
"av c #2498e1",
".R c #2498e1",
"#b c #2498e1",
".c c #2498e1",
"#C c #2498e1",
"#S c #2498e1",
".9 c #2498e1",
"#4 c #2498e1",
"#Q c #2498e1",
"am c #2498e1",
".g c #2498e1",
"aL c #2498e1",
"aq c #2498e1",
".H c #2498e1",
"#Y c #2498e1",
"#0 c #2498e1",
".P c #2498e1",
".b c #2498e1",
".0 c #2498e1",
".G c #2498e1",
"#i c #2498e1",
".2 c #2498e1",
"#k c #2498e1",
"ad c #2498e1",
".x c #2498e1",
".s c #2498e1",
".y c #2498e1",
"#E c #2498e1",
".j c #2498e1",
".N c #2498e1",
"an c #2498e1",
".U c #2498e1",
"#N c #2498e1",
".Z c #2498e1",
".r c #2498e1",
".I c #2498e1",
".B c #2498e1",
".o c #2498e1",
".w c #2498e1",
".v c #2498e1",
".h c #2498e1",
".i c #2498e1",
"QtQtQtQtQtQtQtQtQtQtQtQtQtQtQtQtQtQtQtQtQtQtQtQtQtQtQtQtQtQtQtQtQtQtQtQtQtQtQtQtQtQtQtQtQtQtQtQtQtQtQtQtQtQtQtQtQtQtQtQtQtQtQtQtQtQtQtQtQtQt",
"QtQtQtQtQtQtQtQtQtQtQtQtQtQtQtQtQtQtQtQtQtQtQtQtQtQtQtQtQtQtQt.#.a.b.c.d.eQtQtQtQtQtQtQtQtQtQtQtQtQtQtQtQtQtQtQtQtQtQtQtQtQtQtQtQtQtQtQtQtQt",
"QtQtQtQtQtQtQtQtQtQtQtQtQtQtQtQtQtQtQtQtQtQtQtQtQtQtQtQtQtQt.f.g.h.i.i.h.j.k.lQtQtQtQtQtQtQtQtQtQtQtQtQtQtQtQtQtQtQtQtQtQtQtQtQtQtQtQtQtQtQt",
"QtQtQtQtQtQtQtQtQtQtQtQtQtQtQtQtQtQtQtQtQtQtQtQtQtQtQtQtQt.m.n.h.i.i.h.i.i.o.p.fQtQtQtQtQtQtQtQtQtQtQtQtQtQtQtQtQtQtQtQtQtQtQtQtQtQtQtQtQtQt",
"QtQtQtQtQtQtQtQtQtQtQtQtQtQtQtQtQtQtQtQtQtQtQtQtQtQtQtQtQt.q.r.h.i.i.i.i.i.i.h.s.tQtQtQtQtQtQtQtQtQtQtQtQtQtQtQtQtQtQtQtQtQtQtQtQtQtQtQtQtQt",
"QtQtQtQtQtQtQtQtQtQtQtQtQtQtQtQtQtQtQtQtQtQtQtQtQtQtQtQtQt.u.v.w.v.i.i.x.o.i.i.h.y.zQtQtQtQtQtQtQtQtQtQtQtQtQtQtQtQtQtQtQtQtQtQtQtQtQtQtQtQt",
"QtQtQtQtQtQtQtQtQtQtQtQtQtQtQtQtQtQtQtQtQtQtQtQtQtQtQtQt.A.r.h.r.a.i.i.B.r.i.i.v.h.C.DQtQtQtQtQtQtQtQtQtQtQtQtQtQtQtQtQtQtQtQtQtQtQtQtQtQtQt",
"QtQtQtQtQtQtQtQtQtQtQtQtQtQtQtQtQtQtQtQtQtQtQtQtQtQtQt.E.F.h.v.G.H.o.i.h.v.i.h.w.h.I.JQtQtQtQtQtQtQtQtQtQtQtQtQtQtQtQtQtQtQtQtQtQtQtQtQtQtQt",
"QtQtQtQtQtQtQtQtQtQtQtQtQtQtQtQtQtQtQtQtQtQtQtQtQtQtQt.K.I.h.s.L.M.w.h.i.r.B.N.O.v.h.P.QQtQtQtQtQtQtQtQtQtQtQtQtQtQtQtQtQtQtQtQtQtQtQtQtQtQt",
"QtQtQtQtQtQtQtQtQtQtQtQtQtQtQtQtQtQtQtQtQtQtQtQtQtQt.l.R.h.h.SQt.T.h.h.v.U.G.V.W.X.h.v.VQtQtQtQtQtQtQtQtQtQtQtQtQtQtQtQtQtQtQtQtQtQtQtQtQtQt",
"QtQtQtQtQtQtQtQtQtQtQtQtQtQtQtQtQtQtQtQtQtQtQtQtQtQt.Y.Z.h.0.1Qt.f.w.h.h.Z.2.3Qt.m.N.i.4.1QtQtQtQtQtQtQtQtQtQtQt.5.6.7.WQtQtQtQtQtQtQtQtQtQt",
"QtQtQtQtQt.8.9#.QtQtQtQtQtQtQtQtQtQtQtQtQtQtQtQtQtQt##.v.h#aQtQtQt.r.i.i.B#bQtQtQt.C.i.o#cQtQtQtQtQtQtQtQtQtQtQt#d#e.j#fQtQtQtQtQtQtQtQtQtQt",
"QtQtQtQtQt.d.B.s#gQtQtQtQtQtQtQtQtQtQtQtQtQtQtQtQt#h#i.h.I#jQtQtQt#k.i.i.w.FQtQtQt#l.v.h#mQtQtQtQtQtQtQtQtQtQtQt#n.v.h#oQtQtQtQtQtQtQtQtQtQt",
"QtQtQtQtQt#p.v.r.R#qQtQtQtQtQtQtQtQtQtQtQtQtQtQtQt#r.r.i#eQtQtQtQt.g.i.i.o#sQtQtQt#t.w.B.cQtQtQtQtQtQtQtQtQtQt#u.U.i#i#vQtQtQtQtQtQtQtQtQtQt",
"QtQtQtQtQt#w.v.o#x#yQtQtQtQtQtQtQtQtQtQtQtQtQtQtQt#z.h.h#A#BQtQtQt.b.h.i.B#CQtQtQt#D.B.I#E#FQtQtQtQtQtQtQtQt#G#H.i.o#I#JQtQtQtQtQtQtQtQtQtQt",
"QtQtQtQtQt.8#k.i.y#K#LQtQtQtQtQtQtQtQtQtQtQtQtQtQt#M#N.v#N#O#o#P#s.s.h.i.j#Q#RQtQt#f.I.o#S#TQtQtQtQtQtQtQtQt#U.w.h#V#GQtQtQtQtQtQtQtQtQtQtQt",
"QtQtQtQtQtQt#W.Z.h.j.x#XQtQtQtQtQtQtQtQtQtQtQtQtQt#B#Y.o.h.i.o.N.b.G.i.i#N#Z#e.M.p#0.h.w.a#OQtQtQtQtQtQtQtQt#C.i.U#1QtQtQtQtQtQtQtQtQtQtQtQt",
"QtQtQtQtQtQt#2#w#N.h.o.o#3.WQtQtQtQtQtQtQtQtQtQtQtQt.Q#4.w.v.h.i.v.v.i.i.h.Z.U.I.v.v.i.w#b#5QtQtQtQtQtQtQt#6.v.h#V.1QtQtQtQtQtQtQtQtQtQtQtQt",
"QtQtQtQtQtQtQt.W#o#0.w.h.h.j#7QtQtQtQtQtQtQtQtQtQtQtQtQt.K#e#N.B.o.o.o.h.h.h.i.i.h.h.G#rQtQtQtQtQtQtQtQtQt#L.h.B#8QtQtQtQtQtQtQtQtQtQtQtQtQt",
"QtQtQtQtQtQtQtQt.5.8.X.s.v.h.v#O#gQtQtQtQtQtQtQtQtQtQtQtQtQt.e#q#c#9a..v.h.r#Y.c#sa#aaQtQtQtQtQtQtQtQtQt.3.r.i.HabQtQtQtQtQtQtQtQtQtQtQtQtQt",
"QtQtQtQtQtQtQtQtQtQtaa#7ac.r.h.iadaeQtQtQtQtQtQtQtQtQtQtQtQtQtQt#jaf.9.i.i.h.UagahQtQtQtQtQtQtQtQtQtQtQt#t.h.wai#JQtQtQtQtQtQtQtQtQtQtQtQtQt",
"QtQtQtQtQtQtQtQtQtQtQtQtaja#.P.v.i.BakalQtQtQtQtQtQtQtQtQtQtQt.D.O.h.waman.h.i.ZaoapQtQtQtQtQtQtQtQtQt.eaq.i.xarQtQtQtQtQtQtQtQtQtQtQtQtQtQt",
"QtQtQtQtQtQtQtQtQtQtQtQtQtQt#v.X.U.i.h.Ras.5QtQtQtQtQtQtQtQtQt.t.h.h#4#K.U#O.v.i.P.8QtQtQtQtQtQtQtatauav.h.haw#2QtQtQtQtQtQtQtQtQtQtQtQtQtQt",
"QtQtQtQtQtQtQtQtQtQtQtQtQtQtQt#Bax.P.h.h.PayQtQtQtQtQtQtQtQtQt#i.h#Naz.i.i.i#H.i.oaAQtQtQt.6aB.Rad.r.w.h.i.sayQtQtQtQtQtQtQtQtQtQtQtQtQtQtQt",
"QtQtQtQtQtQtQtQtQtQtQtQtQtQtQtQtQt.6#V.v.i.saC#waAalQtQt.WaDaE.w.vam#k.i.i.i#y.w.i.o.w.v.i.i.i.i.i.i.h.I.yaFaGQtQtQtQtQtQtQtQtQtQtQtQtQtQtQt",
"QtQtQtQtQtQtQtQtQtQtQtQtQtQtQtQtQtQtaHac.h.i.h.h.o.U.N#E.N#N.r.v.haI.i.i.i.i.i#k.i.i.i.i.i.i.i.i.i.i.I.y.AQtQtQtQtQtQtQtQtQtQtQtQtQtQtQtQtQt",
"QtQtQtQtQtQtQtQtQtQtQtQtQtQtQtQtQtQtQt#qaJ.N.B.w.h.h.h.i.i.h.i.h#EaK.i.i.i.i.i.g.i.v.r.v.i.v.BanaL#m.8#vQtQtQtQtQtQtQtQtQtQtQtQtQtQtQtQtQtQt",
"QtQtQtQtQtQtQtQtQtQtQtQtQtQtQtQtQtQtQtQt.5.DaMaNaOaPaQawaR#Y.i.w.d.r.i.i.i.i.i#C.i.jaSataTaU.LaV.l.5.5QtQtQtQtQtQtQtQtQtQtQtQtQtQtQtQtQtQtQt",
"QtQtQtQtQtQtQtQtQtQtQtQtQtQtQtQtQtQtQt.3aF#ZaW#Z#ZaXaWaYaZ.B.iaLam.i.i.i.i.i.i#4.i.ha0aEa1.5QtQtQtQtQtQtQtQtQtQtQtQtQtQtQtQtQtQtQtQtQtQtQtQt",
"QtQtQtQtQtQtQtQtQtQtQtQtQtQtQtQtQtat.a.r.v.w.o.w.w.o.o.w.v.i.v#O.i.i.i.i.i.i.i.g.i.i.v.w.r#N#N#N#N.Uad#Ha2QtQtQtQtQtQtQtQtQtQtQtQtQtQtQtQtQt",
"QtQtQtQtQtQtQtQtQtQtQtQtQtQtQt#2a3.P.i.i.h.v.v.h.h.h.h.h.i.i.Uam.i.i.i.i.i.i.i#x.i.i.v.h.i.h.h.i.i.h.i.h.v#OaaQtQtQtQtQtQtQtQtQtQtQtQtQtQtQt",
"QtQtQtQtQtQtQtQtQtQtQtQtQtQtaaa4#E.i.vaLa5#Ia6a7#Ia6#I#T.B.h.C.i.i.i.i.i.i.i.i#V.i.i#eaPaI#3#y#yac#Kad.w.h.h#ba8QtQtQtQtQtQtQtQtQtQtQtQtQtQt",
"QtQtQtQtQtQtQtQtQtQtQtQtQta9#O.B.i.Bb.b#QtQtQtQtQtQtQt.S.B.haw.i.i.i.i.i.i.i.i.R.i.ibaQt#J.5#J#J#JaGaMbb#i.i.i.yau.eQtQtQtQtQtQtQtQtQtQtQtQt",
"QtQtQtQtQtQtQtQtQtQtQtQta8#S.h.i#NbcbdQtQtQtQtQtQtQtQt.k.w.haR.i.i.i.i.i.i.i.iaq.i.iawQtQtQtQtQtQtQtQtQt#6#e.v.i.w#Ya5.fQtQtQtQtQtQtQtQtQtQt",
"QtQtQtQtQtQtQtQtQtQtQtbe.0.i.h#Ybf.lQtQtQtQtQtQtQtQtQtau.B.va..i.i.i.i.i.i.i#iad.i.i.dQtQtQtQtQtQtQtQtQtQtaH#wad.h.i.w.0#P#r.WQtQtQtQtQtQtQt",
"QtQtQtQtQtQtQtQtQtQtat.H.i.v#3.QQtQtQtQtQtQtQtQtQtQtQt.Y.o.haC.i.i.i.i.i.i.ibg.r.i.iaIQtQtQtQtQtQtQtQtQtQtQtaGbh#P.U.i.h.w.U#xarQtQtQtQtQtQt",
"QtQtQtQtQtQtQtQtQtaH.4.i.h##ajQtQtQtQtQtQtQtQtQtQtQtQt#G.U.iad.r.i.i.i.i.i.i#O.I.i.iacapQtQtQtQtQtQtQtQtQtQtQtQtapat#3.B.h.v.h.U#ya8QtQtQtQt",
"QtQtQtQtQtQtQtQtQt.a.h.i#bbiQtQtQtQtQtQtQtQtQtQtQtQtQtQt.c.h.w#3.i.i.i.i.i.iak.v.i.iba#2QtQtQtQtQtQtQtQtQtQtQtQtQtQt#BaS#T#N.w.h.v#x.DQtQtQt",
"QtQtQtQtQtQtQt#qaK.h.iaL.7.5QtQtQtQtQtQtQtQtQtQtQtQtQtQtbj.B.i##.i.i.i.i.i.i#H.i.i.va4QtQtQtQtQtQtQtQtQtQtQtQtQtQtQtQtQtQtaU#P.C.saJbkQtQtQt",
"QtQtQtQtQtQtQt#K.v.haL#7QtQtQtQtQtQtQtQtQtQtQtQtQtQtQtQtaG#Y.i.jav.i.i.i.i.U.s.i.i.b#jQtQtQtQtQtQtQtQtQtQtQtQtQtQtQtQtQtQtQtQtaj#7a9QtQtQtQt",
"QtQtQtQtQtQtbl.v.i#barQtQtQtQtQtQtQtQtQtQtQtQtQtQtQtQtQtQtaf.w.haI.j.i.i.iaw.v.i.iaI.kbm.A.lQtQtQtQtQtQtQtQtQtQtQtQtQtQtQtQtQtQtQtQtQtQtQtQt",
"QtQtQtQtQtQt#4.i.0#vQtQtQtQtQtQtQtQtQtQtQtQtQt#h#Rbn.zbnboaE.H.i.IazaRaz#O.G.i.i.w.B.w.B.r#k#b#OaW.lQtQtQtQtQtQtQtQtQtQtQtQtQtQtQtQtQtQtQtQt",
"QtQtQtQtQtQt.HambpQtQtQtQtQtQtQtQtQtQtQtb#aw.r.v.h.v.v.h.h.v.h.i.i.v.I.Z.v.i.i.h.o.h.h.h.i.i.i.i.h.o.p#dQtQtQtQtQtQtQtQtQtQtQtQtQtQtQtQtQtQt",
"QtQtQtQtQtQt.F.DQtQtQtQtQtQtQtQtQtQtQtaA.2.i.h.h.h.v.w.v.v.w.w.h.h.i.v.B.v.i.i.o.Rbqbrbsb.#C#k#N.w.h.i#e.3.5QtQtQtQtQtQtQtQtQtQtQtQtQtQtQtQt",
"QtQtQtQtQtQtaj.5QtQtQtQtQtQtQtQtQtQt#W.U.h.h.0#y#Xbbaibtaiaibbav.o.v.y.N#k.2#N.v.wbu.eQtQt#B.3bvbt#0.h.hak.eQtQtQtQtQtQtQtQtQtQtQtQtQtQtQtQt",
"QtQtQtQtQtQtQtQtQtQtQtQtQtQtQtQtQtbw.N.h.v.abx#JQtQtQtQtQtQt#R.U.h#EaJ.O#b.a.d.b.h#N.tQtQtQtQtQtQt#q.P.h.va5.WQtQtQtQtQtQtQtQtQtQtQtQtQtQtQt",
"QtQtQtQtQtQtQtQtQtQtQtQtQtQtQtQta8#i.h.w.R.1QtQtQtQtQtQtQtbk#S.h.I.y.Fbu.dbu.p.0.w.h.g.8QtQtQtQtQtQtby.s.h.vbubdQtQtQtQtQtQtQtQtQtQtQtQtQtQt",
"QtQtQtQtQtQtQtQtQtQtQtQtQtQtQt#v.9.v.oad.3QtQtQtQtQtQtQtQt#U.I.v.Z.d.i.i.i.i.i.b.0.h.oa6QtQtQtQtQtQt#Ba7an.h.h.c.1QtQtQtQtQtQtQtQtQtQtQtQtQt",
"QtQtQtQtQtQtQtQtQtQtQtQtQtQtQt#3.v.w.ZbyQtQtQtQtQtQtQtQtQtav.h.waJ.i.i.i.i.i.i.i#4.Z.i#Ca1QtQtQtQtQtQtbz#o.s.v.v.U#1QtQtQtQtQtQtQtQtQtQtQtQt",
"QtQtQtQtQtQtQtQtQtQtQtQtQtQtbA.r.had#VQtQtQtQtQtQtQtQtQt#v.U.i#p.r.i.i.i.i.i.i.i.i.O.i.oae.5QtQtQtQtQtQt#2#U.s.v.h.B.SQtQtQtQtQtQtQtQtQtQtQt",
"QtQtQtQtQtQtQtQtQtQtQtQtQt.lav.h.Z.xbBQtQtQtQtQtQtQtQtQta6.h.vaJ.i.i.i.i.i.i.i.i.ibC.r.i.p#2QtQtQtQtQtQtQt#Bae.c.o.h.vawabQtQtQtQtQtQtQtQtQt",
"QtQtQtQtQtQtQtQtQtQtQtQtQt#U.r.w#NbDQtQtQtQtQtQtQtQtQtQt#w.i.Zba.i.i.i.i.i.i.i.i.i.i#4.i#N.fQtQtQtQtQtQtQtQtQtalaz.r.i.h.2.J.mQtQtQtQtQtQtQt",
"QtQtQtQtQtQtQtQtQtQtQtQtQt.F.v.vbE#2QtQtQtQtQtQtQtQtQtQt#b.i.sbC.i.i.i.i.i.i.i.i.i.iaR.w.vbfQtQtQtQtQtQtQtQtQtQt.mbF#i.h.i.h#p.3QtQtQtQtQtQt",
"QtQtQtQtQtQtQtQtQtQtQtQtaD#N.i#kahQtQtQtQtQtQtQtQtQtQtQt#E.iaq.b.i.i.i.i.i.i.i.i.i.i.a.j.i#KbkQtQtQtQtQtQtQtQtQtQt#JaMaB#k.h.i.0aTQtQtQtQtQt",
"QtQtQtQtQtQtQtQtQtQtQtQtbG.h.v.SQtQtQtQtQtQtQtQtQtQtQtQt.Z.h#e.o.i.i.i.i.i.i.i.i.i.i.raC.i.UbAQtQtQtQtQtQtQtQtQtQtQtQtapaD#K.w.vbDQtQtQtQtQt",
"QtQtQtQtQtQtQtQtQtQtQtbH.w.i.cbIQtQtQtQtQtQtQtQtQtQtQtQt#N.vaC.o.i.i.i.i.i.i.i.i.i.i.i##.h.v#TQtQtQtQtQtQtQtQtQtQtQtQtQtQtaH#o#D#GQtQtQtQtQt",
"QtQtQtQtQtQtQtQtQtQtbJ.I.i.jbpQtQtQtQtQtQtQtQtQtQtQtQtQt.B.h#p.r.i.i.i.i.i.i.i.i.i.i.i.i.v.vbuQtQtQtQtQtQtQtQtQtQtQtQtQtQtQtQtQtQtQtQtQtQtQt",
"QtQtQtQtQtQtQtQtQtbn.Z.h.oaXQtQtQtQtQtQtQtQtQtQtQtQtQtQtan.iam#i.i.i.i.i.i.i.i.i.i.i.i#e.h.wbKQtQtQtQtQtQtQtQtQtQtQtQtQtQtQtQtQtQtQtQtQtQtQt",
"QtQtQtQtQtQtQtQtQtbq.v.vbJQtQtQtQtQtQtQtQtQtQtQtQtQtQtQt.0.i.2#b.i.i.i.i.i.i.i.i.i.i.i#O.h.wbLQtQtQtQtQtQtQtQtQtQtQtQtQtQtQtQtQtQtQtQtQtQtQt",
"QtQtQtQtQtQtQtQtQtbMbG#EaSQtQtQtQtQtQtQtQtQtQtQtQtQtQtQtaI.i.U.a.i.i.i.i.i.i.i.i.i.i.i.H.i.rbNQtQtQtQtQtQtQtQtQtQtQtQtQtQtQtQtQtQtQtQtQtQtQt",
"QtQtQtQtQtQtQtQtQtQtbIbu#2QtQtQtQtQtQtQtQtQtQtQtQtQtQtQt.t.h.vbu.i.i.i.i.i.i.i.i.i.i.r.w.h.P.3QtQtQtQtQtQtQtQtQtQtQtQtQtQtQtQtQtQtQtQtQtQtQt",
"QtQtQtQtQtQtQtQtQtQtQtQtQtQtQtQtQtQtQtQtQtQtQtQtQtQtQtQt.e#E.i#0#b.i.i.i.i.i.i.i.i.i#p.v.wbuapQtQtQtQtQtQtQtQtQtQtQtQtQtQtQtQtQtQtQtQtQtQtQt",
"QtQtQtQtQtQtQtQtQtQtQtQtQtQtQtQtQtQtQtQtQtQtQtQtQtQtQtQtQta0.h.h.M##.i.i.i.i.i.i.ybu.v.v.U#1.5QtQtQtQtQtQtQtQtQtQtQtQtQtQtQtQtQtQtQtQtQtQtQt",
"QtQtQtQtQtQtQtQtQtQtQtQtQtQtQtQtQtQtQtQtQtQtQtQtQtQtQtQtQtaSaL.i.h.Z#k#S#K.n#K#4#N.h.h.oaz.lQtQtQtQtQtQtQtQtQtQtQtQtQtQtQtQtQtQtQtQtQtQtQtQt",
"QtQtQtQtQtQtQtQtQtQtQtQtQtQtQtQtQtQtQtQtQtQtQtQtQtQtQtQtQtQtbe#Q.h.h.h.i.h.v.h.i.i.w.x.X#j.5QtQtQtQtQtQtQtQtQtQtQtQtQtQtQtQtQtQtQtQtQtQtQtQt",
"QtQtQtQtQtQtQtQtQtQtQtQtQtQtQtQtQtQtQtQtQtQtQtQtQtQtQtQtQtQtQta9#8bC.y.o.w.w.o.j.M#t#M#BQtQtQtQtQtQtQtQtQtQtQtQtQtQtQtQtQtQtQtQtQtQtQtQtQtQt",
"QtQtQtQtQtQtQtQtQtQtQtQtQtQtQtQtQtQtQtQtQtQtQtQtQtQtQtQtQtQtQtQtQtQtaa.Lbv#F.3aVaGQtQtQtQtQtQtQtQtQtQtQtQtQtQtQtQtQtQtQtQtQtQtQtQtQtQtQtQtQt",
"QtQtQtQtQtQtQtQtQtQtQtQtQtQtQtQtQtQtQtQtQtQtQtQtQtQtQtQtQtQtQtQtQtQtQtQtQtQtQtQtQtQtQtQtQtQtQtQtQtQtQtQtQtQtQtQtQtQtQtQtQtQtQtQtQtQtQtQtQtQt",
"QtQtQtQtQtQtQtQtQtQtQtQtQtQtQtQtQtQtQtQtQtQtQtQtQtQtQtQtQtQtQtQtQtQtQtQtQtQtQtQtQtQtQtQtQtQtQtQtQtQtQtQtQtQtQtQtQtQtQtQtQtQtQtQtQtQtQtQtQtQt",
"QtQtQtQtQtQtQtQtQtQtQtQtQtQtQtQtQtQtQtQtQtQtQtQtQtQtQtQtQtQtQtQtQtQtQtQtQtQtQtQtQtQtQtQtQtQtQtQtQtQtQtQtQtQtQtQtQtQtQtQtQtQtQtQtQtQtQtQtQtQt"};
