/* XPM */
static char *dummy[]={
"70 70 2 1",
". c None",
"# c #2498e1",
"......................................................................",
"......................................................................",
"......................................................................",
".................................###..##..............................",
"................................####..###.............................",
"................................####..###.............................",
"................................###...###.............................",
"................................#########.............................",
"...............................###########............................",
"...............................############...........................",
"...............##.............####.########...........................",
"...............##.............###..###..###............##.............",
"...............###............###..###..###...........###.............",
"...............####...........#############..........####.............",
"...............#####...######.####################...####.............",
"...............#####...###########################..####..............",
"...............#####........####################...####...............",
"................#####.........##############......####................",
"................#####..........###########........####................",
"................#####..............#####.........####.................",
".................####............#######........####..................",
"..................#####.........###################...................",
"...................####........####################...................",
"....................#######....#####.#############....................",
".....................##############..############.....................",
".....................#.###.########...####............................",
"..............................#####...#####...........................",
"...................###############....############....................",
".................#################....################................",
"...............##############.####.....###############................",
"..............######..........####.....####........####...............",
".............#####............###.####..###........#####..............",
"...........######.............###.#####.###.........####..............",
"...........#####..............#########.###..........####.............",
"...........###................###.#####.###...........####............",
"..........###.................###.##############.......####...........",
"..........##............###...###################......####...........",
".......................###########################......###...........",
"......................##############################.....##...........",
".....................####.....#############....######.................",
"....................####......#############......#####................",
"...................####......###############......####................",
"..................####.......################.....####................",
".................####.......######.###...####......####...............",
"................####........#####.####...#####......###...............",
"...............####.........####..####...#####......####..............",
"...............###..........####..####...#####.......####.............",
"..............####.........#####..####...#####.......#####............",
"..............###..........####...####...#####........####............",
".............####..........####...####...#####........#####...........",
".............###...........####...####...#####.........####...........",
"............####...........####...####...#####.........####...........",
"...........####............####...####...#####...........#............",
"...........###..............###...###......##.........................",
"...........##...............####...#......###.........................",
"............................####.........####.........................",
".............................####.......####..........................",
".............................#####......###...........................",
"..............................#############...........................",
"................................#########.............................",
"................................########..............................",
".................................######...............................",
".................................#####................................",
".................................#####................................",
"..................................####................................",
"...................................##.................................",
"......................................................................",
"......................................................................",
"......................................................................",
"......................................................................"};
