/* XPM */
static char *dummy[]={
"70 70 123 2",
".# c None",
".a c None",
"Qt c None",
"#C c #65379c",
".s c #65379c",
"#G c #65379c",
".x c #65379c",
"#D c #65379c",
"#I c #65379c",
".y c #65379c",
"#t c #65379c",
".T c #65379c",
"#w c #65379c",
"#u c #65379c",
"#0 c #65379c",
".M c #65379c",
"#n c #65379c",
".v c #65379c",
"#B c #65379c",
".9 c #65379c",
"#v c #65379c",
"#Y c #65379c",
".3 c #65379c",
"#a c #65379c",
"#i c #65379c",
"#x c #65379c",
"#L c #65379c",
".b c #65379c",
"## c #65379c",
"#b c #65379c",
"#Q c #65379c",
"#O c #65379c",
".l c #65379c",
"#k c #65379c",
"#P c #65379c",
"#R c #65379c",
"#M c #65379c",
"#U c #65379c",
".O c #65379c",
"#c c #65379c",
"#p c #65379c",
"#f c #65379c",
"#o c #65379c",
".K c #65379c",
"#J c #65379c",
".8 c #65379c",
"#h c #65379c",
"#N c #65379c",
".7 c #65379c",
"#d c #65379c",
"#Z c #65379c",
"#. c #65379c",
"#z c #65379c",
".m c #65379c",
".5 c #65379c",
".u c #65379c",
".6 c #65379c",
".V c #65379c",
"#S c #65379c",
"#s c #65379c",
".C c #65379c",
".o c #65379c",
".G c #65379c",
".q c #65379c",
".F c #65379c",
"#X c #65379c",
".S c #65379c",
".w c #65379c",
"#3 c #65379c",
"#g c #65379c",
".t c #65379c",
".Q c #65379c",
".Y c #65379c",
".H c #65379c",
"#W c #65379c",
"#T c #65379c",
".I c #65379c",
".E c #65379c",
"#2 c #65379c",
".4 c #65379c",
".J c #65379c",
".p c #65379c",
".2 c #65379c",
"#l c #65379c",
".U c #65379c",
".1 c #65379c",
"#m c #65379c",
"#F c #65379c",
"#H c #65379c",
".R c #65379c",
"#A c #65379c",
"#E c #65379c",
".L c #65379c",
"#V c #65379c",
"#K c #65379c",
".Z c #65379c",
".P c #65379c",
".W c #65379c",
".B c #65379c",
"#q c #65379c",
"#y c #65379c",
".A c #65379c",
"#j c #65379c",
"#4 c #65379c",
".g c #65379c",
"#r c #65379c",
".z c #65379c",
".N c #65379c",
"#1 c #65379c",
".f c #65379c",
".k c #65379c",
".j c #65379c",
".i c #65379c",
".X c #65379c",
".0 c #65379c",
".n c #65379c",
"#e c #65379c",
".r c #65379c",
".h c #65379c",
".D c #65379c",
".e c #65379c",
".c c #65379c",
".d c #65379c",
"QtQtQtQtQtQtQtQtQtQtQtQtQtQtQtQtQtQtQtQtQtQtQtQtQtQtQtQtQtQtQtQtQtQtQtQtQtQtQtQtQtQtQtQtQtQtQtQtQtQtQtQtQtQtQtQtQtQtQtQtQtQtQtQtQtQtQtQtQtQt",
"QtQtQtQtQtQtQtQtQtQtQtQtQtQtQtQtQtQtQtQtQtQtQtQtQtQtQtQtQtQtQtQtQtQtQtQtQtQtQtQtQtQtQtQtQtQtQtQtQtQtQtQtQtQtQtQtQtQtQtQtQtQtQtQtQtQtQtQtQtQt",
"QtQtQtQtQtQtQtQtQtQtQtQtQtQtQtQtQtQtQtQtQtQtQtQtQtQtQtQtQtQtQtQtQtQtQtQtQtQtQtQtQtQtQtQtQtQtQtQtQtQtQtQtQtQtQtQtQtQtQtQtQtQtQtQtQtQtQtQtQtQt",
"QtQtQtQtQtQtQtQtQtQtQtQtQtQtQtQtQtQtQtQtQtQtQtQtQtQtQtQtQtQtQtQtQtQtQtQtQtQtQtQtQtQtQtQtQtQtQtQtQtQtQtQtQtQtQtQtQtQtQtQtQtQtQtQtQtQtQtQtQtQt",
"QtQtQtQtQtQtQtQtQtQtQtQtQtQtQtQtQtQtQtQtQtQtQtQtQtQtQtQtQtQtQtQtQtQtQtQtQtQtQtQtQtQtQtQtQtQtQtQtQtQtQtQtQtQtQtQtQtQtQtQtQtQtQtQtQtQtQtQtQtQt",
"QtQtQtQtQtQtQtQtQtQtQtQtQtQtQtQtQtQtQtQtQtQtQtQtQtQtQtQt.#.#.a.b.a.#.#.#QtQtQtQtQtQtQtQtQtQtQtQtQtQtQtQtQtQtQtQtQtQtQtQtQtQtQtQtQtQtQtQtQtQt",
"QtQtQtQtQtQtQtQtQtQtQtQtQtQtQtQtQtQtQtQtQtQtQtQtQtQtQtQt.#.a.c.d.e.a.#.#QtQtQtQtQtQtQtQtQtQtQtQtQtQtQtQtQtQtQtQtQtQtQtQtQtQtQtQtQtQtQtQtQtQt",
"QtQtQtQtQtQtQtQtQtQtQtQtQtQtQtQtQtQtQtQtQtQtQtQtQtQtQtQt.f.d.d.g.c.h.a.#.#.#.#.#.#.e.c.e.i.j.k.k.k.k.k.lQtQtQtQtQtQtQtQtQtQtQtQtQtQtQtQtQtQt",
"QtQtQtQtQtQtQtQtQtQtQtQtQtQtQtQtQtQtQtQt.#.#.#.#.#.#.a.e.d.h.d.d.i.c.e.m.#.#.#.#.#.d.d.e.d.d.d.d.d.d.d.d.n.#.#.#.#.#.#.#QtQtQtQtQtQtQtQtQtQt",
"QtQtQtQtQtQtQtQtQtQtQtQtQtQtQtQtQtQtQtQt.#.#.#.#.a.i.c.e.o.d.d.d.d.h.d.e.#.#.#.#.#.p.c.i.d.d.d.d.d.d.d.c.h.#.#.#.#.#.#.#QtQtQtQtQtQtQtQtQtQt",
"QtQtQtQtQtQtQtQtQtQtQtQtQtQtQtQtQtQtQtQt.#.#.#.#.e.d.e.d.d.i.e.c.d.d.e.q.#.#.#.#.#.a.d.e.d.d.d.d.d.d.d.c.r.#.#.#.#.#.#.#QtQtQtQtQtQtQtQtQtQt",
"QtQtQtQtQtQtQtQtQtQtQtQtQtQtQtQtQtQtQtQt.#.#.s.e.d.t.d.d.p.d.d.h.u.a.#.#.#.#.#.#.v.d.d.n.d.d.d.d.d.d.w.dQtQtQtQtQtQtQtQtQtQtQtQtQtQtQtQtQtQt",
"QtQtQtQtQtQtQtQtQtQtQtQtQtQtQtQtQtQtQtQt.#.x.e.c.d.d.d.d.d.i.c.e.#.#.#.#.#.#.#.#.k.d.d.d.d.d.d.d.d.d.e.cQtQtQtQtQtQtQtQtQtQtQtQtQtQtQtQtQtQt",
"QtQtQtQtQtQtQtQtQtQtQtQtQtQtQtQtQtQtQtQt.#.c.c.d.d.d.d.d.d.k.e.d.p.#.#.#.#.#.#.#.y.d.d.d.d.d.d.d.d.d.d.zQtQtQtQtQtQtQtQtQtQtQtQtQtQtQtQtQtQt",
"QtQtQtQtQtQtQtQtQtQtQtQtQtQtQtQtQtQtQtQt.d.c.d.d.d.d.d.d.d.c.c.k.#.#.#.#.#.#.#.A.c.d.d.d.d.d.d.d.d.B.c.#QtQtQtQtQtQtQtQtQtQtQtQtQtQtQtQtQtQt",
"QtQtQtQtQtQtQtQtQtQtQtQt.#.#.#.#.#.#.#.k.d.h.d.d.d.d.d.d.d.c.i.#.#.#.#.#.#.d.d.c.e.C.d.d.d.d.d.d.d.e.e.#QtQtQtQtQtQtQtQtQtQtQtQtQtQtQtQtQtQt",
"QtQtQtQtQtQtQtQtQtQtQtQt.#.#.#.#.#.#.a.e.e.d.d.d.d.d.d.d.d.e.e.#.#.#.#.#.#.D.d.e.e.E.d.d.d.d.d.d.F.d.G.#QtQtQtQtQtQtQtQtQtQtQtQtQtQtQtQtQtQt",
"QtQtQtQtQtQtQtQtQtQtQtQt.#.#.#.#.#.#.a.c.H.d.d.d.d.d.d.d.d.I.d.#.#.#.#.#.#.#.#.J.e.d.e.d.d.d.d.d.d.c.#.#QtQtQtQtQtQtQtQtQtQtQtQtQtQtQtQtQtQt",
"QtQtQtQtQtQtQtQtQtQtQtQt.#.#.#.#.#.#.a.c.H.d.d.d.d.d.d.d.d.d.d.e.#.#.#.#.#.#.#.#.a.K.d.i.d.d.d.L.c.M.#.#QtQtQtQtQtQtQtQtQtQtQtQtQtQtQtQtQtQt",
"QtQtQtQtQtQtQtQtQtQtQtQt.#.#.#.#.#.#.a.c.e.d.d.d.d.d.d.d.d.d.N.d.O.#.#.#.#.#.#.#.#.i.d.P.d.d.d.e.e.#.#.#QtQtQtQtQtQtQtQtQtQtQtQtQtQtQtQtQtQt",
"QtQtQtQtQtQtQtQtQtQtQtQt.#.#.#.#.#.#.#.Q.c.c.e.p.d.d.d.d.d.d.d.c.e.#.#.#.#.#.#.#.#.e.n.d.d.d.i.d.#.#.#.#QtQtQtQtQtQtQtQtQtQtQtQtQtQtQtQtQtQt",
"QtQtQtQtQtQtQtQtQtQtQtQtQtQtQtQtQtQtQtQt.#.R.e.d.d.S.d.d.d.d.d.i.e.T.#.#.#.#.#.#.U.e.d.d.d.d.d.r.#.#.#.#QtQtQtQtQtQtQtQtQtQtQtQtQtQtQtQtQtQt",
"QtQtQtQtQtQtQtQtQtQtQtQtQtQtQtQtQtQtQtQt.#.#.#.V.d.d.c.W.d.d.d.d.c.e.#.#.#.#.#.#.X.e.d.d.d.Y.d.#.#.#.#.#.Z.d.a.#.#.#.#.#QtQtQtQtQtQtQtQtQtQt",
"QtQtQtQtQtQtQtQtQtQtQtQt.#.#.#.i.d.e.a.#.#.#.#.#.#.#.e.d.d.e.e.e.e.d.e.e.e.e.e.0.d.c.o.d.d.e.d.#.#.#.#.#.d.d.e.s.#.#.#.#QtQtQtQtQtQtQtQtQtQt",
"QtQtQtQtQtQtQtQtQtQtQtQt.#.#.#.N.d.c.h.a.#.#.#.#.#.#.1.d.1.h.2.e.e.e.e.e.e.e.e.e.c.d.d.d.j.e.e.#.#.#.#.#.d.d.e.i.#.#.#.#QtQtQtQtQtQtQtQtQtQt",
"QtQtQtQtQtQtQtQtQtQtQtQt.#.#.#.a.c.e.d.p.#.#.#.#.#.3.d.e.d.d.d.4.5.d.d.d.6.7.u.8.d.d.d.d.d.c.i.#.#.#.#.9.d.e.d.e.#.#.#.#QtQtQtQtQtQtQtQtQtQt",
"QtQtQtQtQtQtQtQtQtQtQtQt.#.#.#.#.D.d.e.e.#.#.#.#.#.d.e.d.d.d.d.w#.###a#b#c#d.G#..d.d.d.h.d.c.#.#.#.#.#.4.d#e.d#f.#.#.#.#QtQtQtQtQtQtQtQtQtQt",
"QtQtQtQtQtQtQtQtQtQtQtQt.#.#.#.#.a.d.c.c.#.#.#.s.e.e.d.d.d.d.d.d.d.d.d.d.d.d.d.d.d.d.d.d.D.d.#.#.#.#.6.d.d.d.e.a.#.#.#.#QtQtQtQtQtQtQtQtQtQt",
"QtQtQtQtQtQtQtQtQtQtQtQt.#.#.#.#.#.z.d.d.e.#.#.e.X#g.d.d.d.d.d.d.d.d.d.d.d.d.d.d.d.d.d.d.d.d.A.#.##h.d.d.d.e.a.#.#.#.#.#QtQtQtQtQtQtQtQtQtQt",
"QtQtQtQtQtQtQtQtQtQtQtQt.#.#.#.#.#.a.e.d.d.k.e.d.d.d.d.d.d.d.d.d.d.d.d.d.d.d.d.d.d.d.d.d.d.c.e#i.e.d.d.d.d.a.#.#.#.#.#.#QtQtQtQtQtQtQtQtQtQt",
"QtQtQtQtQtQtQtQtQtQtQtQt.#.#.#.#.#.#.a.c.d.e.d.e.d.d.d.d.d.d.d.d.d.d.d.d.d.d.d.d.d.d.d.d.d.i.e.2.d.d.d.dQtQtQtQtQtQtQtQtQtQtQtQtQtQtQtQtQtQt",
"QtQtQtQtQtQtQtQtQtQtQtQtQtQtQtQtQtQtQtQt.c.d.d.d.d.d.d.d.d.d.d.d.d.d.d.d.d.d.d.d.d.d.d.d.d.d.d.d.d.d.e.hQtQtQtQtQtQtQtQtQtQtQtQtQtQtQtQtQtQt",
"QtQtQtQtQtQtQtQtQtQtQtQtQtQtQtQtQtQtQtQt.#.d.d.d.d.d.d.d.d.d.d.d.d.d.d.d.d.d.d.d.d.d.d.d.d.d.h.d.d.d.e.5QtQtQtQtQtQtQtQtQtQtQtQtQtQtQtQtQtQt",
"QtQtQtQtQtQtQtQtQtQtQtQtQtQtQtQtQtQtQtQt.#.d#j.d.d.d.d.d.d.d.d.d.d.d.d.d.d.d.d.d.d.d.d.d.d.d.d.d.d.d.e.#QtQtQtQtQtQtQtQtQtQtQtQtQtQtQtQtQtQt",
"QtQtQtQtQtQtQtQtQtQtQtQt.#.#.#.#.#.#.a.2#k.d#l.d.d.d.d.d.d.d.d.d.d.d.d.d.d.d.d.d.d.d.d.d.d.d.d.d.d.c.#.#QtQtQtQtQtQtQtQtQtQtQtQtQtQtQtQtQtQt",
"QtQtQtQtQtQtQtQtQtQtQtQt.#.#.#.#.a.i.c.i.D.d.d.d.d.d.d.d.d.d.d.d.d.d.d.d.d.d.d.d.d.d.d.d.d.d.d.d.c.w.#.#QtQtQtQtQtQtQtQtQtQtQtQtQtQtQtQtQtQt",
"QtQtQtQtQtQtQtQtQtQtQtQt.#.#.#.#.e.d.d.e.d.d.d.d.d.d.d.d.d.d.d.d.d.d.d.d.d.d.d.d.d.d.d.d.d.d.d.d.e.n.#.#QtQtQtQtQtQtQtQtQtQtQtQtQtQtQtQtQtQt",
"QtQtQtQtQtQtQtQtQtQtQtQt.#.#.#.0.d.d.c.d.d.d.d.d.d.d.d.d.d.d.d.d.d.d.d.d.d.d.d.d.d.d.d.d.d.d.d.d.e.e.e.d.e.e.e.e.e.e.D#mQtQtQtQtQtQtQtQtQtQt",
"QtQtQtQtQtQtQtQtQtQtQtQt.#.##n.d.d.d.d.d.d.d.d.d.d.d.d.d.d.d.d.d.d.d.d.d.d.d.d.d.d.d.d.d.d.d.d.d.h.d.d.d.d.d#o#p#q.e.e.d.eQtQtQtQtQtQtQtQtQt",
"QtQtQtQtQtQtQtQtQtQtQtQt.#.a.d.d.d.d.d.e.d#r.d.d.d.d.d.d.d.d.d.d.d.d.d.d.d.d.d.d.d.d.d.d.d.d.d.d#q.d.d.d#s#t#u#v#w#x#y.d.d.eQtQtQtQtQtQtQtQt",
"QtQtQtQtQtQtQtQtQtQtQtQt.a.e.d.d.d.d#z.#.c#A.d.d.d.d.d.d.d.d.d.d.d.d.d.d.d.d.d.d.d.d.d.d.d.d.d.d.d.c.c.n#B#C#C#C#w#D.4.d.d.iQtQtQtQtQtQtQtQt",
"QtQtQtQtQtQtQtQtQtQtQtQt.e.d.d.d.d#j.#.p.c.d.d.d.d.d.d.d.d.d.d.d.d.d.d.d.d.d.d.d.d.d.d.d.d.d.d.d.d.e.c.#QtQtQtQtQtQtQtQtQtQtQtQtQtQtQtQtQtQt",
"QtQtQtQt.#.#.#.#.#.#.##E.d.d.d.d.f.#.##y.c.d.d.d.d.d.d.d.d.d.d.d.d.d.d.d.d.d.d.d.d.d.d.d.d.d.d.d.d#F.d.#QtQtQtQtQtQtQtQtQtQtQtQtQtQtQtQtQtQt",
"QtQtQtQt.#.#.#.#.#.#.a.c.d.d.d.i.#.#.#.0.e.d.d.d.d.d.d.d.d.d.d.d.d.d.d.d.d.d.d.d.d.d.d.d.d.d.d.d.d.d.d#GQtQtQtQtQtQtQtQtQtQtQtQtQtQtQtQtQtQt",
"QtQtQtQt.#.#.#.#.#.#.a.e.d.e.#.#.#.#.#.0.e.d.d.d.d.d.d.d.d.d.d.d.d.d.d.d.d.d.d.d.d.d.d.d.d.d.d.d.d.d.d.tQtQtQtQtQtQtQtQtQtQtQtQtQtQtQtQtQtQt",
"QtQtQtQtQtQtQtQtQtQtQtQt.#.#.#.#.#.#.#.0.e.d.d.d.d.d.d.d.d.d.d.d.d.d.d.d.d.d.d.d.d.d.d.d.d.d.d.d.d.d.d.nQtQtQtQtQtQtQtQtQtQtQtQtQtQtQtQtQtQt",
"QtQtQtQtQtQtQtQtQtQtQtQt.#.#.#.#.#.#.#.0.e.d.d.d.d.d.d.d.d.d.d.d.d.d.d.X.i.d.d.d.d.d.d.d.d.d.d.d.d.d.d.e.i#H.a.#.#.#.#.#QtQtQtQtQtQtQtQtQtQt",
"QtQtQtQtQtQtQtQtQtQtQtQt.#.#.#.#.#.#.#.j.e.d.d.d.d.d.d.d.d.d.d.d.d.d.d.d.d.d.d.d.d.d.d.d.d.d.d.d.d.d.e.e.d.d.e.a.#.#.#.#QtQtQtQtQtQtQtQtQtQt",
"QtQtQtQtQtQtQtQtQtQtQtQt.#.#.#.#.#.#.##I.e.d.d.d.d.d.d.d.d.d.d.d.d.d.d.c.d.i.d.d.d.d.d.d.d.d.d.d.d.d.e.d.d.c.d#e.#.#.#.#QtQtQtQtQtQtQtQtQtQt",
"QtQtQtQtQtQtQtQtQtQtQtQtQtQtQtQtQtQtQtQt.e.i.d.d.d.d.d.d.d.d.d.d.d.d#J#K.d#l.d.d.d.d.d.d.d.d.d.d.d.d.e.d.d.d.d.e.a.#.#.#QtQtQtQtQtQtQtQtQtQt",
"QtQtQtQtQtQtQtQtQtQtQtQt.#.#.#.#.#.#.a.e.d.d.d.d.d.d.d.d.d.d.d.d.d.d#L#M.c.0.d.d.d.d.d.d.d.d.d.d.d.d.r.d.d.d.d.d.a.#.#.#QtQtQtQtQtQtQtQtQtQt",
"QtQtQtQtQtQtQtQtQtQtQtQt.#.#.#.#.#.#.i.d.d.d.d.d.d.d.d.d.d.d.d.d.d.o#N#O.c.D.d.d.d.d.d.d.d.d.d.d.d.d.r.e.c.d.d.d.j.#.#.#QtQtQtQtQtQtQtQtQtQt",
"QtQtQtQtQtQtQtQtQtQtQtQt.#.#.#.#.#.#.d.d.d.d.h.d.d.d.d.d.d.d.d.d.d#e#P.#.e.e.d.d.d.d.d.d.d.d.d.d.d.d.e.e.a#Q#R.d.d.#.#.#QtQtQtQtQtQtQtQtQtQt",
"QtQtQtQtQtQtQtQtQtQtQtQt.#.#.#.#.##S.d.e.d.d.d.d.d.d.d.d.d.d.d.d.d.d.7.#.e.e.d.d.d.d.d.d.d.d.d.d.d.d.c.i.#.##d.d.d#T.#.#QtQtQtQtQtQtQtQtQtQt",
"QtQtQtQtQtQtQtQtQtQtQtQt.#.#.#.#.#.n.d.e.d.r.d.d.d.d.d.d.d.d.d.d.d.d#U.#.L.e.d.d.d.d.d.d.d.d.d.d.d.e.e.#.#.#.#.d.d.c.#.#QtQtQtQtQtQtQtQtQtQt",
"QtQtQtQtQtQtQtQtQtQtQtQt.#.#.#.#.#.d.d.d.d.e.d.d.0.d.d.d.d.d.d.d#V.d.#.#.w.e.d.d.d.d.d.d.d.d.d.d#W.e.X.#.#.#.#.c.d.d.#.#QtQtQtQtQtQtQtQtQtQt",
"QtQtQtQtQtQtQtQtQtQtQtQt.#.#.#.#.#.d.d.d.d.d.d.d.d.d.d.d.d.d.d.d.e.c.#.##X.e.d.d.d.d.d.d.d.d.d.d.c.e.#.#.#.#.##K.d.d.#.#QtQtQtQtQtQtQtQtQtQt",
"QtQtQtQtQtQtQtQtQtQtQtQt.#.#.#.##Y.d.e.d.d.d.0.#.e.d.0.d.d.d.d.d.e.e.#.#.w.e.d.d.d.d.d.d.d.d#y.e.c.#.#.#.#.#.##K.d.d.#.#QtQtQtQtQtQtQtQtQtQt",
"QtQtQtQtQtQtQtQtQtQtQtQt.#.#.#.##Z.d.e.d.d.e.#.#.#.X.d.d.e#l.d.d.r.0.#.#.#.e.E.d.d.d.d.d.d.c.d.e.#.#.#.#.#.#.##0.d.k.#.#QtQtQtQtQtQtQtQtQtQt",
"QtQtQtQtQtQtQtQtQtQtQtQt.#.#.#.#.#.d.d.d.d.e.#.#.#.#.#.X.e.c.c.i#y#H.#.#.#.e.A.d.d.d.d.i.d.d.d.#.#.#.#.#QtQtQtQtQtQtQtQtQtQtQtQtQtQtQtQtQtQt",
"QtQtQtQtQtQtQtQtQtQtQtQt.#.#.#.#.##1.e.d.c.e.#.#.#.#.#.#.#.#.i.i#2.#.#.#.#.i.e.d.d.d.d.d.e.2.#.#.#.#.#.#QtQtQtQtQtQtQtQtQtQtQtQtQtQtQtQtQtQt",
"QtQtQtQtQtQtQtQtQtQtQtQt.#.#.#.#.##3.e.d.d.e.E.#.#.#.#.#QtQtQtQtQtQtQtQt.#.a.a#H.i.i#4.aQtQtQtQtQtQtQtQtQtQtQtQtQtQtQtQtQtQtQtQtQtQtQtQtQtQt",
"QtQtQtQtQtQtQtQtQtQtQtQt.#.#.#.#.#.#.e.d.d.c.h.#.#.#.#.#QtQtQtQtQtQtQtQtQtQtQtQtQtQtQtQtQtQtQtQtQtQtQtQtQtQtQtQtQtQtQtQtQtQtQtQtQtQtQtQtQtQt",
"QtQtQtQtQtQtQtQtQtQtQtQt.#.#.#.#.#.#.a.e.d.d.d.#.#.#.#.#QtQtQtQtQtQtQtQtQtQtQtQtQtQtQtQtQtQtQtQtQtQtQtQtQtQtQtQtQtQtQtQtQtQtQtQtQtQtQtQtQtQt",
"QtQtQtQtQtQtQtQtQtQtQtQtQtQtQtQtQtQtQtQt.d.d.i.#.#.#.#.#QtQtQtQtQtQtQtQtQtQtQtQtQtQtQtQtQtQtQtQtQtQtQtQtQtQtQtQtQtQtQtQtQtQtQtQtQtQtQtQtQtQt",
"QtQtQtQtQtQtQtQtQtQtQtQtQtQtQtQtQtQtQtQtQtQtQtQtQtQtQtQtQtQtQtQtQtQtQtQtQtQtQtQtQtQtQtQtQtQtQtQtQtQtQtQtQtQtQtQtQtQtQtQtQtQtQtQtQtQtQtQtQtQt",
"QtQtQtQtQtQtQtQtQtQtQtQtQtQtQtQtQtQtQtQtQtQtQtQtQtQtQtQtQtQtQtQtQtQtQtQtQtQtQtQtQtQtQtQtQtQtQtQtQtQtQtQtQtQtQtQtQtQtQtQtQtQtQtQtQtQtQtQtQtQt",
"QtQtQtQtQtQtQtQtQtQtQtQtQtQtQtQtQtQtQtQtQtQtQtQtQtQtQtQtQtQtQtQtQtQtQtQtQtQtQtQtQtQtQtQtQtQtQtQtQtQtQtQtQtQtQtQtQtQtQtQtQtQtQtQtQtQtQtQtQtQt",
"QtQtQtQtQtQtQtQtQtQtQtQtQtQtQtQtQtQtQtQtQtQtQtQtQtQtQtQtQtQtQtQtQtQtQtQtQtQtQtQtQtQtQtQtQtQtQtQtQtQtQtQtQtQtQtQtQtQtQtQtQtQtQtQtQtQtQtQtQtQt",
"QtQtQtQtQtQtQtQtQtQtQtQtQtQtQtQtQtQtQtQtQtQtQtQtQtQtQtQtQtQtQtQtQtQtQtQtQtQtQtQtQtQtQtQtQtQtQtQtQtQtQtQtQtQtQtQtQtQtQtQtQtQtQtQtQtQtQtQtQtQt"};
