/* XPM */
static char *dummy[]={
"70 70 213 2",
"Qt c None",
".9 c None",
".M c #1fd328",
"#J c #1fd328",
"#9 c #1fd328",
".l c #1fd328",
"bg c #1fd328",
".6 c #1fd328",
"#K c #1fd328",
"aH c #1fd328",
".5 c #1fd328",
"#E c #1fd328",
"aS c #1fd328",
"bn c #1fd328",
"aa c #1fd328",
"#Q c #1fd328",
"bo c #1fd328",
"a. c #1fd328",
"aU c #1fd328",
".R c #1fd328",
"#n c #1fd328",
".e c #1fd328",
"#b c #1fd328",
"#f c #1fd328",
"a# c #1fd328",
"a4 c #1fd328",
"#N c #1fd328",
"#l c #1fd328",
"#0 c #1fd328",
".X c #1fd328",
"#B c #1fd328",
"bc c #1fd328",
"bh c #1fd328",
"aC c #1fd328",
".0 c #1fd328",
"#H c #1fd328",
"aq c #1fd328",
"aQ c #1fd328",
"#p c #1fd328",
"bf c #1fd328",
"#8 c #1fd328",
".O c #1fd328",
".t c #1fd328",
"ab c #1fd328",
"#M c #1fd328",
".x c #1fd328",
".q c #1fd328",
"#5 c #1fd328",
"aJ c #1fd328",
"aD c #1fd328",
".f c #1fd328",
"aA c #1fd328",
".m c #1fd328",
"aT c #1fd328",
"ap c #1fd328",
"bb c #1fd328",
"be c #1fd328",
"ah c #1fd328",
".Y c #1fd328",
"#x c #1fd328",
".T c #1fd328",
".N c #1fd328",
"## c #1fd328",
"br c #1fd328",
".3 c #1fd328",
"aI c #1fd328",
"a8 c #1fd328",
"bj c #1fd328",
".y c #1fd328",
"ar c #1fd328",
"#. c #1fd328",
"#z c #1fd328",
"a0 c #1fd328",
"ai c #1fd328",
"aL c #1fd328",
"aM c #1fd328",
"bd c #1fd328",
".C c #1fd328",
"bp c #1fd328",
".u c #1fd328",
"bm c #1fd328",
"av c #1fd328",
"aK c #1fd328",
"#C c #1fd328",
"aV c #1fd328",
".E c #1fd328",
"#T c #1fd328",
"#o c #1fd328",
"#s c #1fd328",
".H c #1fd328",
"au c #1fd328",
"a6 c #1fd328",
"aO c #1fd328",
"bk c #1fd328",
"#R c #1fd328",
"bs c #1fd328",
"aE c #1fd328",
"bq c #1fd328",
"#3 c #1fd328",
"#j c #1fd328",
"#U c #1fd328",
"#F c #1fd328",
"#W c #1fd328",
"aW c #1fd328",
"#w c #1fd328",
"bi c #1fd328",
".8 c #1fd328",
".G c #1fd328",
"aN c #1fd328",
"at c #1fd328",
".J c #1fd328",
"#X c #1fd328",
".# c #1fd328",
"aZ c #1fd328",
"as c #1fd328",
"#a c #1fd328",
"ba c #1fd328",
".Z c #1fd328",
"bl c #1fd328",
"#O c #1fd328",
"#V c #1fd328",
"a9 c #1fd328",
"ac c #1fd328",
".n c #1fd328",
"#4 c #1fd328",
"a5 c #1fd328",
".k c #1fd328",
".d c #1fd328",
"#Y c #1fd328",
"aR c #1fd328",
".r c #1fd328",
"ay c #1fd328",
".p c #1fd328",
"b# c #1fd328",
"#y c #1fd328",
"b. c #1fd328",
"#Z c #1fd328",
"#k c #1fd328",
"#g c #1fd328",
"#S c #1fd328",
".Q c #1fd328",
"#6 c #1fd328",
".o c #1fd328",
"aj c #1fd328",
".K c #1fd328",
"aP c #1fd328",
".L c #1fd328",
"#A c #1fd328",
"aY c #1fd328",
"aG c #1fd328",
"aX c #1fd328",
"#P c #1fd328",
"a7 c #1fd328",
".s c #1fd328",
"ae c #1fd328",
"aw c #1fd328",
"ad c #1fd328",
"a1 c #1fd328",
"al c #1fd328",
".F c #1fd328",
"ak c #1fd328",
"an c #1fd328",
"az c #1fd328",
".P c #1fd328",
".I c #1fd328",
"ag c #1fd328",
"#1 c #1fd328",
"#u c #1fd328",
"#D c #1fd328",
".7 c #1fd328",
"#G c #1fd328",
"#I c #1fd328",
"a2 c #1fd328",
"#t c #1fd328",
".D c #1fd328",
"am c #1fd328",
"#v c #1fd328",
".4 c #1fd328",
"ax c #1fd328",
"af c #1fd328",
"#q c #1fd328",
".1 c #1fd328",
"aB c #1fd328",
"a3 c #1fd328",
"#2 c #1fd328",
"#e c #1fd328",
".a c #1fd328",
".U c #1fd328",
".c c #1fd328",
"#7 c #1fd328",
"#r c #1fd328",
".W c #1fd328",
"ao c #1fd328",
".b c #1fd328",
"aF c #1fd328",
".w c #1fd328",
".V c #1fd328",
"#h c #1fd328",
"#L c #1fd328",
".S c #1fd328",
".g c #1fd328",
".B c #1fd328",
"#m c #1fd328",
".2 c #1fd328",
".v c #1fd328",
".i c #1fd328",
"#c c #1fd328",
".h c #1fd328",
".j c #1fd328",
".z c #1fd328",
".A c #1fd328",
"#i c #1fd328",
"#d c #1fd328",
"QtQtQtQtQtQtQtQtQtQtQtQtQtQtQtQtQtQtQtQtQtQtQtQtQtQtQtQtQtQtQtQtQtQtQtQtQtQtQtQtQtQtQtQtQtQtQtQtQtQtQtQtQtQtQtQtQtQtQtQtQtQtQtQtQtQtQtQtQtQt",
"QtQtQtQtQtQtQtQtQtQtQtQtQtQtQtQtQtQtQtQtQtQtQtQtQtQtQtQtQtQtQtQtQtQtQtQtQtQtQtQtQtQtQtQtQtQtQtQtQtQtQtQtQtQtQtQtQtQtQtQtQtQtQtQtQtQtQtQtQtQt",
"QtQtQtQtQtQtQtQtQtQtQtQtQtQtQtQtQtQtQtQtQtQtQtQtQtQtQtQtQtQtQtQtQtQtQtQtQtQtQtQtQtQtQtQtQtQtQtQtQtQtQtQtQtQtQtQtQtQtQtQtQtQtQtQtQtQtQtQtQtQt",
"QtQtQtQtQtQtQtQtQtQtQtQtQtQtQtQtQtQtQtQtQtQtQtQtQtQtQtQtQtQtQtQtQtQtQtQtQtQtQtQtQtQtQtQtQtQtQtQtQtQtQtQtQtQtQtQtQtQtQtQtQtQtQtQtQtQtQtQtQtQt",
"QtQtQtQtQtQtQtQtQtQtQtQtQtQtQtQtQtQtQtQtQtQtQtQtQtQtQtQtQtQtQtQtQtQtQtQtQtQtQtQtQtQtQtQtQtQtQtQtQtQtQtQtQtQtQtQtQtQtQtQtQtQtQtQtQtQtQtQtQtQt",
"QtQtQtQtQtQtQtQtQtQtQtQtQtQtQtQtQtQtQtQtQtQtQtQtQtQtQtQtQtQtQtQtQtQtQtQtQtQtQtQtQtQtQtQtQtQtQtQtQtQtQtQtQtQtQtQtQtQtQtQtQtQtQtQtQtQtQtQtQtQt",
"QtQtQtQtQtQtQtQtQtQtQtQtQtQtQtQtQtQtQtQtQtQtQtQtQtQtQtQtQtQtQtQtQtQtQtQtQtQtQtQtQtQtQtQtQtQtQtQtQtQtQtQtQtQtQtQtQtQtQtQtQtQtQtQtQtQtQtQtQtQt",
"QtQtQtQtQtQtQtQtQtQtQtQtQtQtQtQtQtQtQtQtQtQtQtQtQtQtQtQtQtQtQtQtQtQtQtQtQtQtQtQtQtQtQtQtQtQtQtQtQtQtQtQtQtQtQtQtQtQtQtQtQtQtQtQtQtQtQtQtQtQt",
"QtQtQtQtQtQtQtQtQtQtQtQtQtQtQtQtQtQtQtQtQtQtQtQtQtQt.#.a.b.c.d.eQtQtQtQtQtQtQtQtQtQtQtQtQtQtQtQtQtQtQtQtQtQtQtQtQtQtQtQtQtQtQtQtQtQtQtQtQtQt",
"QtQtQtQtQtQtQtQtQtQtQtQtQtQtQtQtQtQtQtQtQtQtQtQtQt.f.g.h.g.i.j.k.lQtQtQt.m.n.o.p.qQtQtQtQtQtQtQtQtQtQtQtQtQtQtQtQtQtQtQtQtQtQtQtQtQtQtQtQtQt",
"QtQtQtQtQtQtQtQtQtQtQtQtQtQtQtQtQtQtQtQtQtQtQtQtQt.r.j.s.t.u.v.w.xQtQt.y.b.z.z.A.B.CQtQtQtQtQtQtQtQtQtQtQtQtQtQtQtQtQtQtQtQtQtQtQtQtQtQtQtQt",
"QtQtQtQtQtQtQtQtQtQtQtQtQtQtQtQtQtQtQtQtQtQtQtQtQt.D.h.EQtQt.F.j.GQt.H.i.j.I.J.K.h.L.MQtQtQtQtQtQtQtQtQtQtQtQtQtQtQtQtQtQtQtQtQtQtQtQtQtQtQt",
"QtQtQtQtQtQtQtQtQtQtQtQtQtQtQtQtQtQtQtQtQtQtQtQtQt.a.i.NQtQt.O.j.PQt.s.j.Q.RQt.l.S.g.TQtQtQtQtQtQtQtQtQtQtQtQtQtQtQtQtQtQtQtQtQtQtQtQtQtQtQt",
"QtQtQtQtQtQtQtQtQtQtQtQtQtQtQtQtQtQtQtQtQtQtQtQtQt.U.V.OQtQtQt.v.W.X.V.B.YQtQtQt.Z.h.L.MQtQtQtQtQtQtQtQtQtQtQtQtQtQtQtQtQtQtQtQtQtQtQtQtQtQt",
"QtQtQtQtQtQtQtQtQtQtQtQtQtQtQtQtQtQtQtQtQtQtQtQtQt.w.b.0QtQtQt.1.2.3.v.4.5QtQtQt.6.7.8.9QtQtQtQtQtQtQtQtQtQtQtQtQtQtQtQtQtQtQtQtQtQtQtQtQtQt",
"QtQtQtQtQtQtQtQtQtQtQtQtQtQtQtQtQtQtQtQtQtQtQtQtQt.#.8.5QtQtQt#..8##.b#aQtQtQtQtQt#b.6.9QtQtQtQtQtQtQtQtQtQtQtQtQtQtQtQtQtQtQtQtQtQtQtQtQtQt",
"QtQtQtQtQtQtQtQtQtQtQtQtQtQtQtQtQtQtQtQtQtQtQtQtQtQtQtQtQtQtQt.r.V#c#d#e#fQtQtQtQtQtQtQtQtQtQtQtQtQtQtQtQtQtQtQtQtQtQtQtQtQtQtQtQtQtQtQtQtQt",
"QtQtQtQtQtQtQtQtQtQtQtQtQtQtQtQtQtQtQt.1#g.6QtQtQtQtQtQtQtQtQt#h.j#i#d#d.7.fQtQtQtQtQtQtQtQt#j#k#lQtQtQtQtQtQtQtQtQtQtQtQtQtQtQtQtQtQtQtQtQt",
"QtQtQtQtQtQtQtQtQtQtQtQtQtQtQtQtQtQtQt#m#e#nQtQtQtQtQtQtQtQt#o.S.S.h.A#d.A#e#pQtQtQtQtQtQtQt#q#m.TQtQtQtQtQtQtQtQtQtQtQtQtQtQtQtQtQtQtQtQtQt",
"QtQtQtQtQtQtQtQtQtQtQtQtQtQtQtQtQtQtQt#r.i#sQtQtQtQtQtQtQtQt#t.h#u.h#v.z#c.z#wQtQtQtQtQtQtQt.W.v#xQtQtQtQtQtQtQtQtQtQtQtQtQtQtQtQtQtQtQtQtQt",
"QtQtQtQtQtQtQtQtQtQtQtQtQtQtQtQtQtQtQt#y#c.dQtQtQtQtQtQtQt.O.g#m.V.S#z.g.i.A#A.9QtQtQtQtQtQt#m.b#BQtQtQtQtQtQtQtQtQtQtQtQtQtQtQtQtQtQtQtQtQt",
"QtQtQtQtQtQtQtQtQtQtQtQtQtQtQtQtQtQtQt#C#c#D#EQtQtQtQtQtQt#F.j.b.A#G.5#q.h.z.b#HQtQtQtQtQt#l.j#I#JQtQtQtQtQtQtQtQtQtQtQtQtQtQtQtQtQtQtQtQtQt",
"QtQtQtQtQtQtQtQtQtQtQtQtQtQtQtQtQtQtQt#K#h#L#MQtQtQtQtQtQt.Q.z#d#d.c#N#O.j.2.z#P#QQtQtQtQt#R.j#S.9QtQtQtQtQtQtQtQtQtQtQtQtQtQtQtQtQtQtQtQtQt",
"QtQtQtQtQtQtQtQtQtQtQtQtQtQtQtQtQtQtQtQt#t#c#TQtQtQtQtQtQt.4#d#d#i#U.l#f.i.b.g#m#V#W.mQtQt#X.h.rQtQtQtQtQtQtQtQtQtQtQtQtQtQtQtQtQtQtQtQtQtQt",
"QtQtQtQtQtQtQtQtQtQtQtQtQtQtQtQtQtQtQtQt#Y.z#ZQtQtQtQtQt#0#m#d#d#1QtQtQt.W.v#2.j#c.h#c.i.2.i.h#3QtQtQtQtQtQtQtQtQtQtQtQtQtQtQtQtQtQtQtQtQtQt",
"QtQtQtQtQtQtQtQtQtQtQtQtQtQtQtQtQtQtQtQt#B.i.b#pQtQtQtQt#4#i#d#i#5QtQtQt.K.z.a.z#G#6.s.7#2#7.I#8QtQtQtQtQtQtQtQtQtQtQtQtQtQtQtQtQtQtQtQtQtQt",
"QtQtQtQtQtQtQtQtQtQtQtQtQtQtQtQtQtQtQtQtQt#1.z.j.j#c#c#c#i#d#d.gQtQtQtQt#p#c#7.j#t#9Qt.la.a#aa.9QtQtQtQtQtQtQtQtQtQtQtQtQtQtQtQtQtQtQtQtQtQt",
"QtQtQtQtQtQtQtQtQtQtQtQtQtQtQtQtQtQtQtQtQtabacad.F#Paeaf#i#d#d.IQtQtQtQtQt.W.v.i#h.xQtQtQtQtQtQtQtQtQtQtQtQtQtQtQtQtQtQtQtQtQtQtQtQtQtQtQtQt",
"QtQtQtQtQtQtQtQtQtQtQtQtQtQtQtQtQtQtQtQtQtQtQtQtQtQtQt#S.j#d#d.nQtQtQtQtQtag.i.c.j#G.V.B.S#eaeahQtQtQtQtQtQtQtQtQtQtQtQtQtQtQtQtQtQtQtQtQtQt",
"QtQtQtQtQtQtQtQtQtQtQtQtQtQtQtQtQtQtQtQtaiajak#ualam.V.v.h#d#d#sQtQtQtQtQtan.A#i#i.U#Lao.V.i.z.i#UQtQtQtQtQtQtQtQtQtQtQtQtQtQtQtQtQtQtQtQtQt",
"QtQtQtQtQtQtQtQtQtQtQtQtQtQtQtQtQtQt#p.a.j.j.j.j.i.2.2.A.g#d#iapQtQtQtQtQt.P#i#d#i#k#8#Naqaras.v.a#0QtQtQtQtQtQtQtQtQtQtQtQtQtQtQtQtQtQtQtQt",
"QtQtQtQtQtQtQtQtQtQtQtQtQtQtQtQtQtQtae.A#qatau#oav.yaw#cax#d#i.xQtQtQtQtQt.P.A#d#dayQtQtQtQt.9az.jan#bQtQtQtQtQtQtQtQtQtQtQtQtQtQtQtQtQtQtQt",
"QtQtQtQtQtQtQtQtQtQtQtQtQtQtQtQtQt.y.i.waA.9QtQtQtQtaB.vaz#d#iaCQtQtQtQtQtag#c#d#d.sQtQtQtQtQtaD.W.haE.9QtQtQtQtQtQtQtQtQtQtQtQtQtQtQtQtQtQt",
"QtQtQtQtQtQtQtQtQtQtQtQtQtQtQtQtQt#2.j#X.MQtQtQtQtQt.gaFaG#d.jaHQtQtQtQtQt.c#c#d#d.1#EQtQtQtQt.9aI.j#t#EQtQtQtQtQtQtQtQtQtQtQtQtQtQtQtQtQtQt",
"QtQtQtQtQtQtQtQtQtQtQtQtQtQtQtQt#X.j#qa#QtQtQtQtQtaJ#c.Dao#d.2QtQtQtQtQt.Z.h.B#d#d.b#NQtQtQtQtQtQt.W.iaKQtQtQtQtQtQtQtQtQtQtQtQtQtQtQtQtQtQt",
"QtQtQtQtQtQtQtQtQtQtQtQtQtQtQtaK#m.SaL.9QtQtQtQtQt.8.j#u#i#d.UQtQtQtQtQt#r.j.A#d#i#m.mQtQtQtQtQtQt.k.z.VaMQtQtQtQtQtQtQtQtQtQtQtQtQtQtQtQtQt",
"QtQtQtQtQtQtQtQtQtQtQtQtQtQtQt#7#caN#JQtQtQtQtQtQtaw.z.v#d#daeQtQtQtQtaO#c.A#d#d.j.jaP.6QtQtQtQtQtaQaz.g#3QtQtQtQtQtQtQtQtQtQtQtQtQtQtQtQtQt",
"QtQtQtQtQtQtQtQtQtQtQtQtQtQtQt.j.v#8QtQtQtQtQtQtQt.c.i.h#d#daRQtQtQtQt.7.z.A#d#i.n.h.v#MQtQtQtQtQtQtaSaTa.QtQtQtQtQtQtQtQtQtQtQtQtQtQtQtQtQt",
"QtQtQtQtQtQtQtQtQtQtQtQtQtQtQt.o#gaUQtQtQtQtQtQtQtaF.a#c#d#d#SQtQtQtaV.i#i#c#d.z.D#d#daWQtQtQtQtQtQtQtQtQtQtQtQtQtQtQtQtQtQtQtQtQtQtQtQtQtQt",
"QtQtQtQtQtQtQtQtQtQtQtQtQtQtQt.l.l.9QtQtQtQtQtQtaX#raY.i#i#daoaZ#1.w#c.A#i.S#d#i#i.A.A#DaaQtQtQtQtQtQtQtQtQtQtQtQtQtQtQtQtQtQtQtQtQtQtQtQtQt",
"QtQtQtQtQtQtQtQtQtQtQtQtQtQtQtQtQtQtQtQtQtQtQta0.h.h.h.z#i#d#i.h#c.Sam.S#i#i#d.A#d#m.V.2##QtQtQtQtQtQtQtQtQtQtQtQtQtQtQtQtQtQtQtQtQtQtQtQtQt",
"QtQtQtQtQtQtQtQtQtQtQtQtQtQtQtQtQtQtQtQtQtQtQt#a.ha1#A.h#i#d#i.c.I#y.a#d#i#d#i.z.A.1aP.z.kQtQtQtQtQtQtQtQtQtQtQtQtQtQtQtQtQtQtQtQtQtQtQtQtQt",
"QtQtQtQtQtQtQtQtQtQtQtQtQtQtQtQtQtQtQtQtQtQtQt#6.z.2aY.d.h#i.z.h.z#i#d#i#i#d.z.a.jadab#cafaaQtQtQtQtQtQtQtQtQtQtQtQtQtQtQtQtQtQtQtQtQtQtQtQt",
"QtQtQtQtQtQtQtQtQtQtQtQtQtQtQtQtQtQtQtQtQtQtQta2.h#ca3a4.Q.j.z.z.A.A.i.2#d.Aaf.h.garQtaF.b.0QtQtQtQtQtQtQtQtQtQtQtQtQtQtQtQtQtQtQtQtQtQtQtQt",
"QtQtQtQtQtQtQtQtQtQtQtQtQtQtQtQtQtQtQtQtQtQtQtaF.v.g#h.ta..h#d#i#c.V.2#d#da2.1.ja5#JQt#u#c#TQtQtQtQtQtQtQtQtQtQtQtQtQtQtQtQtQtQtQtQtQtQtQtQt",
"QtQtQtQtQtQtQtQtQtQtQtQtQtQtQtQtQtQtQtQtQtQt.t.h.a.D.ia6Qta7#i.A.h.A#d#i#2a8.j.W#8QtQta9.haRQtQtQtQtQtQtQtQtQtQtQtQtQtQtQtQtQtQtQtQtQtQtQtQt",
"QtQtQtQtQtQtQtQtQtQtQtQtQtQtQtQtQtQtQtQtQtQtb..z#S#3.h#Ga..Rag.j.i.A.2b##Hag.zbaQtQtQtbb.B#rbcQtQtQtQtQtQtQtQtQtQtQtQtQtQtQtQtQtQtQtQtQtQtQt",
"QtQtQtQtQtQtQtQtQtQtQtQtQtQtQtQtQtQtQtQtQtQt.a.ibd#E#r.2bdQt.eaG.ba2#zQt.T.h#r#pQtQtQtQt.c#mbeQtQtQtQtQtQtQtQtQtQtQtQtQtQtQtQtQtQtQtQtQtQtQt",
"QtQtQtQtQtQtQtQtQtQtQtQtQtQtQtQtQtQtQtQtQtbf#m.b#HQtba.h#I.RQtbgbh#nQt.X.a.hbiQtQtQtQtQtam.vbdQtQtQtQtQtQtQtQtQtQtQtQtQtQtQtQtQtQtQtQtQtQtQt",
"QtQtQtQtQtQtQtQtQtQtQtQtQtQtQtQtQtQtQtQtQt#6.z#6bgQt#Q.W.2a0QtQtQtQtQtac.z.D.eQtQtQtQtQt#6.h.rQtQtQtQtQtQtQtQtQtQtQtQtQtQtQtQtQtQtQtQtQtQtQt",
"QtQtQtQtQtQtQtQtQtQtQtQtQtQtQtQtQtQtQtQt#f.W.2bjQtQtQtac.ha1#EQtQtQtQt#r#c#oQtQtQtQtQtQt.y#c.7#9QtQtQtQtQtQtQtQtQtQtQtQtQtQtQtQtQtQtQtQtQtQt",
"QtQtQtQtQtQtQtQtQtQtQtQtQtQtQtQtQtQtQtQtaK#c#ta.QtQtQtaU.V.2aMQtQtQtbk.j#vaaQtQtQtQtQtQt#9.g#LaDQtQtQtQtQtQtQtQtQtQtQtQtQtQtQtQtQtQtQtQtQtQt",
"QtQtQtQtQtQtQtQtQtQtQtQtQtQtQtQtQtQtQtQtb..h#aQtQtQtQtQtbl.h#u#QQtQt.b.2bm.9QtQtQtQtQtQtQt.P.haWQtQtQtQtQtQtQtQtQtQtQtQtQtQtQtQtQtQtQtQtQtQt",
"QtQtQtQtQtQtQtQtQtQtQtQtQtQtQtQtQtQtQtQtao.S.NQtQtQtQtQtbn.w.BbeQta8.h#qboQtQtQtQtQtQtQtQt#R.j#e#lQtQtQtQtQtQtQtQtQtQtQtQtQtQtQtQtQtQtQtQtQt",
"QtQtQtQtQtQtQtQtQtQtQtQtQtQtQtQtQtQtQtbk.han.5QtQtQtQtQtQt#6.haG.6a3.j#WQtQtQtQtQtQtQtQtQtbn.U#c#sQtQtQtQtQtQtQtQtQtQtQtQtQtQtQtQtQtQtQtQtQt",
"QtQtQtQtQtQtQtQtQtQtQtQtQtQtQtQtQtQtQtaB.2.EQtQtQtQtQtQtQt#faF.j#7.j#2#NQtQtQtQtQtQtQtQtQtQt.8.jaP.MQtQtQtQtQtQtQtQtQtQtQtQtQtQtQtQtQtQtQtQt",
"QtQtQtQtQtQtQtQtQtQtQtQtQtQtQtQtQtQt#R#c.D.RQtQtQtQtQtQtQtQtbp.g#i#maV.9QtQtQtQtQtQtQtQtQtQt#E.i#7#fQtQtQtQtQtQtQtQtQtQtQtQtQtQtQtQtQtQtQtQt",
"QtQtQtQtQtQtQtQtQtQtQtQtQtQtQtQtQtQtan.ibq.9QtQtQtQtQtQtQtQt.9#z#4#z.lQtQtQtQtQtQtQtQtQtQtQtQtao.vbrQtQtQtQtQtQtQtQtQtQtQtQtQtQtQtQtQtQtQtQt",
"QtQtQtQtQtQtQtQtQtQtQtQtQtQtQtQtQtQtao.g.fQtQtQtQtQtQtQtQtQtQtQtQtQtQtQtQtQtQtQtQtQtQtQtQtQtQtan.j#XQtQtQtQtQtQtQtQtQtQtQtQtQtQtQtQtQtQtQtQt",
"QtQtQtQtQtQtQtQtQtQtQtQtQtQtQtQtQtQt.B.U.eQtQtQtQtQtQtQtQtQtQtQtQtQtQtQtQtQtQtQtQtQtQtQtQtQtQtbs.SaNQtQtQtQtQtQtQtQtQtQtQtQtQtQtQtQtQtQtQtQt",
"QtQtQtQtQtQtQtQtQtQtQtQtQtQtQtQtQtQt#2.K.6QtQtQtQtQtQtQtQtQtQtQtQtQtQtQtQtQtQtQtQtQtQtQtQtQtQtbn.Y.eQtQtQtQtQtQtQtQtQtQtQtQtQtQtQtQtQtQtQtQt",
"QtQtQtQtQtQtQtQtQtQtQtQtQtQtQtQtQtQtbf#fQtQtQtQtQtQtQtQtQtQtQtQtQtQtQtQtQtQtQtQtQtQtQtQtQtQtQtQtQtQtQtQtQtQtQtQtQtQtQtQtQtQtQtQtQtQtQtQtQtQt",
"QtQtQtQtQtQtQtQtQtQtQtQtQtQtQtQtQtQtQtQtQtQtQtQtQtQtQtQtQtQtQtQtQtQtQtQtQtQtQtQtQtQtQtQtQtQtQtQtQtQtQtQtQtQtQtQtQtQtQtQtQtQtQtQtQtQtQtQtQtQt",
"QtQtQtQtQtQtQtQtQtQtQtQtQtQtQtQtQtQtQtQtQtQtQtQtQtQtQtQtQtQtQtQtQtQtQtQtQtQtQtQtQtQtQtQtQtQtQtQtQtQtQtQtQtQtQtQtQtQtQtQtQtQtQtQtQtQtQtQtQtQt",
"QtQtQtQtQtQtQtQtQtQtQtQtQtQtQtQtQtQtQtQtQtQtQtQtQtQtQtQtQtQtQtQtQtQtQtQtQtQtQtQtQtQtQtQtQtQtQtQtQtQtQtQtQtQtQtQtQtQtQtQtQtQtQtQtQtQtQtQtQtQt",
"QtQtQtQtQtQtQtQtQtQtQtQtQtQtQtQtQtQtQtQtQtQtQtQtQtQtQtQtQtQtQtQtQtQtQtQtQtQtQtQtQtQtQtQtQtQtQtQtQtQtQtQtQtQtQtQtQtQtQtQtQtQtQtQtQtQtQtQtQtQt",
"QtQtQtQtQtQtQtQtQtQtQtQtQtQtQtQtQtQtQtQtQtQtQtQtQtQtQtQtQtQtQtQtQtQtQtQtQtQtQtQtQtQtQtQtQtQtQtQtQtQtQtQtQtQtQtQtQtQtQtQtQtQtQtQtQtQtQtQtQtQt",
"QtQtQtQtQtQtQtQtQtQtQtQtQtQtQtQtQtQtQtQtQtQtQtQtQtQtQtQtQtQtQtQtQtQtQtQtQtQtQtQtQtQtQtQtQtQtQtQtQtQtQtQtQtQtQtQtQtQtQtQtQtQtQtQtQtQtQtQtQtQt",
"QtQtQtQtQtQtQtQtQtQtQtQtQtQtQtQtQtQtQtQtQtQtQtQtQtQtQtQtQtQtQtQtQtQtQtQtQtQtQtQtQtQtQtQtQtQtQtQtQtQtQtQtQtQtQtQtQtQtQtQtQtQtQtQtQtQtQtQtQtQt",
"QtQtQtQtQtQtQtQtQtQtQtQtQtQtQtQtQtQtQtQtQtQtQtQtQtQtQtQtQtQtQtQtQtQtQtQtQtQtQtQtQtQtQtQtQtQtQtQtQtQtQtQtQtQtQtQtQtQtQtQtQtQtQtQtQtQtQtQtQtQt"};
