/* XPM */
static char *dummy[]={
"70 70 250 2",
".# c None",
".f c None",
"Qt c None",
".S c #1fd328",
"ai c #1fd328",
"#1 c #1fd328",
"a6 c #1fd328",
"bh c #1fd328",
"#t c #1fd328",
"#c c #1fd328",
"#Z c #1fd328",
".1 c #1fd328",
".g c #1fd328",
".C c #1fd328",
".R c #1fd328",
".V c #1fd328",
"#z c #1fd328",
".M c #1fd328",
"aW c #1fd328",
"bc c #1fd328",
"aL c #1fd328",
"aI c #1fd328",
"a2 c #1fd328",
"bW c #1fd328",
"#3 c #1fd328",
"#N c #1fd328",
"ak c #1fd328",
".e c #1fd328",
"aA c #1fd328",
"bz c #1fd328",
"ar c #1fd328",
"ag c #1fd328",
"bI c #1fd328",
".2 c #1fd328",
"a0 c #1fd328",
".I c #1fd328",
".v c #1fd328",
"aa c #1fd328",
"aH c #1fd328",
"b. c #1fd328",
".5 c #1fd328",
"bb c #1fd328",
"#B c #1fd328",
"bQ c #1fd328",
"bt c #1fd328",
".N c #1fd328",
"bv c #1fd328",
"#5 c #1fd328",
"bZ c #1fd328",
"b0 c #1fd328",
"bE c #1fd328",
"bM c #1fd328",
".H c #1fd328",
"b3 c #1fd328",
"a4 c #1fd328",
"a3 c #1fd328",
".Y c #1fd328",
"bK c #1fd328",
"#h c #1fd328",
"#R c #1fd328",
"#D c #1fd328",
"bP c #1fd328",
"a. c #1fd328",
"bT c #1fd328",
"#x c #1fd328",
"#7 c #1fd328",
"ap c #1fd328",
"bm c #1fd328",
"bu c #1fd328",
"#C c #1fd328",
"#K c #1fd328",
".a c #1fd328",
"#A c #1fd328",
"by c #1fd328",
"#2 c #1fd328",
"bp c #1fd328",
"#W c #1fd328",
"ae c #1fd328",
"au c #1fd328",
"aE c #1fd328",
"bA c #1fd328",
"#u c #1fd328",
".T c #1fd328",
"aT c #1fd328",
"#X c #1fd328",
".J c #1fd328",
"#Q c #1fd328",
"bg c #1fd328",
"bn c #1fd328",
"bG c #1fd328",
".d c #1fd328",
"bS c #1fd328",
".n c #1fd328",
"aJ c #1fd328",
"bX c #1fd328",
"b1 c #1fd328",
"bU c #1fd328",
".4 c #1fd328",
"#G c #1fd328",
"bi c #1fd328",
"#F c #1fd328",
"aY c #1fd328",
"bw c #1fd328",
"#b c #1fd328",
"bC c #1fd328",
"bD c #1fd328",
".Z c #1fd328",
"aC c #1fd328",
"#p c #1fd328",
"#M c #1fd328",
"bO c #1fd328",
"bJ c #1fd328",
"a8 c #1fd328",
"aF c #1fd328",
".h c #1fd328",
"bl c #1fd328",
"#8 c #1fd328",
"a9 c #1fd328",
"b2 c #1fd328",
".b c #1fd328",
"#4 c #1fd328",
"#6 c #1fd328",
"bx c #1fd328",
".c c #1fd328",
"a7 c #1fd328",
"ah c #1fd328",
"bR c #1fd328",
"a# c #1fd328",
"aU c #1fd328",
"aZ c #1fd328",
"bB c #1fd328",
"#e c #1fd328",
"#n c #1fd328",
"aM c #1fd328",
"#v c #1fd328",
"#f c #1fd328",
"ab c #1fd328",
".Q c #1fd328",
"be c #1fd328",
"bN c #1fd328",
"aV c #1fd328",
"#d c #1fd328",
"bH c #1fd328",
"bs c #1fd328",
".u c #1fd328",
"as c #1fd328",
".G c #1fd328",
"aq c #1fd328",
"aO c #1fd328",
"#0 c #1fd328",
"aR c #1fd328",
".X c #1fd328",
"#w c #1fd328",
"a1 c #1fd328",
".0 c #1fd328",
"aX c #1fd328",
"bo c #1fd328",
"#S c #1fd328",
"bV c #1fd328",
"bf c #1fd328",
"bj c #1fd328",
"a5 c #1fd328",
"br c #1fd328",
"bq c #1fd328",
"#L c #1fd328",
"#P c #1fd328",
"#a c #1fd328",
"ba c #1fd328",
"bY c #1fd328",
"ax c #1fd328",
"bF c #1fd328",
".o c #1fd328",
".D c #1fd328",
"aN c #1fd328",
"b# c #1fd328",
".W c #1fd328",
".9 c #1fd328",
"#O c #1fd328",
"#r c #1fd328",
".K c #1fd328",
"#. c #1fd328",
"## c #1fd328",
".B c #1fd328",
".O c #1fd328",
"am c #1fd328",
"ay c #1fd328",
"aS c #1fd328",
"at c #1fd328",
"aP c #1fd328",
"#E c #1fd328",
"#y c #1fd328",
"#Y c #1fd328",
"bd c #1fd328",
".L c #1fd328",
"aB c #1fd328",
"aD c #1fd328",
"#H c #1fd328",
"aQ c #1fd328",
"az c #1fd328",
"aG c #1fd328",
".8 c #1fd328",
"aK c #1fd328",
"al c #1fd328",
"aj c #1fd328",
"ac c #1fd328",
"aw c #1fd328",
"#q c #1fd328",
"#V c #1fd328",
"an c #1fd328",
"#T c #1fd328",
"bL c #1fd328",
".i c #1fd328",
"#J c #1fd328",
".3 c #1fd328",
"ao c #1fd328",
"af c #1fd328",
".t c #1fd328",
".F c #1fd328",
"#9 c #1fd328",
"#m c #1fd328",
".r c #1fd328",
".E c #1fd328",
"ad c #1fd328",
"#l c #1fd328",
".P c #1fd328",
"#I c #1fd328",
".s c #1fd328",
".p c #1fd328",
"#o c #1fd328",
"#g c #1fd328",
".j c #1fd328",
"av c #1fd328",
".q c #1fd328",
"#i c #1fd328",
".k c #1fd328",
".y c #1fd328",
".z c #1fd328",
".l c #1fd328",
".m c #1fd328",
"bk c #1fd328",
"#U c #1fd328",
"#s c #1fd328",
".x c #1fd328",
".6 c #1fd328",
"#k c #1fd328",
".w c #1fd328",
".A c #1fd328",
".U c #1fd328",
"#j c #1fd328",
".7 c #1fd328",
"QtQtQtQtQtQtQtQtQtQtQtQtQtQtQtQtQtQtQtQtQtQtQtQtQtQtQtQtQtQtQtQtQtQtQtQt.#.#.a.b.c.d.e.fQtQtQtQtQtQtQtQtQtQtQtQtQtQtQtQtQtQtQtQtQtQtQtQtQtQt",
"QtQtQtQtQtQtQtQtQtQtQtQt.#.#.#.#.#.#.#.g.h.i.j.k.l.m.m.j.n.f.#.#.#.#.#.#.o.p.q.p.r.s.t.u.v.f.#.#.#.#.#.#QtQtQtQtQtQtQtQtQtQtQtQtQtQtQtQtQtQt",
"QtQtQtQtQtQtQtQtQtQtQtQt.#.#.#.#.#.#.a.p.w.w.x.m.y.z.z.A.A.B.C.#.#.#.D.E.F.G.d.H.I.J.K.p.L.M.#.#.#.#.#.#QtQtQtQtQtQtQtQtQtQtQtQtQtQtQtQtQtQt",
"QtQtQtQtQtQtQtQtQtQtQtQt.#.#.#.#.N.O.w.A.P.Q.v.R.S.S.S.T.q.U.r.V.#.#.W.X.Y.f.f.f.#.#.S.Z.y.0.1.#.#.#.#.#QtQtQtQtQtQtQtQtQtQtQtQtQtQtQtQtQtQt",
"QtQtQtQtQtQtQtQtQtQtQtQt.#.#.#.2.3.A.y.4.V.f.f.#.#.#.#.f.5.6.7.8.B.9#.###a#b.g.#.#.#.##c#d.j#e.f.#.#.#.#QtQtQtQtQtQtQtQtQtQtQtQtQtQtQtQtQtQt",
"QtQtQtQtQtQtQtQtQtQtQtQt.#.#.##f.A#g#h.f.#.#.#.#.#.#.##h#i.7.7.7#j#k#l.i#m.l#n.f.#.#.#.#.1#a#o#p.f.#.#.#QtQtQtQtQtQtQtQtQtQtQtQtQtQtQtQtQtQt",
"QtQtQtQtQtQtQtQtQtQtQtQt.#.#.##q#k.d.f.#.#.#.#.##c#r.x#j.7.7.r.p.l#j.7.7.A#s.B.S.#.#.#.#.##t.X#u.f.#.#.#QtQtQtQtQtQtQtQtQtQtQtQtQtQtQtQtQtQt",
"QtQtQtQt.#.#.#.#.#.#.f.f.#.#.##v#w.S.#.#.#.#.#.##x.6.w.A#j#y.#.S#z#A#l.7#k.y#A.#.#.#.#.#.#.#.#.f.f.f.#.#QtQtQtQtQtQtQtQtQtQtQtQtQtQtQtQtQtQt",
"QtQtQtQt.#.#.#.#.#.#.f.f.f.#.#.#.#.#.#.#.#.#.#.##B#j#k#j.6#C.#.#.#.##D.U#j.E#E.S.#.#.#.#.#.#.#.f.f.f.#.#QtQtQtQtQtQtQtQtQtQtQtQtQtQtQtQtQtQt",
"QtQtQtQt.#.#.#.#.#.#.f.f.f.#.#.#.#.#.#.#.#.#.#.#.4#j.y.U.s#F#G.J#t.#.#.q.7.j#H.S.#.#.#.#.#.#.#.f.f.f.#.#QtQtQtQtQtQtQtQtQtQtQtQtQtQtQtQtQtQt",
"QtQtQtQt.#.#.#.#.#.#.f.f.f.f.#.#.#.#.#.#.#.#.#.#.g#f#o.U.y.P.k.A.w#I#J.y.U.U#q.S.#.#.#.#.#.#.1#K.R.#.#.#QtQtQtQtQtQtQtQtQtQtQtQtQtQtQtQtQtQt",
"QtQtQtQt.#.#.#.#.##L#M.#.f.f.f.#.#.#.#.#.#.#.#.##N#O#i#P#Q#R.9.U.w#S###T#U#j#V.S.#.#.#.#.#.##W.k#X.#.#.#QtQtQtQtQtQtQtQtQtQtQtQtQtQtQtQtQtQt",
"QtQtQtQt.#.#.#.#.##Y.L.1.f.f.f.#.#.#.#.#.#.#.#.##n#j#L#Z.#.##0#j.z.R.##1#2#m.t#3.#.#.#.#.#.##4#g#5.#.#.#QtQtQtQtQtQtQtQtQtQtQtQtQtQtQtQtQtQt",
"QtQtQtQt.#.#.#.#.##6#l#7.f.f.f.f.#.#.#.#.#.#.#.##G#U.d.#.#.##8.7#9.f.#.#.fa..q#M.f.#.#.#.#.#a#.saa.#.#.#QtQtQtQtQtQtQtQtQtQtQtQtQtQtQtQtQtQt",
"QtQtQtQt.#.#.#.#.#.5#9.o#t.#.#.#.#.#.#.#.#.#.#.##K.U.9.#.#.#ab.7.6.8#C.f.#.Sacac#c.#.#.#.#.#a#ad.v.#.#.#QtQtQtQtQtQtQtQtQtQtQtQtQtQtQtQtQtQt",
"QtQtQtQt.#.#.#.#.#.fa#.P.J.f.#.#.#.#.#.#.#.#.#.#ae.A.q.b.f.Haf#g#s#o.p#V#P.s.U.qag.#.#.#.#.#ah#m.2.#.#.#QtQtQtQtQtQtQtQtQtQtQtQtQtQtQtQtQtQt",
"QtQtQtQt.#.#.#.#.#.#aiacajak.#.#.#.#.#.#.#.#.#.##6.kaj.p#Val.E#Ram#gan.x.w.w.waoap.S.#.#.#.#ah#9.v.#.#.#.f.f.#.#.#.#.#.#QtQtQtQtQtQtQtQtQtQt",
"QtQtQtQt.#.#.#.#.#.#.#ae#l#e.f.#.#.#.#.#.#.#.#.#aq#9ar#uao.t.Z.f.Rasanat#nauav#s#i#oaw#Hax#S.tad#3.#.#.#.f.f.f.#.#.#.#.#QtQtQtQtQtQtQtQtQtQt",
"QtQtQtQtQtQtQtQtQtQtQtQtayaz.1.#.#.#.#.#.#.#.#.##Pan.g.#aA#z.#.#.#.##z#y#9aB#JamaC.Q.K#Y.3.iaD#p.f.#.#.#.f.f.f.f.#.#.#.#QtQtQtQtQtQtQtQtQtQt",
"QtQtQtQtQtQtQtQtQtQtQtQt#6#lap.#.#.#.#.#.#.#.#aE#m.Wai.#.#.#.#.#.##ZaF.7.7.l.maG.#.#.#.##z.M#t.#.#aHaI.#.f.f.f.f.#.#.#.#QtQtQtQtQtQtQtQtQtQt",
"QtQtQtQtQtQtQtQtQtQtQtQtaH.P#8.f.#.#.#.#.#aJaK.z.U#l#4aL.#.#.#.#.#aM.y.7#j.t.x#m.#.#.#.#.##taeaNaf#I#laO.g.#.#.#.#.#.#.#QtQtQtQtQtQtQtQtQtQt",
"QtQtQtQtQtQtQtQtQtQtQtQt.f.P.3ayaP.B.O#V.E.paQaR#U#U.U#I#VaS#K.#aT#o.z.A#j.y.x#o.S.#.#.#.#aN.q.3axah#a.q#8.f.#.#.#.#.#.#QtQtQtQtQtQtQtQtQtQt",
"QtQtQtQt.#.#.#.#.#.#.#.f.#aU.8aj#qaKal.WaV.TaW.2.m.x.zav.K.P#a.#aX.t#I#s#j#k.P#V#t.#.#aY.r#maZaI.f.f.gat#9a0.f.#.#.#.#.#QtQtQtQtQtQtQtQtQtQt",
"QtQtQtQt.#.#.#.#.#.#.f.f.#.faiaiaiaiai.#.#.#.#.b.U#J.r.kaJ.B#H.Sa1#m#l.y#j.7.x#9a2a3at.p##a3.f.f.#.#.#a4.j.Wag.#.#.#.#.#QtQtQtQtQtQtQtQtQtQt",
"QtQtQtQt.#.#.#.#.#.f.f.f#X#Jafa5#X.Ya6.#.#.#.#aK.A.8.wav#LataK.Sa7av.s.k.U.7#j.kaZ#maoa8.V.f.f.#.#.#.#.#a9.j.ra..#.#.#.#QtQtQtQtQtQtQtQtQtQt",
"QtQtQtQt.#.#.#.#.#.f.f.f.i#Tayad.k.kavac#faJ#Rav.6#Y.7#j#laBac.S#A.z#i.m.l.7#j.U.laP.N.#.#.#.#.#.#.f.f.f.SapaXb..#.#.#.#QtQtQtQtQtQtQtQtQtQt",
"QtQtQtQt.#.#.#.#.#.#aLb#.rapaiaa#X#paV.8#oav.p.A#iba#j.7.majaj.S#c.r.j.w#i#j.U#j.3.C.#.#.#.#.#.#.#.f.f.f.f.f.#.#.#.#.#.#QtQtQtQtQtQtQtQtQtQt",
"QtQtQtQt.#.#.#.#.#araN#g.b.f.f.#.#.f.f.#bb#Caq.U.i.0#j.7#U.r.8.S.#am.p#j.p#j#k#j.lbc.#.#.#.#.#.#.f.f.f.f.f.f.#.#.#.#.#.#QtQtQtQtQtQtQtQtQtQt",
"QtQtQtQt.#.#.#.#.2bd.q#8a6.f.#.#.#.#.#.#.#.##P.U.oaX#j.7.z.y.8.S.#be.m#j#9.U.l.q.q.2.#.#.#.#.#.f.f.f.f.f.f.f.f.#.#.#.#.#QtQtQtQtQtQtQtQtQtQt",
"QtQtQtQt.#.#.#.#ajad#Gai.#.#.#.f.f.f.f.#.#.V.y.7aDbf.U.7.k#saK.S.#bg.w.7af.U.y.L.jap.#.#.#.#.#.#bh#ha4ai.f.f.f.#.#.#.#.#QtQtQtQtQtQtQtQtQtQt",
"QtQtQtQt.#.##Najafae.f.#.#.#.#.f.f.f.f.f.#bi.6.7aGbj.w.7#U.6#V.#.#a2bk.7.j.Ubkan.Pbl.#.#.#.#.#.##G.m.ybm.f.f.f.#.#.#.#.#QtQtQtQtQtQtQtQtQtQt",
"QtQtQtQt.#.#aU.pbn.f.f.#.#.#.#.f.f.f.f.f.#bo.z#j.Fbo.x.7.w#k.r#t.#.#.F.7.A.7.A#i#T##ai.#.#.#.##5.FacadaS#1.#.#.#.#.#.#.#QtQtQtQtQtQtQtQtQtQt",
"QtQtQtQt.#.#aHbpai.f.#.#.#.#.#.W.FaA.#.#.#aN#g.Ubkbq#s#j.U#k.q#3.#.#br#j.6.7.7.x#o#ia2.#.#.#.R.B.P#Dbs.ka..f.#.#.#.#.#.#QtQtQtQtQtQtQtQtQtQt",
"QtQtQtQtQtQtQtQtQtQtQtQt.#.#bt.kbkbu.#.#.##yad#k.w#rbk#j.7.wbkbv.#.#bw.U.w#j.7#j.U.U#u.#.#.##8.qbl.faA.pbj.f.#.#.#.#.#.#QtQtQtQtQtQtQtQtQtQt",
"QtQtQtQtQtQtQtQtQtQtQtQt.#.##v.q#IaM.f.#.##9ajbk.UaQ.l#j.7.U.x#u.#.#.2.x.U.y.7.7#k#ja5.#.##x#9aS#Z.#.#bf.pbt.#.#.#.#.#.#QtQtQtQtQtQtQtQtQtQt",
"QtQtQtQtQtQtQtQtQtQtQtQt.#.#.O#TaBbd#t.#.##m#y.z#j.F.z#j.7#j#U#0.#.#.#.q#jaj.7.7#j#j.rbc.#aS.Fbt.#.#.#bu.kbx.f.#.#.#.#.#QtQtQtQtQtQtQtQtQtQt",
"QtQtQtQtQtQtQtQtQtQtQtQt.#.##J##a#.Pby.#aAaday#j#j#i.6#j#j.7.laN.#.#.#an.7av.7.7.7.A.lbu.d#Ibl.#.#.#.##caK#Y.f.#.#.#.#.#QtQtQtQtQtQtQtQtQtQt",
"QtQtQtQtQtQtQtQtQtQtQtQt.##t.jaMbzanaw#Nbn#Ibq.7.U#k.U.w.A.7.6.9.#.#.#aO.7.7.7.7.7.xbkas#VaQ.V.#.#.#.#.##aao.M.#.#.#.#.#QtQtQtQtQtQtQtQtQtQt",
"QtQtQtQtQtQtQtQtQtQtQtQt.#.Y.q#b.fby.P.cab.rbe#j.A#j#j#s.x.7#jb#.#.#.#.J.7.7.7.7.7.6#o#o#I#W.#.#.#.#.#.##Gav#Q.#.#.#.#.#QtQtQtQtQtQtQtQtQtQt",
"QtQtQtQtQtQtQtQtQtQtQtQt.#bA#iae.#.f#O.raB#JbB.U.w#j#jav.6#j.7.B.#.#.#bC.7#j.7#j.7.7.i.Uatai.#.#.#.#.#.#aL.t#P.f.#.#.#.#QtQtQtQtQtQtQtQtQtQt",
"QtQtQtQtQtQtQtQtQtQtQtQt.#aM.Pbb.#.#bt.F.z#a#v.U.w.7#j.F#k#j.7aP.#.#.#be.7.7.7.7.7.7#I.Ua#.#.#.#.#.#.#.#.f#S#laa.#.#.#.#QtQtQtQtQtQtQtQtQtQt",
"QtQtQtQtQtQtQtQtQtQtQtQt.#bo#JaW.#.#.fbD#U.kax.w.x.7.U.r.j#j.7aB.#.#.##4.7#j.7.7.7.7.l.mah.#.#.#.#.#.#.#.#bE.paY.f.#.#.#QtQtQtQtQtQtQtQtQtQt",
"QtQtQtQtQtQtQtQtQtQtQtQt.#.B#Ha6.#.#.#.#av.xaS.w#U.7.w#i.j.F.7.i.#.#.##W#j.U.7#j.7.7.w#HaD#t.#.#.#.#.#.#.#.facayai.#.#.#QtQtQtQtQtQtQtQtQtQt",
"QtQtQtQtQtQtQtQtQtQtQtQt.#.ibF.f.#.#.#.#.L.P#q.w#U.7#s.6.z.W.7.jbc.#.#bG.U.U.U.y.7.7.7aN.F.e.#.#.#.#.#.#.#.#bH.E.5.#.#.#QtQtQtQtQtQtQtQtQtQt",
"QtQtQtQtQtQtQtQtQtQtQtQtbI#lah.f.#.#.#.#.9aQ#I#U.6#j.y.U#l#w#j#saE.#.##X.U#j#9#g#j.7.7.A#kbJ.#.#.#.#.#.#.#.#bK.sbl.f.#.#QtQtQtQtQtQtQtQtQtQt",
"QtQtQtQtQtQtQtQtQtQtQtQt#X.pbA.f.#.#.#.#.Obd.k.x#saBal.U#o.y.Abkbl.#.#bv.E.U#j#i#y.7.7#U.7#y.#.#.#.#.#.#.#.#.fbLa5.f.#.#QtQtQtQtQtQtQtQtQtQt",
"QtQtQtQtQtQtQtQtQtQtQtQtbl.s.N.#.#.#.#.#aP#y.z.w#j.m.7.7.U.waw.y.h.#.#.#.#bM#LbL.z.lax#3.Pbj.#.#.#.#.#.#.#.#.#.BanaL.#.#QtQtQtQtQtQtQtQtQtQt",
"QtQtQtQtQtQtQtQtQtQtQtQta#.jbb.#.#.#.#.#al.O#oav.A.U.7.7ao.abN.k#7.#.#.#.#.f.f#caE#Y.z.j.EaD#Z.#.#.#.#.#.#.#.#bO#Ia3.#.#QtQtQtQtQtQtQtQtQtQt",
"QtQtQtQtQtQtQtQtQtQtQtQtax#9.V.#.#.#.#.##qay.F#o.U.7.7.7bebs.j.K.1.#.#.#.#.#.#.#.f.1#2bObH.p#R.#.#.#.#.#.#.#.#bP#o#6.f.#QtQtQtQtQtQtQtQtQtQt",
"QtQtQtQtQtQtQtQtQtQtQtQtaBal.f.#.#.#.#.##Taf#r.3.DaP#f.F.padaxaa.f.#.#.#QtQtQtQtQtQtQtQt.HavaZ.f.#.#.#.#.#.#.#.f#qata6.#.fQtQtQtQtQtQtQtQtQt",
"QtQtQtQtQtQtQtQtQtQtQtQtbLb#.f.#.#.#.#.#ao.x.s#l#I#l.E.k.y#lbE.#.#.#.#.#QtQtQtQtQtQtQtQt.f#VaP.f.#.#.#.#.#.#.#.#aO#lag.#.fQtQtQtQtQtQtQtQtQt",
"QtQtQtQt.#.#.#.#.#.#.#bQ.pbR.f.#.#.#.#.##J#raHaa.abw.ha9a#aba2.#.#.#.#.#QtQtQtQtQtQtQtQt.#aPaD.f.#.#.#.#.#.#.#.#bS.ybG.#.f.fQtQtQtQtQtQtQtQt",
"QtQtQtQt.#.#.#.#.#.#.#bT.sbU.#.#.#.#.##X#ibD.f.#.#.#.#.#QtQtQtQtQtQtQtQtQtQtQtQtQtQtQtQt.#aS.8.S.#.#.#.#.#.#.#.##Z.E.D.#.f.fQtQtQtQtQtQtQtQt",
"QtQtQtQt.#.#.#.#.#.#.##6#I.Y.#.#.#.#.##e#Ibb.f.#.#.#.#.#QtQtQtQtQtQtQtQtQtQtQtQtQtQtQtQt.#.Oaz.S.#.#.#.#.#.#.#.#.#.o#lar.f.fQtQtQtQtQtQtQtQt",
"QtQtQtQt.#.#.#.#.#.#.#bVbL.M.#.#.#.#.#.0aoa4a9#A#c.#.#.#QtQtQtQtQtQtQtQt.#.#.#.#.#bWbG.bbX.OaD.S.#.#.#.#.#.#.#.#.#bA.za7.f.f.fQtQtQtQtQtQtQt",
"QtQtQtQt.#.#.#.#.#.#.#aSaBa6.#.#.#.#.#ab.j.c.j.l#U#oataU#FbUbU#GbiaYaY#GbibebY#Eaw.P.z.y#U.yaz.#.#.#.#.#.#.#.#.#.##ZaQ.3.M.f.fQtQtQtQtQtQtQt",
"QtQtQtQt.#.#.#.#.#.#.#.ibr.f.#.#.#.#.#.N.t#V#8.Q.w.w#s.A.U.w#s.y.q.k.yav#o.Eac#EaS.E.k#g.z.7.kai.#.#.#.#.#.#.#.#.#.#aJ.zaY.f.f.fQtQtQtQtQtQt",
"QtQtQtQt.#.#.#.#.#.#bQ#o#M.f.#.#.#.#.#.fbSac.saj#I#m.F.U.U#k.A#j.A.x.z#lafao.E.z.w.x.p.p#k.7.mbI.#.#.#.#.#.#.#.#.#.##Zad.o.f.f.fQtQtQtQtQtQt",
"QtQtQtQt.#.#.#.#.#.#.b.jbZ.f.#.#.#.#.#.#.#aW#Q#q.m.xaD.A.7.7.7.7.7.7.7.A#U.z.6.6.U.x.l.U#j#U.ybq.#.#.#.#.#.#.#.#.#.#.#bo.sb..f.fQtQtQtQtQtQt",
"QtQtQtQt.#.#.#.#.#.#bo.Pak.#.#.#.#.#.#.#.#.#.#a2bfbk.7.7.7.7.7.7.7#j.7.7#j.6.z.7#jbkbk.l.0.5aO.X.S.#.#.#.#.#.#.#.#.#.#auav.n.f.fQtQtQtQtQtQt",
"QtQtQtQt.#.#.#.#.#.CanaDQtQtQtQtQtQtQtQt.#.#.#.#.#bM.w.7.7#j.w#k.z.U.7#j#j#j.7.w.F.z#qbu.#.#.#.S.#.#.#.#.#.#.#.#.#.#.#.R.8aD#1.f.fQtQtQtQtQt",
"QtQtQtQt.#.#.#.#.#.n.zbCQtQtQtQtQtQtQtQt.#.#.#.#.#.#br.m#j.7.7.7.7.7.7.U.w.w.iaoavasaL.#QtQtQtQtQtQtQtQtQtQtQtQtQtQtQtQtaZ.pb0.f.fQtQtQtQtQt",
"QtQtQtQt.#.#.#.#.##aadaAQtQtQtQtQtQtQtQt.#.#.#.#.#.##Bboan#i#j#j#k#k.k.q#gav.y.8aT#1.#.#QtQtQtQtQtQtQtQtQtQtQtQtQtQtQtQt#7.saY.f.f.fQtQtQtQt",
"QtQtQtQt.#.#.#.#a6#mb#.#QtQtQtQtQtQtQtQtQtQtQtQtQtQtQtQt.S#ZbDao#g.q#i.z.qatb1.R.#.#.#.#QtQtQtQtQtQtQtQtQtQtQtQtQtQtQtQtaL#V.9.f.f.fQtQtQtQt",
"QtQtQtQt.#.#.#.#ae.y#M.#QtQtQtQtQtQtQtQtQtQtQtQtQtQtQtQt.#.#.f.NbCaFb2#bb3#c.f.#.#.#.#.#QtQtQtQtQtQtQtQtQtQtQtQtQtQtQtQtQt.Wal#t.fQtQtQtQtQt",
"QtQtQtQt.#.#.#.#bj.ra0.#QtQtQtQtQtQtQtQtQtQtQtQtQtQtQtQtQtQtQtQtQtQtQtQtQtQtQtQtQtQtQtQtQtQtQtQtQtQtQtQtQtQtQtQtQtQtQtQtQtaZ#lbmQtQtQtQtQtQt",
"QtQtQtQt.#.#.#.##I.X.f.#QtQtQtQtQtQtQtQtQtQtQtQtQtQtQtQtQtQtQtQtQtQtQtQtQtQtQtQtQtQtQtQtQtQtQtQtQtQtQtQtQtQtQtQtQtQtQtQtQt.I.FbFaiQtQtQtQtQt",
"QtQtQtQt.#.#.#.##b#B.f.#QtQtQtQtQtQtQtQtQtQtQtQtQtQtQtQtQtQtQtQtQtQtQtQtQtQtQtQtQtQtQtQtQtQtQtQtQtQtQtQtQtQtQtQtQtQtQtQtQtQtaZ#S#1QtQtQtQtQt",
"QtQtQtQtQtQtQtQtQtQtQtQtQtQtQtQtQtQtQtQtQtQtQtQtQtQtQtQtQtQtQtQtQtQtQtQtQtQtQtQtQtQtQtQtQtQtQtQtQtQtQtQtQtQtQtQtQtQtQtQtQtQtQt.SQtQtQtQtQtQt",
"QtQtQtQtQtQtQtQtQtQtQtQtQtQtQtQtQtQtQtQtQtQtQtQtQtQtQtQtQtQtQtQtQtQtQtQtQtQtQtQtQtQtQtQtQtQtQtQtQtQtQtQtQtQtQtQtQtQtQtQtQtQtQtQtQtQtQtQtQtQt"};
