/* XPM */
static char *dummy[]={
"70 70 354 2",
"Qt c None",
".8 c None",
"bL c #b1002b",
".c c #be002e",
"#e c #b1002b",
".z c #be002e",
"#l c #b1002b",
"cJ c #be002e",
"cB c #be002e",
"dz c #b1002b",
"bD c #be002e",
"av c #be002e",
"#p c #b1002b",
".r c #be002e",
"aU c #be002e",
".5 c #b1002b",
"cM c #be002e",
"#f c #b1002b",
"bO c #be002e",
"cS c #b1002b",
"as c #be002e",
"c# c #be002e",
"dD c #b1002b",
"#W c #be002e",
".g c #be002e",
"b8 c #be002e",
"ak c #be002e",
"aq c #be002e",
"#D c #b1002b",
"az c #b2002b",
"bE c #be002e",
"bK c #b1002b",
"aI c #be002e",
"#y c #b1002b",
"dr c #b1002b",
"dg c #b1002b",
"#G c #b1002b",
"#I c #b1002b",
"dt c #b1002b",
"ag c #be002e",
"#T c #b1002b",
".J c #be002e",
"ap c #be002e",
"bV c #b1002b",
"bS c #be002e",
"#b c #b1002b",
"d# c #b1002b",
"bJ c #b1002b",
".B c #be002e",
"ca c #be002e",
"bC c #bd002e",
"dw c #b1002b",
"al c #be002e",
"cL c #be002e",
"du c #be002e",
".p c #be002e",
"aS c #be002e",
"bt c #b1002b",
".7 c #b1002b",
"dB c #b1002b",
"#m c #be002e",
"a. c #be002e",
"b5 c #be002e",
"dq c #b1002b",
"dv c #b1002b",
"bP c #be002e",
".h c #be002e",
"dj c #b1002b",
"cP c #be002e",
"dF c #be002e",
"#. c #b1002b",
"cf c #be002e",
"dA c #be002e",
"#t c #be002e",
"#a c #b1002b",
"b3 c #be002e",
"dy c #b1002b",
"bF c #be002e",
"be c #b1002b",
"dn c #b1002b",
"cc c #b3002c",
"bs c #b1002b",
"#X c #be002e",
"aj c #be002e",
"aZ c #be002e",
"bW c #b1002b",
"#H c #be002e",
".n c #be002e",
"cb c #bc002d",
"dh c #b1002b",
"bZ c #be002e",
"#A c #be002e",
"cQ c #be002e",
"aF c #b4002c",
"dx c #b1002b",
"a# c #be002e",
"bN c #be002e",
"cC c #be002e",
"aA c #bb002d",
"aG c #b1002b",
".A c #be002e",
"bI c #b1002b",
"dE c #b1002b",
".D c #be002e",
"aC c #be002e",
"ah c #be002e",
"cv c #b2002b",
"ce c #be002e",
"cE c #be002e",
"#i c #b1002b",
"#d c #b1002b",
"do c #b1002b",
"#o c #b1002b",
".m c #be002e",
"#k c #b1002b",
".6 c #b1002b",
"#B c #b1002b",
"cg c #bb002d",
"cK c #be002e",
"bu c #b1002b",
".X c #be002e",
"#r c #b1002b",
"#E c #b1002b",
"c0 c #be002e",
"a9 c #b1002b",
"#u c #b1002b",
".R c #be002e",
"bX c #b1002b",
"#O c #b1002b",
".I c #be002e",
"#g c #b1002b",
".q c #be002e",
"#x c #b1002b",
"#w c #b1002b",
".U c #be002e",
".d c #be002e",
"b. c #b1002b",
"ck c #b8002d",
"cy c #bc002e",
"bf c #be002e",
"bw c #b1002b",
"#j c #b1002b",
".x c #be002e",
"cX c #bd002e",
"da c #b1002b",
"b9 c #b8002d",
"ao c #bb002d",
"bT c #be002e",
"#q c #b1002b",
"bv c #b1002b",
".b c #be002e",
"a7 c #b9002d",
"#n c #b1002b",
"b2 c #bd002e",
".P c #be002e",
"b# c #b1002b",
"ac c #be002e",
"cq c #be002e",
"bk c #ba002d",
".3 c #be002e",
"bM c #b1002b",
"cz c #bc002e",
".y c #be002e",
"cT c #b2002b",
"ba c #b1002b",
"bj c #b9002d",
"cr c #bc002e",
"#C c #b1002b",
"#K c #b2002b",
".C c #be002e",
"#0 c #b7002c",
"cl c #b9002d",
".v c #be002e",
"c1 c #b1002b",
".Y c #be002e",
"cI c #b8002c",
"#9 c #bc002d",
".2 c #be002e",
"bb c #b1002b",
".N c #be002e",
"b0 c #b5002b",
"cU c #be002e",
"#F c #b1002b",
".w c #be002e",
"cx c #bd002e",
"b7 c #bc002d",
".G c #be002e",
"#J c #b1002b",
"cp c #be002e",
"#S c #b1002b",
"a6 c #b3002b",
"#Z c #b3002c",
".o c #be002e",
"aM c #b2002b",
"aT c #be002e",
"bx c #b1002b",
"#s c #be002e",
"bB c #b6002c",
"cR c #bc002e",
"#1 c #bd002e",
".V c #be002e",
"by c #b1002b",
"bQ c #b5002b",
"#U c #b6002c",
"cj c #b7002c",
".0 c #be002e",
".O c #be002e",
"af c #b4002b",
".Z c #be002e",
"c6 c #b6002c",
"#z c #be002e",
"#N c #b1002b",
".# c #be002e",
"dk c #b1002b",
"aY c #be002e",
"db c #b1002b",
"a0 c #bc002d",
"#2 c #be002e",
"c7 c #b8002d",
"aw c #be002e",
"df c #b1002b",
"#M c #b2002b",
"c4 c #be002e",
"bc c #b1002b",
"bl c #b9002d",
"ad c #bc002e",
"cu c #be002e",
"dC c #b1002b",
".i c #be002e",
"bY c #b9002d",
"aX c #bd002e",
".K c #be002e",
"cA c #bb002d",
"aD c #bc002e",
"au c #bd002e",
".t c #be002e",
"ds c #b1002b",
"cw c #bc002d",
".M c #be002e",
"cW c #b5002c",
"aW c #bd002e",
".u c #be002e",
"#8 c #b3002b",
"aL c #b4002b",
"cF c #b6002c",
"a8 c #b7002c",
"ab c #ba002d",
".H c #be002e",
"## c #b1002b",
"aN c #b4002b",
"cD c #b8002c",
"#4 c #b8002d",
"bh c #ba002d",
".s c #be002e",
"bd c #b1002b",
"a5 c #b2002b",
"bG c #b8002c",
"am c #b9002d",
"b6 c #bc002d",
"cV c #be002e",
"c2 c #b1002b",
".S c #be002e",
"di c #b1002b",
"#7 c #b2002b",
"#6 c #b4002c",
"#5 c #b5002c",
"cO c #b7002c",
"aV c #bd002e",
".k c #be002e",
"dp c #b1002b",
"bz c #bb002d",
".Q c #be002e",
"bn c #b3002c",
"bo c #b6002c",
"bR c #b7002c",
"#Y c #ba002d",
"cY c #bd002e",
".T c #be002e",
"bm c #b7002c",
"bU c #bc002e",
".j c #be002e",
"br c #b1002b",
"bA c #b5002c",
".4 c #be002e",
"a1 c #b3002b",
"bi c #b5002c",
".E c #be002e",
"dm c #b1002b",
"ay c #b3002b",
"b1 c #b3002c",
"cd c #b7002c",
"cm c #b9002d",
"#3 c #ba002d",
".9 c #be002e",
".l c #be002e",
"bq c #b1002b",
"an c #b2002b",
"a4 c #b3002b",
"cZ c #b8002c",
"c8 c #ba002d",
"bg c #bd002e",
".1 c #be002e",
"de c #b1002b",
"ch c #b2002b",
"ae c #b3002c",
"ar c #b5002c",
"cG c #b9002d",
".F c #be002e",
"bp c #b1002b",
"a3 c #b3002b",
"ci c #b3002c",
"d. c #b4002c",
"bH c #b9002d",
"c5 c #ba002d",
"b4 c #bb002d",
".W c #be002e",
"dl c #b1002b",
"dd c #b2002b",
"a2 c #b3002b",
"aO c #b6002c",
"aH c #b7002c",
"cH c #bc002e",
"ax c #bd002e",
".L c #be002e",
"#v c #b1002b",
"aE c #b2002b",
"at c #b3002b",
"c. c #b6002c",
"ai c #b7002c",
"aa c #b8002c",
"cs c #ba002d",
"aQ c #bb002d",
"ct c #bc002e",
"#L c #bd002e",
".e c #be002e",
"#c c #b1002b",
"aK c #b8002d",
"dc c #b9002d",
"cn c #ba002d",
"co c #bb002d",
"aJ c #bc002d",
"aR c #bc002e",
"aP c #bd002e",
".a c #be002e",
"#h c #b1002b",
"#V c #b2002b",
"#R c #b3002b",
"#P c #b8002d",
"c9 c #b9002d",
"aB c #ba002d",
"cN c #bc002d",
"c3 c #bc002e",
"#Q c #bd002e",
".f c #be002e",
"QtQtQtQtQtQtQtQtQtQtQtQtQtQtQtQtQtQtQtQtQtQtQtQtQtQtQtQtQtQtQtQtQtQtQtQtQtQtQtQtQtQtQtQtQtQtQtQtQtQtQtQtQtQtQtQtQtQtQtQtQtQtQtQtQtQtQtQtQtQt",
"QtQtQtQtQtQtQtQtQtQtQtQtQtQtQtQtQtQtQtQtQtQtQtQtQtQtQtQtQtQtQtQtQtQtQtQtQtQtQtQtQtQtQtQtQtQtQtQtQtQtQtQtQtQtQtQtQtQtQtQtQtQtQtQtQtQtQtQtQtQt",
"QtQtQtQtQtQtQtQtQtQtQtQtQtQtQtQtQtQtQtQtQtQtQtQtQtQtQtQtQtQtQtQtQtQtQtQtQtQtQtQtQtQtQtQtQtQtQtQtQtQtQtQtQtQtQtQtQtQtQtQtQtQtQtQtQtQtQtQtQtQt",
"QtQtQtQtQtQtQtQtQtQtQtQtQtQtQtQtQtQtQtQtQtQtQtQtQtQtQtQtQtQtQtQtQtQtQtQtQtQtQtQtQtQtQtQtQtQtQtQtQtQtQtQtQtQtQtQtQtQtQtQtQtQtQtQtQtQtQtQtQtQt",
"QtQtQtQtQtQtQtQtQtQtQtQtQtQtQtQtQtQtQtQtQtQtQtQtQtQtQtQtQtQtQtQtQtQtQtQtQtQtQtQtQtQtQtQtQtQtQtQtQtQtQtQtQtQtQtQtQtQtQtQtQtQtQtQtQtQtQtQtQtQt",
"QtQtQtQtQtQtQtQtQtQtQtQtQtQtQtQtQtQtQtQtQtQtQtQtQtQtQtQtQtQtQtQtQtQtQtQtQtQtQtQtQtQtQtQtQtQtQtQtQtQtQtQtQtQtQtQtQtQtQtQtQtQtQtQtQtQtQtQtQtQt",
"QtQtQtQtQtQtQtQtQtQtQtQtQtQtQtQtQtQtQtQtQtQtQtQtQtQtQtQtQtQtQtQt.#.a.a.a.a.a.a.bQtQtQtQtQtQtQtQtQtQtQtQtQtQtQtQtQtQtQtQtQtQtQtQtQtQtQtQtQtQt",
"QtQtQtQtQtQtQtQtQtQtQtQtQtQtQtQtQtQtQtQtQtQtQtQtQtQtQtQt.c.d.e.a.f.f.f.f.f.f.a.a.e.gQtQtQtQtQtQtQtQtQtQtQtQtQtQtQtQtQtQtQtQtQtQtQtQtQtQtQtQt",
"QtQtQtQtQtQtQtQtQtQtQtQtQtQtQtQtQtQtQtQtQtQtQtQtQtQtQt.h.e.a.a.e.i.j.k.l.m.n.o.e.a.e.pQtQtQtQtQtQtQtQtQtQtQtQtQtQtQtQtQtQtQtQtQtQtQtQtQtQtQt",
"QtQtQtQtQtQtQtQtQtQtQtQtQtQtQtQtQtQtQtQtQtQtQtQtQtQt.b.a.a.e.q.r.s.t.u.v.w.x.y.z.a.a.a.AQtQtQtQtQtQtQtQtQtQtQtQtQtQtQtQtQtQtQtQtQtQtQtQtQtQt",
"QtQtQtQtQtQtQtQtQtQtQtQtQtQtQtQtQtQtQtQtQtQtQtQtQt.B.a.f.CQtQt.D.E.F.f.G.H.I.i.JQt.K.a.a.JQtQtQtQtQtQtQtQtQtQtQtQtQtQtQtQtQtQtQtQtQtQtQtQtQt",
"QtQtQtQtQtQtQtQtQtQtQtQtQtQtQtQtQtQtQtQtQtQtQtQtQt.j.f.L.#.M.k.N.w.e.a.F.u.O.P.k.Q.b.a.a.RQtQtQtQtQtQtQtQtQtQtQtQtQtQtQtQtQtQtQtQtQtQtQtQtQt",
"QtQtQtQtQtQtQtQtQtQtQtQtQtQtQtQtQtQtQtQtQtQtQtQtQt.e.a.S.L.f.f.T.U.V.F.W.L.f.X.d.L.Y.Z.f.0QtQtQtQtQtQtQtQtQtQtQtQtQtQtQtQtQtQtQtQtQtQtQtQtQt",
"QtQtQtQtQtQtQtQtQtQtQtQtQtQtQtQtQtQtQtQtQtQtQtQtQt.f.f.f.f.f.a.1.W.L.a.a.e.f.a.F.F.2.3.f.QQtQtQtQtQtQtQtQtQtQtQtQtQtQtQtQtQtQtQtQtQtQtQtQtQt",
"QtQtQtQtQtQtQtQtQtQtQtQtQtQtQtQtQtQtQtQtQtQtQtQtQt.a.a.l.f.f.f.f.f.a.a.a.1.E.4.W.a.f.E.f.eQtQtQtQtQtQtQtQtQtQtQtQtQtQtQtQtQtQtQtQtQtQtQtQtQt",
"QtQtQtQtQtQtQtQtQtQtQt.5.6.7.8QtQtQtQtQtQtQtQtQtQt.a.a.2.F.f.f.f.f.f.f.f.f.f.f.a.9.a.L.f.eQtQtQtQtQtQtQtQtQt#.###aQtQtQtQtQtQtQtQtQtQtQtQtQt",
"QtQtQtQtQtQtQtQtQtQtQt#b#c#c#d#eQtQtQtQtQtQtQtQt.c.a.f.f.f.f.f.f.f.f.f.f.f.f.f.f.a.e.l.f.aQtQtQtQtQtQtQt#f#g#c#h#iQtQtQtQtQtQtQtQtQtQtQtQtQt",
"QtQtQtQtQtQtQtQtQtQtQt#e#j#h#c#k#lQtQtQtQtQtQtQt#m.f.f.f.f.f.f.f.f.f.f.f.f.f.f.a.f.f.a.f.lQtQtQtQtQtQtQt#n#c#c#o#lQtQtQtQtQtQtQtQtQtQtQtQtQt",
"QtQtQtQtQtQtQtQtQtQtQtQt#p#q#c#c#r.8QtQtQtQtQt#s.f.f.f.f.f.f.f.f.f.f.f.f.f.f.f.f.f.9.W.a.a.a#tQtQtQtQt#u#v#v#w.8.8QtQtQtQtQtQtQtQtQtQtQtQtQt",
"QtQtQtQtQtQtQtQtQtQtQtQtQt.5#x#c#c#x#y.8QtQt.e.a.f.f.f.f.f.f.f.f.f.f.f.f.f.f.f.f.f.e#z.v.e.a.a#AQtQt#B#c#c#C#D.8QtQtQtQtQtQtQtQtQtQtQtQtQtQt",
"QtQtQtQtQtQtQtQtQtQtQtQtQtQt#l#E#c#v#F#GQt.a.a.f.a.a.f.f.f.f.f.f.f.f.f.f.f.f.f.f.f.a.a.a.k.W.a.f#H#I#v#v#J#b.8QtQtQtQtQtQtQtQtQtQtQtQtQtQtQt",
"QtQtQtQtQtQtQtQtQtQtQtQtQtQtQtQt.6#v#v#K#L.a.f.a.a.f.f.f.f.f.f.f.f.f.f.f.f.f.f.f.F.L.f.f.f.a.e.a.f#M#v#N#b.8QtQtQtQtQtQtQtQtQtQtQtQtQtQtQtQt",
"QtQtQtQtQtQtQtQtQtQtQtQtQtQtQtQtQt#O#c#h#P.f.a.f.f.f.f.f.f.f.f.f.f.f.f.f.f.f.f.f.a.f.f.f.f.f.a.L#Q#R#S#TQtQtQtQtQtQtQtQtQtQtQtQtQtQtQtQtQtQt",
"QtQtQtQtQtQtQtQtQtQtQtQtQtQtQtQtQtQt#U#V#Q.e.f.f.f.f.f.f.f.f.f.f.f.f.f.f.f.f.f.f.f.f.f.a.F.W.a.f.a#Q.a#WQtQtQtQtQtQtQtQtQtQtQtQtQtQtQtQtQtQt",
"QtQtQtQtQtQtQtQtQtQtQtQtQtQtQtQtQt#X.f.f.1.f.f.a.L.a.f.f.f.f.f.f.f.f.f.f.f.f.f.f.f.f#L#Y#Z#0#1.1.f.f.f.SQtQtQtQtQtQtQtQtQtQtQtQtQtQtQtQtQtQt",
"QtQtQtQtQtQtQtQtQtQtQtQtQtQtQtQtQt.e.a.9.a.f.a.S#2.f.f.f.f.f.f.f.f.f.f.f.f.f.f.a#L#3#4#5#6#7#8#9.e.f.f.fa.QtQtQtQtQtQtQtQtQtQtQtQtQtQtQtQtQt",
"QtQtQtQtQtQtQtQtQtQtQtQtQtQtQtQta#.a.e.4.f.f.F.f.f.f.e.f.f.f.e.f.f.f.f.f.f.f.f.Laaab.2.Iacadaeaf#2.f.f.f.eQtQtQtQtQtQtQtQtQtQtQtQtQtQtQtQtQt",
"QtQtQtQtQtQtQtQtQtQtQtQtQtQtQtQt.e.a.O.f.f.a.j.f.#agQt#Wah.f.f.f.f.f.f.f.f.f.f.faiajakQt.ralamanao.a.f.f.fapQtQtQtQtQtQtQtQtQtQtQtQtQtQtQtQt",
"QtQtQtQtQtQtQtQtQtQtQtQtQtQtQt#X.a.a.F.f.f.W.f.faqQtQtQtQt.E.f.a.f.f.f.f.f.f.f#QarasQtQtQtQt.Aatau.f.f.f.f.9QtQtQtQtQtQtQtQtQtQtQtQtQtQtQtQt",
"QtQtQtQtQtQtQtQtQtQtQtQtQtQtQt.e.a.1.f.f.f.L.a.eavQtQtQtQtaw.f.f.f.f.f.f.f.f.faxayazQtQtQtQtaAaB.e.f.f.f.f.f.cQtQtQtQtQtQtQtQtQtQtQtQtQtQtQt",
"QtQtQtQtQtQtQtQtQtQtQtQtQtQtQt.f.f.a.f.f.f.a.a.faCQtQtQtak.f.f.W.f.f.f.f.f.f.faDaEaFQtQtQtaGaH.f.f.f.f.f.f.a.AQtQtQtQtQtQtQtQtQtQtQtQtQtQtQt",
"QtQtQtQtQtQtQtQtQtQtQtQtQtQtaI.a.f.f.f.f.f.f.u.f.f.W.v.E.f.f.j.4.f.f.f.f.f.f.f.jaJaKaLaMaNaOaP.f.a.f.f.f.F.a.kQtQtQtQtQtQtQtQtQtQtQtQtQtQtQt",
"QtQtQtQtQtQtQtQtQtQtQtQtQtQt.0.f.a.f.f.f.f.f.L.F.f.f.f.f.f.f.T.W.f.f.f.f.f.f.f.f.f.aaQaR#Q.a.f.f.f.f.f.f.E.f.eQtQtQtQtQtQtQtQtQtQtQtQtQtQtQt",
"QtQtQtQtQtQtQtQtQtQtQtQtQtQt.e.a.F.f.L.f.f.f.a.f.a.a.f.a.f.f.a.a.f.f.f.f.f.f.f.f.f.f.f.f.f.f.f.f.f.f.f.f.a.a.faSQtQtQtQtQtQtQtQtQtQtQtQtQtQt",
"QtQtQtQtQtQtQtQtQtQtQtQtQtQt.a.faT.L.a.a.l.s.9.L.a.e.F.9.e.f.a.f.f.f.f.f.f.f.f.f.f.f.f.f.f.f.f.f.f.f.f.f.f.f.a#AQtQtQtQtQtQtQtQtQtQtQtQtQtQt",
"QtQtQtQtQtQtQtQtQtQtQtQtQtaU.f.f.K.a.a.a.L.L.f.f.f.f.f.f.a.f.f.f.f.f.f.f.f.f.f.f.f.f.a.laVaWaXaY.#.T.f.f.f.f.f.RQtQtQtQtQtQtQtQtQtQtQtQtQtQt",
"QtQtQtQtQtQtQtQtQtQtQtQtQtaZ.f.f.a.a.a.f.a.L.F.L.f.f.f.f.f.f.f.f.f.f.f.f.f.f.f.f.f.La0a1a2a3a4a5a6a7.l.f.f.f.fa8a9b.b#babbbc##bdbeQtQtQtQtQt",
"QtQtQtQtQtQtQtQtQtQtQtQtQtbf.f.f.f.f.f.a.a.f.f.a.K.4.f.f.f.f.f.f.f.f.f.f.f.f.f.fbgbhatbibjbkblbmbnbo.W.f.f.f.f#V#h#h#h#h#cbpbqbrbsQtQtQtQtQt",
"QtQtQtQtQtQtbtbubvbwbxby#Sbz.f.f.f.e.f.f.f.f.a.f.f.f.a.f.f.f.f.f.f.f.f.f.f.f.fbgbAaEbBbCbDQtbEbF.SbG.f.a.f.f.fbHbu#u#obI#abJbKbLQtQtQtQtQtQt",
"QtQtQtQtQtQtbM#c#h#h#h#c#caB.f.f.e#2.f.abNbOQtbP.0.f.a.f.f.f.f.f.f.f.f.f.f.f.SbQ#vbRbSQtQtQtQtQtbTbU.f.a.1.1.f.TQtQtQtQtQtQtQtQtQtQtQtQtQtQt",
"QtQtQtQtQtQtbVbWbu#u#ubX#jbY.f.f.W.a.fbZQtQtQtQtQt.f.f.f.f.f.f.f.f.f.f.f.f.f.Hb0b1b2QtQtQtQtQtQtb3b4.f.f.a.L.f.0QtQtQtQtQtQtQtQtQtQtQtQtQtQt",
"QtQtQtQtQtQtQtQtQtQtQtQtQtb5.f.f.a.f.fQtQtQtQtQtQt#s.f.f.f.f.f.f.f.f.f.f.f.f.ab6anb7b8QtQtQtQtQtb9c..e.f.f.a.abTQtQtQtQtQtQtQtQtQtQtQtQtQtQt",
"QtQtQtQtQtQtQtQtQtQtQtQtQtc#.f.f.f.f.fcaQtQtQtQtQt.e.f.f.f.f.f.f.f.f.f.f.f.f.f.Fboa2cbQtQtQtQtccaEcd.l.f.f.f.aceQtQtQtQtQtQtQtQtQtQtQtQtQtQt",
"QtQtQtQtQtQtQtQtQtQtQtQtQtQt.a.f.f.f.f.iQtQtQtQtcf.f.f.f.f.f.f.f.f.f.f.f.f.f.f.Lcgchcicjckclcmcnco.s.e.f.f.f.f#mQtQtQtQtQtQtQtQtQtQtQtQtQtQt",
"QtQtQtQtQtQtQtQtQtQtQtQtQtQt.1.f.f.f.f.f.f.Kcp.e.f.f.a.f.f.f.f.f.f.f.f.f.f.f.f.f.W.laP#Q#Q.f.f.f.a.a.a.a.a.f.a.zQtQtQtQtQtQtQtQtQtQtQtQtQtQt",
"QtQtQtQtQtQtQtQtQtQtQtQtQtQt.X.f.f.f.f.f.f.f.f.f.a.f.f.f.f.f.f.a.f.f.f.f.f.f.f.f.f.f.f.f.f.f.f.f.f.f.a.f.a.f.eQtQtQtQtQtQtQtQtQtQtQtQtQtQtQt",
"QtQtQtQtQtQtQtQtQtQtQtQtQtQtQt.f.f.f.f.f.a.f.f.L.f.f.f.f.f.f.K.s.e.f.f.f.f.f.f.f.f.f.f.f.f.f.f.f.a.f.f.f.f.acqQtQtQtQtQtQtQtQtQtQtQtQtQtQtQt",
"QtQtQtQtQtQtQtQtQtQtQtQtQtQtQt.e.f.a.a.a.a.a.f.f.f.f.f.f.f.1.f.f.a.j.e.f.f.9crbGcmcscoaJct.f.f.eaw.e.f.f.f.faSQtQtQtQtQtQtQtQtQtQtQtQtQtQtQt",
"QtQtQtQtQtQtQtQtQtQtQtQtQtQtQt.3.f.f.a.f.a.a.f.f.f.f.f.a.f.f.f.a.f.f.F.f.fcucvchcwcxcyczcAaP.f.f.1.f.f.f.f.aQtQtQtQtQtQtQtQtQtQtQtQtQtQtQtQt",
"QtQtQtQtQtQtQtQtQtQtQtQtQtQtQtas.a.a.W.f.f.a.f.f.f.f.F.T.f.uakcBcC.f.f.f.f.WcDa2ajakQt.ral.saP.f.f.f.f.f.acEQtQtQtQtQtQtQtQtQtQtQtQtQtQtQtQt",
"QtQtQtQtQtQtQtQtQtQtQtQtQtQtQtQtcp.f.f.a.e.W.f.F.l.f.t.a.fagQtQtQt.l.f.a.f.fcocFasQtQtQtQt.AcGcH.e.f.a.f.eQtQtQtQtQtQtQtQtQtQtQtQtQtQtQtQtQt",
"QtQtQtQtQtQtQtQtQtQtQtQtQtQtQtQtbE.a.f.L.a.L.f.l.S.a.T.f.1QtQtQtQt.3.f.L.f.faRcIcJQtQtQtQtaZcG#L.e.e.f.a.RQtQtQtQtQtQtQtQtQtQtQtQtQtQtQtQtQt",
"QtQtQtQtQtQtQtQtQtQtQtQtQtQtQtQtQtcK.a.f.f.a.f.f.F.a.W.f.f.zQtQtQt.t.f.Q.f.faPcAcLQtQtQtcMcxct.f.a.e.a.aQtQtQtQtQtQtQtQtQtQtQtQtQtQtQtQtQtQt",
"QtQtQtQtQtQtQtQtQtQtQtQtQtQtQtQtQtQt.acN.f.a.f.f.f.f.f.L.f.XQtQtQt.f.f.o.f.f.acOaw.mcPcQcRaR.f.f.L.f.faIQtQtQtQtQtQtQtQtQtQtQtQtQtQtQtQtQtQt",
"QtQtQtQtQtQtQtQtQtQtQtQtQtQtQtQtQtcScT#hcN.1.L.f.f.f.fcU.f.f.Q.0.f.fcV.j.f.f.acWcXcucYcZcs.f.f.9.f.ac0QtQtQtQtQtQtQtQtQtQtQtQtQtQtQtQtQtQtQt",
"QtQtQtQtQtQtQtQtQtQtQtQtQtQtQtQt#Gc1#cc2c3.a.S.W.f.f.a.l.T.f.f.f.f.tc4.e.f.f.ec5c6c7c8ct.e.f.Wc9#Rd.d#QtQtQtQtQtQtQtQtQtQtQtQtQtQtQtQtQtQtQt",
"QtQtQtQtQtQtQtQtQtQtQtQtQtQtQtQtda#vdb#Ice.f.a.e.f.f.f.f.f.W.E.s.0.4.e.f.a.f.f.e.e.a.a.a.f.e.fdcdddedfdgQtQtQtQtQtQtQtQtQtQtQtQtQtQtQtQtQtQt",
"QtQtQtQtQtQtQtQtQtQtQtQtQtQtQtdhbpdibV.8Qt#A.a.a.f.a.f.f.f.f.a.f.f.f.f.f.f.f.f.f.f.f.a.l.L.f.ac4djdkdldmdn.8QtQtQtQtQtQtQtQtQtQtQtQtQtQtQtQt",
"QtQtQtQtQtQtQtQtQtQtQtQtQtQtdodpdpdq.8QtQtQt#X.e.a.f.a.a.f.f.f.f.f.f.f.f.f.f.f.f.f.f.E.a.a.fcqQtQtdr#dbpbqbW.8QtQtQtQtQtQtQtQtQtQtQtQtQtQtQt",
"QtQtQtQtQtQtQtQtQtQtQtQtQtbMds#Edt.8QtQtQtQtQt.g.#.f.f.f.a.F.L.a.e.a.f.f.L.W.a.L.e.f.a.a.aduQtQtQtQtQtdvbqdlc1dw.8QtQtQtQtQtQtQtQtQtQtQtQtQt",
"QtQtQtQtQtQtQtQtQtQtQtQtQtdxdydz.8QtQtQtQtQtQtQtQtdA.a.f.a.f.f.f.F.H#zaw.S.L.a.f.a.a.e.xQtQtQtQtQtQtQtQtdBdb#vdCbJQtQtQtQtQtQtQtQtQtQtQtQtQt",
"QtQtQtQtQtQtQtQtQtQtQtQtQtQtQtQtQtQtQtQtQtQtQtQtQtQtQt.pcU.e.f.a.f.a.a.a.a.a.f.a.4#AQtQtQtQtQtQtQtQtQtQt.8dDdE#nbVQtQtQtQtQtQtQtQtQtQtQtQtQt",
"QtQtQtQtQtQtQtQtQtQtQtQtQtQtQtQtQtQtQtQtQtQtQtQtQtQtQtQtQtQt.J.A.bc4.l.scqcEdFQtQtQtQtQtQtQtQtQtQtQtQtQtQtQtQtQtQtQtQtQtQtQtQtQtQtQtQtQtQtQt",
"QtQtQtQtQtQtQtQtQtQtQtQtQtQtQtQtQtQtQtQtQtQtQtQtQtQtQtQtQtQtQtQtQtQtQtQtQtQtQtQtQtQtQtQtQtQtQtQtQtQtQtQtQtQtQtQtQtQtQtQtQtQtQtQtQtQtQtQtQtQt",
"QtQtQtQtQtQtQtQtQtQtQtQtQtQtQtQtQtQtQtQtQtQtQtQtQtQtQtQtQtQtQtQtQtQtQtQtQtQtQtQtQtQtQtQtQtQtQtQtQtQtQtQtQtQtQtQtQtQtQtQtQtQtQtQtQtQtQtQtQtQt",
"QtQtQtQtQtQtQtQtQtQtQtQtQtQtQtQtQtQtQtQtQtQtQtQtQtQtQtQtQtQtQtQtQtQtQtQtQtQtQtQtQtQtQtQtQtQtQtQtQtQtQtQtQtQtQtQtQtQtQtQtQtQtQtQtQtQtQtQtQtQt",
"QtQtQtQtQtQtQtQtQtQtQtQtQtQtQtQtQtQtQtQtQtQtQtQtQtQtQtQtQtQtQtQtQtQtQtQtQtQtQtQtQtQtQtQtQtQtQtQtQtQtQtQtQtQtQtQtQtQtQtQtQtQtQtQtQtQtQtQtQtQt",
"QtQtQtQtQtQtQtQtQtQtQtQtQtQtQtQtQtQtQtQtQtQtQtQtQtQtQtQtQtQtQtQtQtQtQtQtQtQtQtQtQtQtQtQtQtQtQtQtQtQtQtQtQtQtQtQtQtQtQtQtQtQtQtQtQtQtQtQtQtQt",
"QtQtQtQtQtQtQtQtQtQtQtQtQtQtQtQtQtQtQtQtQtQtQtQtQtQtQtQtQtQtQtQtQtQtQtQtQtQtQtQtQtQtQtQtQtQtQtQtQtQtQtQtQtQtQtQtQtQtQtQtQtQtQtQtQtQtQtQtQtQt",
"QtQtQtQtQtQtQtQtQtQtQtQtQtQtQtQtQtQtQtQtQtQtQtQtQtQtQtQtQtQtQtQtQtQtQtQtQtQtQtQtQtQtQtQtQtQtQtQtQtQtQtQtQtQtQtQtQtQtQtQtQtQtQtQtQtQtQtQtQtQt"};
