/* XPM */
static char *dummy[]={
"70 70 375 2",
".# c None",
"dQ c None",
".a c None",
"Qt c None",
"dK c #666666",
".M c #888888",
"bf c #666666",
".T c #888888",
"#K c #888888",
"#c c #888888",
".d c #888888",
"#h c #888888",
"bH c #666666",
"#t c #888888",
"d0 c #888888",
"#a c #888888",
"#W c #888888",
".U c #888888",
".0 c #888888",
"#U c #888888",
"#. c #888888",
"#5 c #888888",
"#B c #888888",
"ds c #666666",
"bC c #666666",
"#3 c #888888",
"dF c #666666",
"bg c #888888",
"aR c #707070",
"dz c #666666",
".h c #888888",
"#r c #888888",
"a2 c #888888",
"co c #666666",
"#R c #888888",
"dl c #666666",
"#F c #888888",
"#f c #888888",
"bu c #666666",
"bI c #888888",
".x c #888888",
"cL c #666666",
"#u c #888888",
"dZ c #666666",
".B c #888888",
"#Q c #888888",
"bB c #666666",
"aM c #747474",
"#l c #888888",
"dx c #666666",
"cB c #666666",
"bb c #888888",
"dW c #666666",
"aG c #888888",
"aY c #888888",
"#n c #888888",
".L c #888888",
".k c #888888",
"cr c #666666",
".r c #888888",
"cZ c #666666",
"#6 c #888888",
"cg c #858585",
"cN c #888888",
".p c #888888",
"bM c #888888",
"dY c #666666",
".t c #888888",
"dC c #666666",
"dp c #666666",
"b1 c #666666",
"#e c #888888",
"dX c #666666",
"a6 c #676767",
".G c #888888",
"df c #666666",
".C c #888888",
"aS c #888888",
"a1 c #888888",
"cv c #666666",
"ah c #888888",
".V c #888888",
"aj c #888888",
".4 c #888888",
"#x c #888888",
"db c #666666",
"#P c #888888",
"c1 c #888888",
"dE c #888888",
"au c #888888",
"bX c #888888",
"dJ c #666666",
".S c #888888",
"aH c #888888",
"c8 c #666666",
".m c #888888",
"#G c #888888",
".6 c #888888",
"bW c #888888",
".W c #888888",
"dM c #666666",
"aX c #888888",
"#g c #888888",
"dS c #666666",
"ck c #888888",
"b4 c #888888",
"bJ c #666666",
"#j c #888888",
".N c #888888",
"#C c #888888",
"cj c #666666",
"#X c #888888",
"dw c #666666",
".3 c #888888",
"#0 c #888888",
"cz c #666666",
"dy c #7f7f7f",
".o c #888888",
"br c #666666",
"#L c #888888",
"cG c #7b7b7b",
"b6 c #666666",
"#V c #888888",
"#v c #888888",
"dg c #666666",
"#I c #888888",
"cd c #888888",
"bZ c #666666",
".Q c #888888",
"dG c #666666",
"a# c #888888",
".v c #888888",
"aU c #888888",
"bQ c #666666",
"ca c #888888",
"a. c #888888",
"bT c #666666",
"cO c #676767",
"bt c #888888",
"ce c #666666",
"ai c #888888",
"cF c #666666",
"aQ c #666666",
"aV c #888888",
"dn c #666666",
"aW c #888888",
"aw c #888888",
".s c #888888",
"a3 c #888888",
"cM c #666666",
"#N c #888888",
"ax c #888888",
"cU c #666666",
".X c #888888",
"c0 c #666666",
"ay c #888888",
"dd c #666666",
"cJ c #757575",
".q c #888888",
"dr c #737373",
"#8 c #888888",
"a0 c #888888",
"av c #888888",
"aT c #888888",
"dO c #666666",
"#7 c #888888",
"#1 c #888888",
"#M c #888888",
"bO c #666666",
".A c #888888",
"cT c #666666",
".K c #888888",
"cW c #666666",
"dc c #666666",
"as c #888888",
"cS c #666666",
"aZ c #888888",
"ba c #7e7e7e",
"#p c #888888",
"cs c #888888",
"cV c #666666",
"#y c #888888",
"cE c #666666",
"d# c #818181",
"#4 c #888888",
"dj c #666666",
"aJ c #888888",
"c3 c #666666",
"at c #888888",
"dN c #666666",
"dU c #888888",
"bk c #727272",
".F c #888888",
"bl c #666666",
"az c #888888",
"ag c #888888",
"dm c #666666",
".H c #888888",
"#2 c #888888",
"## c #888888",
".y c #888888",
"dI c #666666",
".P c #888888",
"cy c #848484",
".w c #888888",
"#d c #888888",
".Z c #888888",
"#J c #888888",
"dD c #666666",
"#T c #888888",
"aN c #868686",
"by c #888888",
"dH c #666666",
".D c #888888",
"#q c #888888",
"cP c #666666",
"c# c #727272",
"aI c #888888",
".1 c #888888",
".O c #888888",
"bv c #666666",
"bp c #838383",
"ak c #888888",
"be c #666666",
".8 c #888888",
"dV c #888888",
"cf c #666666",
"bw c #676767",
"#9 c #888888",
"dt c #666666",
".I c #888888",
"c2 c #666666",
".u c #888888",
".b c #888888",
"#k c #888888",
"bE c #707070",
"b# c #666666",
"#S c #888888",
"c7 c #666666",
".E c #888888",
"#b c #888888",
"#o c #888888",
"bG c #666666",
"ad c #888888",
"bV c #666666",
".9 c #888888",
"#s c #888888",
"bo c #666666",
"af c #888888",
"dk c #666666",
"cQ c #6a6a6a",
"#Z c #888888",
"c. c #666666",
"ab c #888888",
"dv c #666666",
"#O c #888888",
"du c #666666",
"cD c #757575",
"#m c #888888",
"dL c #666666",
"aA c #7f7f7f",
"de c #666666",
"dh c #696969",
"ae c #888888",
"dA c #666666",
"#A c #888888",
"bD c #666666",
"ch c #888888",
"dq c #666666",
"cb c #6b6b6b",
"#z c #888888",
"bm c #666666",
".R c #888888",
"dR c #666666",
"#E c #888888",
"cI c #666666",
"dP c #888888",
"dB c #666666",
"aL c #6b6b6b",
"ar c #888888",
"aP c #676767",
"ci c #696969",
"b5 c #6c6c6c",
"ac c #888888",
"c9 c #666666",
".2 c #888888",
"dT c #666666",
"ct c #676767",
"c6 c #6c6c6c",
"#Y c #888888",
"bA c #666666",
".z c #888888",
"cA c #666666",
".Y c #888888",
".5 c #888888",
"cq c #666666",
"bY c #6d6d6d",
"aa c #888888",
"bL c #666666",
".J c #888888",
"do c #666666",
"al c #7c7c7c",
"#H c #888888",
"cp c #666666",
"b2 c #686868",
"#D c #888888",
"bK c #666666",
"aD c #696969",
"bx c #868686",
"#w c #888888",
"cu c #666666",
"bS c #707070",
"bc c #7b7b7b",
".7 c #888888",
"da c #666666",
"cX c #676767",
"bq c #6a6a6a",
"bF c #828282",
"b3 c #838383",
"aF c #878787",
".e c #888888",
"cH c #666666",
"a5 c #676767",
".g c #888888",
"b. c #666666",
"cK c #696969",
"bN c #737373",
"#i c #888888",
"bn c #666666",
"bz c #676767",
".i c #888888",
"a9 c #666666",
"bR c #848484",
".j c #888888",
"bd c #666666",
"b9 c #868686",
".l c #888888",
"c4 c #666666",
"aC c #676767",
"aK c #6e6e6e",
"di c #878787",
".n c #888888",
"cR c #666666",
"ao c #676767",
"a4 c #686868",
"aB c #696969",
"aO c #767676",
"d. c #7b7b7b",
".c c #888888",
"an c #666666",
"am c #676767",
"bU c #686868",
"ap c #696969",
"b8 c #6a6a6a",
"cx c #6b6b6b",
"a8 c #6c6c6c",
"cl c #6d6d6d",
"c5 c #6e6e6e",
"cc c #717171",
"b0 c #727272",
"a7 c #737373",
"aE c #757575",
"cn c #767676",
"cm c #777777",
"bh c #7b7b7b",
"b7 c #7c7c7c",
"aq c #7d7d7d",
"cw c #7e7e7e",
"bi c #7f7f7f",
"cY c #818181",
"cC c #838383",
"bj c #848484",
"bP c #858585",
"bs c #878787",
".f c #888888",
"QtQtQtQtQtQtQtQtQtQtQtQtQtQtQtQtQtQtQtQtQtQtQtQtQtQtQtQtQtQtQtQtQtQtQtQtQtQtQtQtQtQtQtQtQtQtQtQtQtQtQtQtQtQtQtQtQtQtQtQtQtQtQtQtQtQtQtQtQtQt",
"QtQtQtQtQtQtQtQtQtQtQtQtQtQtQtQtQtQtQtQtQtQtQtQtQtQtQtQtQtQtQtQtQtQtQtQtQtQtQtQtQtQtQtQtQtQtQtQtQtQtQtQtQtQtQtQtQtQtQtQtQtQtQtQtQtQtQtQtQtQt",
"QtQtQtQtQtQtQtQtQtQtQtQtQtQtQtQtQtQtQtQtQtQtQtQtQtQtQtQtQtQtQtQtQtQtQtQtQtQtQtQtQtQtQtQtQtQtQtQtQtQtQtQtQtQtQtQtQtQtQtQtQtQtQtQtQtQtQtQtQtQt",
"QtQtQtQtQtQtQtQtQtQtQtQtQtQtQtQtQtQtQtQtQtQtQtQtQtQtQtQtQtQtQtQtQtQtQtQtQtQtQtQtQtQtQtQtQtQtQtQtQtQtQtQtQtQtQtQtQtQtQtQtQtQtQtQtQtQtQtQtQtQt",
"QtQtQtQtQtQtQtQtQtQtQtQtQtQtQtQtQtQtQtQtQtQtQtQtQtQtQtQtQtQtQtQtQtQtQtQtQtQtQtQtQtQtQtQtQtQtQtQtQtQtQtQtQtQtQtQtQtQtQtQtQtQtQtQtQtQtQtQtQtQt",
"QtQtQtQtQtQtQtQtQtQtQtQtQtQtQtQtQtQtQtQtQtQtQtQtQtQtQtQtQtQtQtQtQtQtQtQtQtQtQtQtQtQtQtQtQtQtQtQtQtQtQtQtQtQtQtQtQtQtQtQtQtQtQtQtQtQtQtQtQtQt",
"QtQtQtQtQtQtQtQtQtQtQtQtQtQtQtQtQtQtQtQtQtQtQtQtQtQtQtQt.#.#.#.#.#.#.a.a.a.a.#.#.#.#.#.#QtQtQtQtQtQtQtQtQtQtQtQtQtQtQtQtQtQtQtQtQtQtQtQtQtQt",
"QtQtQtQtQtQtQtQtQtQtQtQtQtQtQtQtQtQtQtQtQtQtQtQtQtQtQtQt.#.#.#.#.#.#.a.a.a.a.#.#.#.#.#.#QtQtQtQtQtQtQtQtQtQtQtQtQtQtQtQtQtQtQtQtQtQtQtQtQtQt",
"QtQtQtQtQtQtQtQtQtQtQtQtQtQtQtQtQtQtQtQtQtQtQtQtQtQtQtQt.#.#.#.#.#.b.c.b.d.#.#.#.#.#.#.#QtQtQtQtQtQtQtQtQtQtQtQtQtQtQtQtQtQtQtQtQtQtQtQtQtQt",
"QtQtQtQtQtQtQtQtQtQtQtQtQtQtQtQtQtQtQtQtQtQtQtQtQtQtQtQt.#.#.#.#.#.e.f.g.h.#.#.#.#.#.#.#QtQtQtQtQtQtQtQtQtQtQtQtQtQtQtQtQtQtQtQtQtQtQtQtQtQt",
"QtQtQtQtQtQtQtQtQtQtQtQtQtQtQtQtQtQtQtQtQtQtQtQtQtQtQtQt.#.#.#.#.#.i.f.j.k.#.#.#.#.#.#.#QtQtQtQtQtQtQtQt.a.a.a.#.#.#.#.#QtQtQtQtQtQtQtQtQtQt",
"QtQtQtQtQtQtQtQtQtQtQtQtQtQtQtQtQtQtQtQtQtQtQtQtQtQtQtQt.#.#.#.#.#.l.f.l.m.#.#.#.#.#.#.#.#.#.#.#.#.#.a.a.a.a.a.#.#.#.#.#QtQtQtQtQtQtQtQtQtQt",
"QtQtQtQtQtQtQtQtQtQtQtQtQtQtQtQtQtQtQtQtQtQtQtQtQtQtQtQt.#.#.#.#.#.n.f.n.o.#.#.#.#.#.#.#.#.#.#.#.#.#.#.p.q.r.#.#.#.#.#.#QtQtQtQtQtQtQtQtQtQt",
"QtQtQtQtQtQtQtQtQtQtQtQt.#.#.#.#.#.#.#.a.a.a.a.a.a.#.#.#.#.#.#.#.#.c.f.n.s.#.#.#.#.#.#.#.#.#.#.#.#.t.u.g.j.v.#.#.#.#.#.#QtQtQtQtQtQtQtQtQtQt",
"QtQtQtQtQtQtQtQtQtQtQtQt.#.#.#.#.#.#.#.a.a.a.a.a.a.a.#.#.#.#.#.#.#.c.c.n.w.#.#.#.#.#.#.#.#.#.#.x.y.e.l.z.A.B.#.#.#.#.#.#QtQtQtQtQtQtQtQtQtQt",
"QtQtQtQtQtQtQtQtQtQtQtQt.#.#.#.#.#.#.C.D.E.F.G.a.#.#.#.#.#.#.#.#.#.c.c.j.H.#.#.#.#.#.#.#.#.#.#.I.l.J.K.L.M.#.#.#.#.#.#.#QtQtQtQtQtQtQtQtQtQt",
"QtQtQtQtQtQtQtQtQtQtQtQt.#.#.#.#.#.#.N.z.g.j.g.O.B.#.#.#.#.#.#.#.#.n.f.j.P.#.#.#.#.#.#.#.#.#.Q.i.R.S.T.#QtQtQtQtQtQtQtQtQtQtQtQtQtQtQtQtQtQt",
"QtQtQtQtQtQtQtQtQtQtQtQt.#.#.#.#.#.#.U.V.W.X.Y.l.Z.0.#.#.#.#.#.#.#.j.f.l.1.a.#.#.#.#.#.#.#.#.2.g.3.a.#.#QtQtQtQtQtQtQtQtQtQtQtQtQtQtQtQtQtQt",
"QtQtQtQtQtQtQtQtQtQtQtQtQtQtQtQtQtQtQtQt.#.#.4.5.g.6.#.#.#.#.#.#.#.7.f.c.8.M.#.#.#.#.#.#.#.6.i.9#..#.#.#QtQtQtQtQtQtQtQtQtQtQtQtQtQtQtQtQtQt",
"QtQtQtQtQtQtQtQtQtQtQtQtQtQtQtQtQtQtQtQt.#.#.###.l.X.a.#.#.#.#.##a.2.f.c#b#c.#.#.#.#.#.#.##d.j.X.a.#.#.#QtQtQtQtQtQtQtQtQtQtQtQtQtQtQtQtQtQt",
"QtQtQtQtQtQtQtQtQtQtQtQtQtQtQtQtQtQtQtQt.#.#.##e.i#d.a.#.#.#.##f.Z.i.f.f.7#g#h.#.#.#.#.#.##b#i#j.#.#.#.#QtQtQtQtQtQtQtQtQtQtQtQtQtQtQtQtQtQt",
"QtQtQtQtQtQtQtQtQtQtQtQtQtQtQtQtQtQtQtQt.#.#.#.#.g#k#h.#.#.##l#m.f.f.f.f.c.J.y#n.#.#.#.#.##o#i#g.#.#.#.#QtQtQtQtQtQtQtQtQtQtQtQtQtQtQtQtQtQt",
"QtQtQtQtQtQtQtQtQtQtQtQtQtQtQtQtQtQtQtQt.#.#.#.#.e#b#h.#.#.M#p.f.f.f.f.f.c.c.l#q#r.#.#.#.##s#i.W.#.#.#.#QtQtQtQtQtQtQtQtQtQtQtQtQtQtQtQtQtQt",
"QtQtQtQtQtQtQtQtQtQtQtQtQtQtQtQtQtQtQtQt.#.#.#.#.e#b#t.#.##u.J.f.f.f.f.f.c.l.c.g#v.#.#.#.#.9#w#x.#.#.#.#QtQtQtQtQtQtQtQtQtQtQtQtQtQtQtQtQtQt",
"QtQtQtQtQtQtQtQtQtQtQtQtQtQtQtQtQtQtQtQt.#.#.#.#.e#o#h.#.##e.n.f.f.f.f.f.f.l.n.l#y.#.#.#.##z.J.p.#.#.#.#QtQtQtQtQtQtQtQtQtQtQtQtQtQtQtQtQtQt",
"QtQtQtQtQtQtQtQtQtQtQtQtQtQtQtQtQtQtQtQt.#.#.#.#.e#A#B.#.##C.c.f.f.c.c.f.f.l.l.c.w#t.#.#.##D#E#F.#.#.#.#QtQtQtQtQtQtQtQtQtQtQtQtQtQtQtQtQtQt",
"QtQtQtQtQtQtQtQtQtQtQtQtQtQtQtQtQtQtQtQt.#.#.#.#.J.J.k.#.##G.c.f.f.c.f.f.f#H.i.n.y.#.#.##I.i#J#K.#.#.#.#QtQtQtQtQtQtQtQtQtQtQtQtQtQtQtQtQtQt",
"QtQtQtQtQtQtQtQtQtQtQtQtQtQtQtQtQtQtQtQt.#.#.#.##s.i#L.#.#.C.i.f.f.c.c.f.n.z.n.n#M.M.#.#.b#i#v.a.#.#.#.#QtQtQtQtQtQtQtQtQtQtQtQtQtQtQtQtQtQt",
"QtQtQtQtQtQtQtQtQtQtQtQtQtQtQtQtQtQtQtQt.#.#.#.##N.l#O.B.##a#m.f.f.f.f.n#i.j.f.Y#P.#.#.##w.2#Q.#.#.#.#.#QtQtQtQtQtQtQtQtQtQtQtQtQtQtQtQtQtQt",
"QtQtQtQtQtQtQtQtQtQtQtQtQtQtQtQtQtQtQtQt.#.#.#.##R#S.i#T#U.##V.j.f.f.c.n.n.c#H.s#W.##X.z.g.q.#.#.#.#.#.#QtQtQtQtQtQtQtQtQtQtQtQtQtQtQtQtQtQt",
"QtQtQtQtQtQtQtQtQtQtQtQtQtQtQtQtQtQtQtQt.#.#.#.#.##l#Y.g#v.#.0.O.l.n.f.c.j#Z#0.0.##1.e#i#2#3.#.#.#.#.#.#QtQtQtQtQtQtQtQtQtQtQtQtQtQtQtQtQtQt",
"QtQtQtQtQtQtQtQtQtQtQtQtQtQtQtQtQtQtQtQt.#.#.#.#.#.##I.7#i#4#5#6#N.y.O.1#7#8.F#9#z.i.5a.#W.#.#.#.#.#.#.#QtQtQtQtQtQtQtQtQtQtQtQtQtQtQtQtQtQt",
"QtQtQtQtQtQtQtQtQtQtQtQtQtQtQtQtQtQtQtQt.#.#.#.#.#.#.da#aa.iaa#Yabac.5ad#w.f.c.j#iae.N.#QtQtQtQtQtQtQtQtQtQtQtQtQtQtQtQtQtQtQtQtQtQtQtQtQtQt",
"QtQtQtQtQtQtQtQtQtQtQtQtQtQtQtQtQtQtQtQt.#.#.#.#.#.a.a.a.S#s.c.f.c.l#E#mac.j.caf#g#F.#.#.a.#.#.#.#.#.#.a.a.a.a.#.#.#.#.#QtQtQtQtQtQtQtQtQtQt",
"QtQtQtQtQtQtQtQtQtQtQtQtQtQtQtQtQtQtQtQt.#.#.#.#.#.#.a.a.#ag.l.g.j.Y#i.f.n.7.l.j.P.0.#.#.a.a.a.a.a.a.a.a.a.a.a.#.#.#.#.#QtQtQtQtQtQtQtQtQtQt",
"QtQtQtQtQtQtQtQtQtQtQtQt.#.#.#.a.a.a.a.a.#.#.#.#.#.#.#ah#S#i.5.e.7.J.f.f.f.j.j.c.n#Yai#K.#.#.#.#.#.##F#7.9.W.#.#.#.#.#.#QtQtQtQtQtQtQtQtQtQt",
"QtQtQtQtQtQtQtQtQtQtQtQt.#.#.#.a.a.a.a.a.#.#.#.#.#ajak#w.jalamanaoamapaq.faras#w.c.c.c#D#m.watat#d#m#H.l#w.3.#.#.#.#.#.#QtQtQtQtQtQtQtQtQtQt",
"QtQtQtQtQtQtQtQtQtQtQtQt.#.#au.X#8avawaxay.qaz.uar.g.j.YaAaBanaCaDapanamaEaFaGaHaI.7.c.g.e#i.i.j.l#iaa.I#C#a.#.#.#.#.#.#QtQtQtQtQtQtQtQtQtQt",
"QtQtQtQtQtQtQtQtQtQtQtQt.#.#.1.i.j.l.j.i.i#i.i#i.7#z.AaJaKanaLaMaNaOanananamaPaQaRaS#H.eaTaUaVaWa.aXaY#hQtQtQtQtQtQtQtQtQtQtQtQtQtQtQtQtQtQt",
"QtQtQtQtQtQtQtQtQtQtQtQt.#.#.6.AasaZa0#1.A.Kax.3a1a2a3.ia4a5a6.#.Ea7anana8apa9a9b.b#ba#i#zbb.#.#.#.#.#.#QtQtQtQtQtQtQtQtQtQtQtQtQtQtQtQtQtQt",
"QtQtQtQtQtQtQtQtQtQtQtQtQtQtQtQtQtQtQtQt.#.#.#.#.#.#.Ybcbdbebfbg#Abhananbibjbkblbmbnbobp.i#1.#.#.#.#.#.#QtQtQtQtQtQtQtQtQtQtQtQtQtQtQtQtQtQt",
"QtQtQtQtQtQtQtQtQtQtQtQtQtQtQtQtQtQtQtQt.#.#.#.#.##v.ibqbnbr.##u.2bsananaq.fbt.#bubvbnbwbx#H#x.#.#.#.#.#QtQtQtQtQtQtQtQtQtQtQtQtQtQtQtQtQtQt",
"QtQtQtQtQtQtQtQtQtQtQtQtQtQtQtQtQtQtQtQt.#.#.#.#.#by#ibzbAbB.##u.z.fananaE.faW.#.#bCbDbnbE#iby#h.#.#.#.#QtQtQtQtQtQtQtQtQtQtQtQtQtQtQtQtQtQt",
"QtQtQtQtQtQtQtQtQtQtQtQtQtQtQtQtQtQtQtQt.#.#.#.#.#abbFbdbGbH.#bI.Y.famana8bs.X.#.#.#bJbKbLbc.5bM.#.#.#.#QtQtQtQtQtQtQtQtQtQtQtQtQtQtQtQtQtQt",
"QtQtQtQtQtQtQtQtQtQtQtQtQtQtQtQtQtQtQtQt.#.#.#.#.#.5bNbdbO.#.#.x.z.fapanapbP.A.#.#.#.#bQa9aDbR#y.#.#.#.#.a.#.#.#.#.#.#.#QtQtQtQtQtQtQtQtQtQt",
"QtQtQtQtQtQtQtQtQtQtQtQtQtQtQtQtQtQtQtQt.#.#.#.#.#.ebSbnbT.#.##Rac.fbUanambiaI.#.#.#.#.#bVa9bN.7bW.#.#.#.a.a.a.a.a.#.#.#QtQtQtQtQtQtQtQtQtQt",
"QtQtQtQtQtQtQtQtQtQtQtQtQtQtQtQtQtQtQtQt.#.#.#.#bX.ibYb.bZ.#.##Baf.fbUamanb0.z#t.#.#.#.#b1bnb2b3.g.8b4#h.a.a.a.a.a.#.#.#QtQtQtQtQtQtQtQtQtQt",
"QtQtQtQtQtQtQtQtQtQtQtQtQtQtQtQtQtQtQtQt.#.#.#.##M.jb5b.b6.#.#.#agb7amb8amb8b9#x.#.#.#.#.#c.a9c#.z#i.g#A.P.qca.x.#.#.#.#QtQtQtQtQtQtQtQtQtQt",
"QtQtQtQtQtQtQtQtQtQtQtQtQtQtQtQtQtQtQtQt.#.#.#.#at.jcbb.b6.#.#.##Lb0amccbUambicd.#.#.#.#.#cebdcfcg.qch.e.j.l#i#0.#.#.#.#QtQtQtQtQtQtQtQtQtQt",
"QtQtQtQtQtQtQtQtQtQtQtQtQtQtQtQtQtQtQtQt.#.#.#.#.I.lcib.cj.#.#.#ckclamcma8ancnaT.#.#.#.#.#cocpcqcr.##faXaVcsa0#l.#.#.#.#QtQtQtQtQtQtQtQtQtQt",
"QtQtQtQtQtQtQtQtQtQtQtQtQtQtQtQtQtQtQtQt.#.#.#ah#waactcucv.#.#.##Xb8amcwaEancxcy.#.#.#.#.#.#bGa9cz.#.#.#QtQtQtQtQtQtQtQtQtQtQtQtQtQtQtQtQtQt",
"QtQtQtQtQtQtQtQtQtQtQtQtQtQtQtQtQtQtQtQt.#.#.#.w.l#4cAcqcB.#.#.##CambUcCcCapamcD.#.#.#.#.#.#cEa9cF.#.#.#QtQtQtQtQtQtQtQtQtQtQtQtQtQtQtQtQtQt",
"QtQtQtQtQtQtQtQtQtQtQtQtQtQtQtQtQtQtQtQt.#.#.#.z#icGcHcIco.#.#.#cJamcl.f.faEamcKcL.#.#.#.#.#bObncM.#.#.#QtQtQtQtQtQtQtQtQtQtQtQtQtQtQtQtQtQt",
"QtQtQtQtQtQtQtQtQtQtQtQt.#.#.#.#.#.#.#cN#2#Z#D.l.bcObdcP.#.#.#.#cQamcn.f.fbPcxcRcSbf.#.#.#.#cTbncU.#.#.#QtQtQtQtQtQtQtQtQtQtQtQtQtQtQtQtQtQt",
"QtQtQtQtQtQtQtQtQtQtQtQt.#.#.#.#.#.#.#aX.5.7#Yaz#ncVbdcW.#.#.#b1cXamcw.f.f.fcYaCcAcZ.#.#.#.#cWb.c0.#.#.#QtQtQtQtQtQtQtQtQtQtQtQtQtQtQtQtQtQt",
"QtQtQtQtQtQtQtQtQtQtQtQt.#.#.#.#.#.#.#.UbXc1#Q#c.#c2a9br.#.#.#c3c4c5bs.f.f.f.fc6a9bO.#.#.#.#cWb.c0.#.#.#QtQtQtQtQtQtQtQtQtQtQtQtQtQtQtQtQtQt",
"QtQtQtQtQtQtQtQtQtQtQtQtQtQtQtQtQtQtQtQt.#.#.#.#.#c7cuc8.#.#.#c9a9d..f.f.f.f.fd#dacqdb.#.#.#dca9dd.#.#.#QtQtQtQtQtQtQtQtQtQtQtQtQtQtQtQtQtQt",
"QtQtQtQtQtQtQtQtQtQtQtQtQtQtQtQtQtQtQtQt.#.#.#.#.#decpdf.#.#dga9dhdi.f.f.f.f.f.qdja9dkdl.#.#dmbddn.#.#.#QtQtQtQtQtQtQtQtQtQtQtQtQtQtQtQtQtQt",
"QtQtQtQtQtQtQtQtQtQtQtQtQtQtQtQtQtQtQtQt.#.#.#.#.#bDdodp.#.#dqcHdr.c.f.f.f.f.ca#dsdtbncHducjdva9dw.#.#.#QtQtQtQtQtQtQtQtQtQtQtQtQtQtQtQtQtQt",
"QtQtQtQtQtQtQtQtQtQtQtQtQtQtQtQtQtQtQtQt.#.#.#.#.#dqdob1.#dxdacIdy.l.f.f.f.f.cck.#dzbOdAb.bnbddBcB.#.#.#QtQtQtQtQtQtQtQtQtQtQtQtQtQtQtQtQtQt",
"QtQtQtQtQtQtQtQtQtQtQtQtQtQtQtQtQtQtQtQt.#.#.#.#.#bmcpdC.#bQbddDdE.e.f.f.f.f.j.p.#.#.#dFdGdHdIdJdK.#.#.#QtQtQtQtQtQtQtQtQtQtQtQtQtQtQtQtQtQt",
"QtQtQtQtQtQtQtQtQtQtQtQtQtQtQtQtQtQtQtQt.#.#.#.#.#dLcHdM.#dNbddO#ldP.f.f.f.far#3.#.#.#.#.#dKdKdQ.#.#.#.#QtQtQtQtQtQtQtQtQtQtQtQtQtQtQtQtQtQt",
"QtQtQtQtQtQtQtQtQtQtQtQtQtQtQtQtQtQtQtQt.#.#.#.#.#cEbdbAdRb.cHdS#aat.n.f.f.ca3.a.#.#.#.#QtQtQtQtQtQtQtQtQtQtQtQtQtQtQtQtQtQtQtQtQtQtQtQtQtQt",
"QtQtQtQtQtQtQtQtQtQtQtQtQtQtQtQtQtQtQtQt.#.#.#.#.#dldAcpcpdTdcds.##udU.2.7dV#u.a.#.#.#.#QtQtQtQtQtQtQtQtQtQtQtQtQtQtQtQtQtQtQtQtQtQtQtQtQtQt",
"QtQtQtQtQtQtQtQtQtQtQtQtQtQtQtQtQtQtQtQt.#.#.#.#dWdXdYdZ.#.#.#.a.0#fbId0QtQtQtQtQtQtQtQtQtQtQtQtQtQtQtQtQtQtQtQtQtQtQtQtQtQtQtQtQtQtQtQtQtQt",
"QtQtQtQtQtQtQtQtQtQtQtQtQtQtQtQtQtQtQtQtQtQtQtQtQtQtQtQtQtQtQtQtQtQtQtQtQtQtQtQtQtQtQtQtQtQtQtQtQtQtQtQtQtQtQtQtQtQtQtQtQtQtQtQtQtQtQtQtQtQt",
"QtQtQtQtQtQtQtQtQtQtQtQtQtQtQtQtQtQtQtQtQtQtQtQtQtQtQtQtQtQtQtQtQtQtQtQtQtQtQtQtQtQtQtQtQtQtQtQtQtQtQtQtQtQtQtQtQtQtQtQtQtQtQtQtQtQtQtQtQtQt",
"QtQtQtQtQtQtQtQtQtQtQtQtQtQtQtQtQtQtQtQtQtQtQtQtQtQtQtQtQtQtQtQtQtQtQtQtQtQtQtQtQtQtQtQtQtQtQtQtQtQtQtQtQtQtQtQtQtQtQtQtQtQtQtQtQtQtQtQtQtQt",
"QtQtQtQtQtQtQtQtQtQtQtQtQtQtQtQtQtQtQtQtQtQtQtQtQtQtQtQtQtQtQtQtQtQtQtQtQtQtQtQtQtQtQtQtQtQtQtQtQtQtQtQtQtQtQtQtQtQtQtQtQtQtQtQtQtQtQtQtQtQt",
"QtQtQtQtQtQtQtQtQtQtQtQtQtQtQtQtQtQtQtQtQtQtQtQtQtQtQtQtQtQtQtQtQtQtQtQtQtQtQtQtQtQtQtQtQtQtQtQtQtQtQtQtQtQtQtQtQtQtQtQtQtQtQtQtQtQtQtQtQtQt"};
