/* XPM */
static char *dummy[]={
"70 70 229 2",
".# c None",
".j c None",
"Qt c None",
"#9 c #00c5bb",
"#O c #00c5bb",
".Q c #00c5bb",
"#A c #00c5bb",
".y c #00c5bb",
"## c #00c5bb",
"#n c #00c5bb",
"#H c #00c5bb",
"#3 c #00c5bb",
"#0 c #00c5bb",
"#u c #00c5bb",
"aB c #00c5bb",
"#T c #00c5bb",
".P c #00c5bb",
"bl c #00c5bb",
"a9 c #00c5bb",
".0 c #00c5bb",
"au c #00c5bb",
".1 c #00c5bb",
"aV c #00c5bb",
"#k c #00c5bb",
"bn c #00c5bb",
"#t c #00c5bb",
"ak c #00c5bb",
"#q c #00c5bb",
"ag c #00c5bb",
"a4 c #00c5bb",
".K c #00c5bb",
"#c c #00c5bb",
"bp c #00c5bb",
"bk c #00c5bb",
".R c #00c5bb",
"ai c #00c5bb",
".D c #00c5bb",
"#Y c #00c5bb",
"#8 c #00c5bb",
"bF c #00c5bb",
"bs c #00c5bb",
"bH c #00c5bb",
"aK c #00c5bb",
"#2 c #00c5bb",
"bE c #00c5bb",
"aC c #00c5bb",
"#m c #00c5bb",
"aa c #00c5bb",
"#B c #00c5bb",
".i c #00c5bb",
".r c #00c5bb",
"aE c #00c5bb",
".Z c #00c5bb",
"bC c #00c5bb",
"aS c #00c5bb",
"#7 c #00c5bb",
"a8 c #00c5bb",
".k c #00c5bb",
"#x c #00c5bb",
"bi c #00c5bb",
"#X c #00c5bb",
"#b c #00c5bb",
"av c #00c5bb",
"aH c #00c5bb",
".S c #00c5bb",
"bA c #00c5bb",
".T c #00c5bb",
"aQ c #00c5bb",
"#K c #00c5bb",
"bo c #00c5bb",
"#v c #00c5bb",
"at c #00c5bb",
"#4 c #00c5bb",
"#6 c #00c5bb",
"#L c #00c5bb",
"aI c #00c5bb",
"aJ c #00c5bb",
"b. c #00c5bb",
".a c #00c5bb",
"bG c #00c5bb",
"#y c #00c5bb",
"#. c #00c5bb",
".Y c #00c5bb",
"a7 c #00c5bb",
"bh c #00c5bb",
"ah c #00c5bb",
"bI c #00c5bb",
".C c #00c5bb",
"a. c #00c5bb",
"bv c #00c5bb",
"#s c #00c5bb",
"aj c #00c5bb",
".O c #00c5bb",
"#N c #00c5bb",
"#w c #00c5bb",
"bu c #00c5bb",
"#G c #00c5bb",
"#z c #00c5bb",
"aO c #00c5bb",
"bt c #00c5bb",
"aN c #00c5bb",
"aW c #00c5bb",
"aU c #00c5bb",
"be c #00c5bb",
".J c #00c5bb",
"bD c #00c5bb",
"bf c #00c5bb",
"#5 c #00c5bb",
"aL c #00c5bb",
".z c #00c5bb",
"bg c #00c5bb",
".U c #00c5bb",
"bB c #00c5bb",
"bd c #00c5bb",
"#C c #00c5bb",
".4 c #00c5bb",
".9 c #00c5bb",
"a1 c #00c5bb",
"as c #00c5bb",
".N c #00c5bb",
"#Z c #00c5bb",
"bc c #00c5bb",
"aX c #00c5bb",
"bz c #00c5bb",
"al c #00c5bb",
"bq c #00c5bb",
"aP c #00c5bb",
"#M c #00c5bb",
"ba c #00c5bb",
"aT c #00c5bb",
"bb c #00c5bb",
"#S c #00c5bb",
"aF c #00c5bb",
"ao c #00c5bb",
"bj c #00c5bb",
".h c #00c5bb",
"ap c #00c5bb",
".E c #00c5bb",
"am c #00c5bb",
"an c #00c5bb",
"ab c #00c5bb",
".2 c #00c5bb",
"aM c #00c5bb",
".x c #00c5bb",
"#1 c #00c5bb",
"ad c #00c5bb",
".s c #00c5bb",
"br c #00c5bb",
"#R c #00c5bb",
"#a c #00c5bb",
"bw c #00c5bb",
"a2 c #00c5bb",
"a0 c #00c5bb",
"#W c #00c5bb",
".W c #00c5bb",
"aY c #00c5bb",
"#P c #00c5bb",
"aG c #00c5bb",
".l c #00c5bb",
"ar c #00c5bb",
"aZ c #00c5bb",
"bx c #00c5bb",
"bm c #00c5bb",
"aq c #00c5bb",
"a3 c #00c5bb",
".M c #00c5bb",
"by c #00c5bb",
"b# c #00c5bb",
"af c #00c5bb",
"#F c #00c5bb",
"a6 c #00c5bb",
"aw c #00c5bb",
".3 c #00c5bb",
".g c #00c5bb",
"az c #00c5bb",
"a# c #00c5bb",
"aA c #00c5bb",
".f c #00c5bb",
"aR c #00c5bb",
".8 c #00c5bb",
".q c #00c5bb",
"#h c #00c5bb",
"#d c #00c5bb",
".p c #00c5bb",
"ay c #00c5bb",
".e c #00c5bb",
"ax c #00c5bb",
"#p c #00c5bb",
".d c #00c5bb",
"#j c #00c5bb",
"#g c #00c5bb",
".b c #00c5bb",
"#f c #00c5bb",
"#i c #00c5bb",
"a5 c #00c5bb",
".o c #00c5bb",
".m c #00c5bb",
"#J c #00c5bb",
".F c #00c5bb",
"#E c #00c5bb",
"ac c #00c5bb",
".7 c #00c5bb",
"#V c #00c5bb",
"#o c #00c5bb",
"#r c #00c5bb",
".c c #00c5bb",
".X c #00c5bb",
"#D c #00c5bb",
"#e c #00c5bb",
"#I c #00c5bb",
"ae c #00c5bb",
"aD c #00c5bb",
"#l c #00c5bb",
"#U c #00c5bb",
".6 c #00c5bb",
".V c #00c5bb",
".w c #00c5bb",
"#Q c #00c5bb",
".G c #00c5bb",
".5 c #00c5bb",
".L c #00c5bb",
".n c #00c5bb",
".I c #00c5bb",
".B c #00c5bb",
".H c #00c5bb",
".v c #00c5bb",
".A c #00c5bb",
".t c #00c5bb",
".u c #00c5bb",
"QtQtQtQtQtQtQtQtQtQtQtQtQtQtQtQtQtQtQtQtQtQtQtQtQtQtQtQtQtQtQtQtQtQtQtQtQtQtQtQtQtQtQtQtQtQtQtQtQtQtQtQtQtQtQtQtQtQtQtQtQtQtQtQtQtQtQtQtQtQt",
"QtQtQtQtQtQtQtQtQtQtQtQtQtQtQtQtQtQtQtQtQtQtQtQtQtQtQtQtQtQtQtQtQtQtQtQtQtQtQtQtQtQtQtQtQtQtQtQtQtQtQtQtQtQtQtQtQtQtQtQtQtQtQtQtQtQtQtQtQtQt",
"QtQtQtQtQtQtQtQtQtQtQtQtQtQtQtQtQtQtQtQtQtQtQtQtQtQtQtQtQtQtQtQtQtQtQtQtQtQtQtQtQtQtQtQtQtQtQtQtQtQtQtQtQtQtQtQtQtQtQtQtQtQtQtQtQtQtQtQtQtQt",
"QtQtQtQtQtQtQtQtQtQtQtQtQtQtQtQtQtQtQtQtQtQtQtQtQtQtQtQtQtQtQtQtQtQtQtQtQtQtQtQtQtQtQtQtQtQtQtQtQtQtQtQtQtQtQtQtQtQtQtQtQtQtQtQtQtQtQtQtQtQt",
"QtQtQtQtQtQtQtQtQtQtQtQtQtQtQtQtQtQtQtQtQtQtQtQtQtQtQtQtQtQtQtQtQtQtQtQtQtQtQtQtQtQtQtQtQtQtQtQtQtQtQtQtQtQtQtQtQtQtQtQtQtQtQtQtQtQtQtQtQtQt",
"QtQtQtQtQtQtQtQtQtQtQtQtQtQtQtQtQtQtQtQtQtQtQtQtQtQtQtQtQtQtQtQtQtQtQtQtQtQtQtQtQtQtQtQtQtQtQtQtQtQtQtQtQtQtQtQtQtQtQtQtQtQtQtQtQtQtQtQtQtQt",
"QtQtQtQtQtQtQtQtQtQtQtQtQtQtQtQtQtQtQtQtQtQtQtQtQtQtQtQtQtQtQtQtQtQtQtQtQtQtQtQtQtQtQtQtQtQtQtQtQtQtQtQtQtQtQtQtQtQtQtQtQtQtQtQtQtQtQtQtQtQt",
"QtQtQtQtQtQtQtQtQtQtQtQtQtQtQtQtQtQtQtQtQtQtQtQtQtQtQtQtQtQtQtQtQtQtQtQtQtQtQtQtQtQtQtQtQtQtQtQtQtQtQtQtQtQtQtQtQtQtQtQtQtQtQtQtQtQtQtQtQtQt",
"QtQtQtQtQtQtQtQtQtQtQtQt.#.#.#.a.b.c.d.e.f.g.h.i.j.#.#.#QtQtQtQtQtQtQtQt.#.#.#.#.#.#.#.j.#.#.k.l.m.n.o.p.q.r.#.#.#.#.#.#QtQtQtQtQtQtQtQtQtQt",
"QtQtQtQtQtQtQtQtQtQtQtQt.#.#.#.s.t.u.u.u.t.t.v.w.x.y.#.#QtQtQtQtQtQtQtQt.#.#.#.#.#.#.j.j.#.z.w.u.u.u.t.A.B.C.#.#.#.#.#.#QtQtQtQtQtQtQtQtQtQt",
"QtQtQtQtQtQtQtQtQtQtQtQt.#.#.#.D.E.F.G.H.I.v.A.t.H.J.#.#QtQtQtQtQtQtQtQt.#.#.#.#.#.#.#.K.f.H.G.v.t.L.M.N.O.P.#.#.#.#.#.#QtQtQtQtQtQtQtQtQtQt",
"QtQtQtQtQtQtQtQtQtQtQtQt.#.#.#.#.#.Q.R.S.T.U.o.A.u.V.R.#QtQtQtQtQtQtQtQt.#.#.#.#.#.#.#.W.v.X.Y.k.Z.0.j.#QtQtQtQtQtQtQtQtQtQtQtQtQtQtQtQtQtQt",
"QtQtQtQtQtQtQtQtQtQtQtQt.#.#.#.#.#.#.j.j.#.j.1.2.A.u.3.#.#.#.4.c.G.I.B.L.5.6.7.8.9.y.#.c.n#..#.#.#.#.#.#QtQtQtQtQtQtQtQtQtQtQtQtQtQtQtQtQtQt",
"QtQtQtQtQtQtQtQtQtQtQtQtQtQtQtQtQtQtQtQt.#.#.####a.u.v#b#c#d.H.I#e#f#g#h#i#e.L.I#j#k.#.F#l#m.#.#.#.#.#.#QtQtQtQtQtQtQtQtQtQtQtQtQtQtQtQtQtQt",
"QtQtQtQtQtQtQtQtQtQtQtQtQtQtQtQtQtQtQtQt.#.#.#.##n#o#p#q.9.H#r#s#t.Q.Q.Q#u.K#v#w#x.#.##y#z#n.#.#.#.#.#.#QtQtQtQtQtQtQtQtQtQtQtQtQtQtQtQtQtQt",
"QtQtQtQtQtQtQtQtQtQtQtQtQtQtQtQtQtQtQtQt.#.#.#.#.#.0#A.##B.h#C.7.I.n.n.5.6#D#E.o#F#G#H.#QtQtQtQtQtQtQtQtQtQtQtQtQtQtQtQtQtQtQtQtQtQtQtQtQtQt",
"QtQtQtQtQtQtQtQtQtQtQtQtQtQtQtQtQtQtQtQt.#.#.#.#.#.j.j.j#v#I.t.A.5#J.q.o#D.w.G.B.t.I#K.#QtQtQtQtQtQtQtQtQtQtQtQtQtQtQtQtQtQtQtQtQtQtQtQtQtQt",
"QtQtQtQtQtQtQtQtQtQtQtQtQtQtQtQtQtQtQtQt.#.#.#.#.#.#.r#j.t.u.u.v.B.v.t.u.u.t.t.u.t.B#L#M#N#O.#.#.#.#.#.#QtQtQtQtQtQtQtQtQtQtQtQtQtQtQtQtQtQt",
"QtQtQtQtQtQtQtQtQtQtQtQtQtQtQtQtQtQtQtQt.#.#.#.#.#.##P.u.u#Q#R#S.c.u.u.u.u.u.t.u.u.t.I.H.8#T.#.#.#.#.#.#QtQtQtQtQtQtQtQtQtQtQtQtQtQtQtQtQtQt",
"QtQtQtQtQtQtQtQtQtQtQtQtQtQtQtQtQtQtQtQt.#.#.#.#.#.##y#U.v.n.V.A.u.u.u.u.u.u.u.u.u.t#V#W#X.j.#.#.#.#.#.#QtQtQtQtQtQtQtQtQtQtQtQtQtQtQtQtQtQt",
"QtQtQtQtQtQtQtQtQtQtQtQtQtQtQtQtQtQtQtQt.#.#.#.#.#.#.j#Y#Z.8.c.t.u.u.u.t.t.A.L.c.M#.#0.jQtQtQtQtQtQtQtQtQtQtQtQtQtQtQtQtQtQtQtQtQtQtQtQtQtQt",
"QtQtQtQtQtQtQtQtQtQtQtQtQtQtQtQtQtQtQtQt.#.#.#.#.T#1#2.#.##3#t#4#5#w#6#K#7#8#3#9.j.#.#.#QtQtQtQtQtQtQtQtQtQtQtQtQtQtQtQtQtQtQtQtQtQtQtQtQtQt",
"QtQtQtQtQtQtQtQtQtQtQtQtQtQtQtQtQtQtQtQt.#.#.#a..G.Aa#.P.#.#.#.#.#.#.#.j.#.#aaabac.G.B.H.Iad.#.#.#.#.#.#QtQtQtQtQtQtQtQtQtQtQtQtQtQtQtQtQtQt",
"QtQtQtQtQtQtQtQtQtQtQtQtQtQtQtQtQtQtQtQt.#.#.#.e.B.w.B.L.I.n#Q#Q#Uae#Iaeae#Q.I.v.B.6.V.B.A.Iafag.#.#.#.#QtQtQtQtQtQtQtQtQtQtQtQtQtQtQtQtQtQt",
"QtQtQtQtQtQtQtQtQtQtQtQtQtQtQtQtQtQtQtQt.#.#.#.w#Q.H.u.u.u.u.A.v.H.v.v.v.v.v.I.5.w.5.v.B.G.t.vah.#.#.#.#QtQtQtQtQtQtQtQtQtQtQtQtQtQtQtQtQtQt",
"QtQtQtQtQtQtQtQtQtQtQtQt.#.#.#.#.#.#.#.j.#.##w.v#Q.t.t.u.t.A.v.v.A.v.I.I.I.n.n.L.I.n.6.6.I.H.Fai.#.#.#.#QtQtQtQtQtQtQtQtQtQtQtQtQtQtQtQtQtQt",
"QtQtQtQtQtQtQtQtQtQtQtQt.#.#.#.#.#.#.#.j.#.#aj.A.v.H.H.H.v.A.A.A.v.H.B.H.v.A.A.v.H.H.B.5.m.Nak.#.#.#.#.#QtQtQtQtQtQtQtQtQtQtQtQtQtQtQtQtQtQt",
"QtQtQtQtQtQtQtQtQtQtQtQt.#.#.#.#.#.#.#.j.#.#.yalamamamamanababaoapaq.3.ga#a#a#a#ar.xasatau.j.#.#.#.#.#.#QtQtQtQtQtQtQtQtQtQtQtQtQtQtQtQtQtQt",
"QtQtQtQtQtQtQtQtQtQtQtQtQtQtQtQtQtQtQtQtQtQtQtQtQtQtQtQtQtQtQtQtQtQtQtQt.#.#.#.#.#.#.#.j.#.#a.av.j.#.#.#QtQtQtQtQtQtQtQtQtQtQtQtQtQtQtQtQtQt",
"QtQtQtQtQtQtQtQtQtQtQtQt.#.#.#.#.#.#.#.j.#.#aw.F#g.pax.d#p.d#g#g#g#day#p#haza#aAaA.fafaw#j.6.BaAaB.#.#.#QtQtQtQtQtQtQtQtQtQtQtQtQtQtQtQtQtQt",
"QtQtQtQtQtQtQtQtQtQtQtQt.#.#.#.#.#.#.#.j.#.#.n.A.t.t.t.t.t.A.A.A.A.v.v.v.v.H.I.B.H.H.I.H.A.A.t.5aC.#.#.#QtQtQtQtQtQtQtQtQtQtQtQtQtQtQtQtQtQt",
"QtQtQtQtQtQtQtQtQtQtQtQt.#.#.#.#.#.#.#.j.#.#ao.n.H.I.I.H.v.v.A.v.v.H.H.v.A.A.v.B.n.n.n.A.t.t.uae#q.#.#.#QtQtQtQtQtQtQtQtQtQtQtQtQtQtQtQtQtQt",
"QtQtQtQtQtQtQtQtQtQtQtQt.#.#.#.#.#.#.#.j.#.##p.t#Q#Vac#r#eae.6.6aD.V.I.B.H.A.t.t.t.t.t.t.A.I.qaE.j.#.#.#QtQtQtQtQtQtQtQtQtQtQtQtQtQtQtQtQtQt",
"QtQtQtQtQtQtQtQtQtQtQtQt.#.#.#.#.#.#.#.j.#.#aF.L.L.L.5.L.L.n.I.I.L.G.6.c.F#g.e#p#p.q#daG.Nat#3.#.#.#.#.#QtQtQtQtQtQtQtQtQtQtQtQtQtQtQtQtQtQt",
"QtQtQtQtQtQtQtQtQtQtQtQt.#.#.#.#.#.#.#.j.#.##0aH#L#LaIaI#LaIaJaI#6avaK#k#u.y#9#9#9#9#9.jQtQtQtQtQtQtQtQtQtQtQtQtQtQtQtQtQtQtQtQtQtQtQtQtQtQt",
"QtQtQtQtQtQtQtQtQtQtQtQtQtQtQtQtQtQtQtQtQtQtQtQtQtQtQtQtQtQtQtQtQtQtQtQt.#.#.#.#.#.DaLaM#p#Q.6#L.#.#.#.#QtQtQtQtQtQtQtQtQtQtQtQtQtQtQtQtQtQt",
"QtQtQtQtQtQtQtQtQtQtQtQt.#.#.#.#.#.#.#.j.#.#aN.X.6.v.I.I.n.n.n.I.B.H.H.H.v.v.t.t.t.t.u.u.u.u.taO.#.#.#.#QtQtQtQtQtQtQtQtQtQtQtQtQtQtQtQtQtQt",
"QtQtQtQtQtQtQtQtQtQtQtQt.#.#.#.#.#.#.#.j.#.#aP.B.t.v#e#V#D.6#Q.n.H.H.A.t.t.t.t.A.A.A.A.v.t.u.v#B.#.#.#.#QtQtQtQtQtQtQtQtQtQtQtQtQtQtQtQtQtQt",
"QtQtQtQtQtQtQtQtQtQtQtQt.#.#.#.#.#.#.#.j.#.#aQ.I.A.A.v.B.B.A.A.A.v.I.n#l#r#J#paR.f.7.5.H.t.t.p.#.#.#.#.#QtQtQtQtQtQtQtQtQtQtQtQtQtQtQtQtQtQt",
"QtQtQtQtQtQtQtQtQtQtQtQt.#.#.#.#.#.#.#.j.#.##O#o.B.A.A.A.v.t.u.t.t.t.t.A.A.A.v.v.v.A.I.B.A.VaS.#.#.#.#.#QtQtQtQtQtQtQtQtQtQtQtQtQtQtQtQtQtQt",
"QtQtQtQtQtQtQtQtQtQtQtQtQtQtQtQtQtQtQtQt.#.#.##8.CaTaf.b#r.L.A.A.t.A.A.v.A.v.A.A.t.A.H.H#laU.j.#.#.#.#.#QtQtQtQtQtQtQtQtQtQtQtQtQtQtQtQtQtQt",
"QtQtQtQtQtQtQtQtQtQtQtQtQtQtQtQtQtQtQtQt.#.#.#.#.#.##9##aVaK#4aWaX.saY#PaG.l.laraZaZa0.N#B#9.#.#.#.#.#.#QtQtQtQtQtQtQtQtQtQtQtQtQtQtQtQtQtQt",
"QtQtQtQtQtQtQtQtQtQtQtQtQtQtQtQtQtQtQtQt.#.#.#.#.Ka1a2aG.WaN.y.#.#.#.#.#QtQtQtQtQtQtQtQtQtQtQtQtQtQtQtQtQtQtQtQtQtQtQtQtQtQtQtQtQtQtQtQtQtQt",
"QtQtQtQtQtQtQtQtQtQtQtQtQtQtQtQtQtQtQtQt.#.#.#.##s.5.B.I.I.B.n#Q.6.6#IaDaD#I#EaxaRaza3#WaG.la#aU#O.#.#.#QtQtQtQtQtQtQtQtQtQtQtQtQtQtQtQtQtQt",
"QtQtQtQtQtQtQtQtQtQtQtQtQtQtQtQtQtQtQtQt.#.#.#.#a4ar.ba5.L.t.t.V#l#U#D#I#I.6.G.n.B.H.v.B.H.t.t#d#3.#.#.#QtQtQtQtQtQtQtQtQtQtQtQtQtQtQtQtQtQt",
"QtQtQtQtQtQtQtQtQtQtQtQtQtQtQtQtQtQtQtQt.#.#.#.#aT.A.u.u.u.u.B.3aYa3a6aw.gaAaAax#g.F.X#Q.H.A#Qa7.j.#.#.#QtQtQtQtQtQtQtQtQtQtQtQtQtQtQtQtQtQt",
"QtQtQtQtQtQtQtQtQtQtQtQtQtQtQtQtQtQtQtQt.#.#.#.#.2.H.u.u.t.A.v.B.B.I.B.B.H.v.B.B.I.I.n.G.Fana8#O.#.#.#.#QtQtQtQtQtQtQtQtQtQtQtQtQtQtQtQtQtQt",
"QtQtQtQtQtQtQtQtQtQtQtQtQtQtQtQtQtQtQtQt.#.#.#.#a9b.ana6afb#.Ebabbbcbdbd.U.UbebfbgaUbhbia9.j.#.#.#.#.#.#QtQtQtQtQtQtQtQtQtQtQtQtQtQtQtQtQtQt",
"QtQtQtQtQtQtQtQtQtQtQtQtQtQtQtQtQtQtQtQtQtQtQtQtQtQtQtQtQtQtQtQtQtQtQtQt.#.#.#.#.#.#.Tao#Rbjbk.#.#.#.#.#QtQtQtQtQtQtQtQtQtQtQtQtQtQtQtQtQtQt",
"QtQtQtQtQtQtQtQtQtQtQtQtQtQtQtQtQtQtQtQt.#.#.#.#.##1#Q.L.L.5.L.5.5.L.n.I.I.5.L.L.5.L.B.H.H.Aaybl.#.#.#.#QtQtQtQtQtQtQtQtQtQtQtQtQtQtQtQtQtQt",
"QtQtQtQtQtQtQtQtQtQtQtQtQtQtQtQtQtQtQtQt.#.#.##baY.6.t.t.t.t.t.t.t.A.A.v.I.5.5.G.5.L#Dbm.m.v#Dbn.#.#.#.#QtQtQtQtQtQtQtQtQtQtQtQtQtQtQtQtQtQt",
"QtQtQtQtQtQtQtQtQtQtQtQtQtQtQtQtQtQtQtQt.#.#.#.M.t.u.A.n#U.7.qaR#J.w.I.v.A.A.t.A.A.t.A.B.v.n#1.#.#.#.#.#QtQtQtQtQtQtQtQtQtQtQtQtQtQtQtQtQtQt",
"QtQtQtQtQtQtQtQtQtQtQtQtQtQtQtQtQtQtQtQt.#.#.#bo#r#Q.L.n.H.H.H.H.H.H.B.v.v.H.A.A.t.v#Q.m.sb.a9.#.#.#.#.#QtQtQtQtQtQtQtQtQtQtQtQtQtQtQtQtQtQt",
"QtQtQtQtQtQtQtQtQtQtQtQtQtQtQtQtQtQtQtQt.#.#.#.#.PbpaQ#GbqaZaA.fa#braman.2.2.2aM.E#Nbs#HQtQtQtQtQtQtQtQtQtQtQtQtQtQtQtQtQtQtQtQtQtQtQtQtQtQt",
"QtQtQtQtQtQtQtQtQtQtQtQtQtQtQtQtQtQtQtQtQtQtQtQtQtQtQtQtQtQtQtQtQtQtQtQtQtQtQtQtQtQtQtQtQtQtQtQtQtQtQtQtQtQtQtQtQtQtQtQtQtQtQtQtQtQtQtQtQtQt",
"QtQtQtQtQtQtQtQtQtQtQtQtQtQtQtQtQtQtQtQt.#.#.#.#.#.#.R#Zaq#dae.L.H.A.A.A.A.A.v.H.I.G.V.c#pazbabtai.#.#.#QtQtQtQtQtQtQtQtQtQtQtQtQtQtQtQtQtQt",
"QtQtQtQtQtQtQtQtQtQtQtQt.#.#.#.#.#.#.#.j.#.#.m.t.v.I.t.u.u.u.u.u.u.t.t.t.t.t.t.u.u.u.u.u.u.u.u.v.LaA#m.#QtQtQtQtQtQtQtQtQtQtQtQtQtQtQtQtQtQt",
"QtQtQtQtQtQtQtQtQtQtQtQt.#.#.#.#.#.#.j.j.##..A.t.H.v.t.AaDac.f.x.Nbt#Nbububv#N.4aTbw#F.b#l.H.t.t.t.tbx.#QtQtQtQtQtQtQtQtQtQtQtQtQtQtQtQtQtQt",
"QtQtQtQtQtQtQtQtQtQtQtQt.#.#.#.#.#.j.j.jbn.V.t.A.H#Uaz#6.Q.#ajby#p.XaD#e#e#D#e#e#e#VaRaaa9#L#M.8#Q.B.N.#QtQtQtQtQtQtQtQtQtQtQtQtQtQtQtQtQtQt",
"QtQtQtQtQtQtQtQtQtQtQtQt.#.#.#.#.#.j.j.ja7.v.A.cbzaa##.#a5.t.u.u.u.u.u.u.u.u.u.u.u.u.uap.#.#.##A#2bA#H.#QtQtQtQtQtQtQtQtQtQtQtQtQtQtQtQtQtQt",
"QtQtQtQtQtQtQtQtQtQtQtQt.#.#.#.#.#.j.j.ja4#MbBbp.#.#.#.#.5.t.v.w#o#g#d.3.e.d#j#j#f#J.ebCQtQtQtQtQtQtQtQtQtQtQtQtQtQtQtQtQtQtQtQtQtQtQtQtQtQt",
"QtQtQtQtQtQtQtQtQtQtQtQtQtQtQtQtQtQtQtQt.#.#.#.#.#.j.j.j#ybDbEbl#O.j.#.#QtQtQtQtQtQtQtQtQtQtQtQtQtQtQtQtQtQtQtQtQtQtQtQtQtQtQtQtQtQtQtQtQtQt",
"QtQtQtQtQtQtQtQtQtQtQtQtQtQtQtQtQtQtQtQt.#.#.#.#.#aN.VaRbF.#.##RaD.G.I.I.5.L.5.G.6#Q#Ubd#g#D.B.wbG.j.#.#QtQtQtQtQtQtQtQtQtQtQtQtQtQtQtQtQtQt",
"QtQtQtQtQtQtQtQtQtQtQtQtQtQtQtQtQtQtQtQt.#.#.#.##4.w.u.u.3.y#4.H.u.u.u.t.LaD.6.n.v.t.t#R.F#l.v.u.A#a#A.#QtQtQtQtQtQtQtQtQtQtQtQtQtQtQtQtQtQt",
"QtQtQtQtQtQtQtQtQtQtQtQtQtQtQtQtQtQtQtQt.#.#.#.#.B.u.t.A#JbnbA.w.t.t.u.u.A.H.H.v.B.waqbp.Rbsbi.6.u.tbj.#QtQtQtQtQtQtQtQtQtQtQtQtQtQtQtQtQtQt",
"QtQtQtQtQtQtQtQtQtQtQtQtQtQtQtQtQtQtQtQt.#.#.#.B.u.H.faP#b.##9bHb.bI#5aMaG.l.2.N.YbH.y.#.#.#.##c.c.Abw.#QtQtQtQtQtQtQtQtQtQtQtQtQtQtQtQtQtQt",
"QtQtQtQtQtQtQtQtQtQtQtQtQtQtQtQtQtQtQtQt.#.#.##g.F#K.Q.jQtQtQtQtQtQtQtQtQtQtQtQtQtQtQtQt.#.#.#.#aga7.0.#QtQtQtQtQtQtQtQtQtQtQtQtQtQtQtQtQtQt",
"QtQtQtQtQtQtQtQtQtQtQtQtQtQtQtQtQtQtQtQt.#.#.#.Q#9.j.#.#QtQtQtQtQtQtQtQtQtQtQtQtQtQtQtQtQtQtQtQtQtQtQtQtQtQtQtQtQtQtQtQtQtQtQtQtQtQtQtQtQtQt",
"QtQtQtQtQtQtQtQtQtQtQtQtQtQtQtQtQtQtQtQtQtQtQtQtQtQtQtQtQtQtQtQtQtQtQtQtQtQtQtQtQtQtQtQtQtQtQtQtQtQtQtQtQtQtQtQtQtQtQtQtQtQtQtQtQtQtQtQtQtQt",
"QtQtQtQtQtQtQtQtQtQtQtQtQtQtQtQtQtQtQtQtQtQtQtQtQtQtQtQtQtQtQtQtQtQtQtQtQtQtQtQtQtQtQtQtQtQtQtQtQtQtQtQtQtQtQtQtQtQtQtQtQtQtQtQtQtQtQtQtQtQt"};
