/* XPM */
static char *dummy[]={
"70 70 244 2",
".a c None",
".e c None",
"Qt c None",
"#d c #ffc200",
".# c #ffffff",
"aG c #ffc200",
"aF c #ffc200",
"#Y c #ffc200",
"#e c #ffc200",
".N c #ffc200",
"ah c #ffc200",
"#b c #ffc200",
".9 c #ffc200",
".y c #ffc200",
"#a c #ffc200",
".s c #ffc200",
"#G c #ffc200",
"#u c #ffc200",
"a9 c #ffc200",
"#B c #ffc200",
"ad c #ffc200",
".p c #ffc200",
".k c #ffc200",
"bt c #ffc200",
".E c #ffc200",
"aY c #ffc200",
"a8 c #ffc200",
".g c #ffc200",
"#j c #ffc200",
".u c #ffc200",
"bd c #ffc200",
"be c #ffc200",
"#w c #ffc200",
"aO c #ffc200",
"aI c #ffc200",
"#E c #ffc200",
".V c #ffc200",
".v c #ffc200",
"bP c #ffc200",
"ar c #ffc200",
".M c #ffc200",
"aP c #ffc200",
"bk c #ffc200",
"bD c #ffc200",
".d c #ffc200",
"a4 c #ffc200",
"#t c #ffc200",
"bx c #ffc200",
"bT c #ffc200",
"bi c #ffc200",
".C c #ffc200",
"#2 c #ffc200",
"bs c #ffc200",
".Y c #ffc200",
"#V c #ffc200",
"ac c #ffc200",
".2 c #ffc200",
".T c #ffc200",
".h c #ffc200",
"bO c #ffc200",
"b. c #ffc200",
"#v c #ffc200",
"#p c #ffc200",
"bh c #ffc200",
"bL c #ffc200",
"#Z c #ffc200",
".6 c #ffc200",
"bf c #ffc200",
"bJ c #ffc200",
"an c #ffc200",
"#h c #ffc200",
"#o c #ffc200",
"am c #ffc200",
".f c #ffc200",
"br c #ffc200",
"bu c #ffc200",
"by c #ffc200",
"a7 c #ffc200",
".F c #ffc200",
"aZ c #ffc200",
"bW c #ffc200",
"#A c #ffc200",
".1 c #ffc200",
"bB c #ffc200",
"bX c #ffc200",
".Z c #ffc200",
"av c #ffc200",
"bc c #ffc200",
"#1 c #ffc200",
"az c #ffc200",
"aJ c #ffc200",
".H c #ffc200",
"bv c #ffc200",
"aL c #ffc200",
"#L c #ffc200",
"bq c #ffc200",
"aT c #ffc200",
"bl c #ffc200",
".t c #ffc200",
"aU c #ffc200",
"bE c #ffc200",
"#y c #ffc200",
"bF c #ffc200",
"#k c #ffc200",
"b# c #ffc200",
"#q c #ffc200",
"bI c #ffc200",
"aX c #ffc200",
"bH c #ffc200",
"bK c #ffc200",
"a2 c #ffc200",
"bU c #ffc200",
"#O c #ffc200",
".R c #ffc200",
".O c #ffc200",
"bV c #ffc200",
"aR c #ffc200",
"#H c #ffc200",
".Q c #ffc200",
"aS c #ffc200",
"aQ c #ffc200",
"#l c #ffc200",
".4 c #ffc200",
"bm c #ffc200",
"#X c #ffc200",
"bg c #ffc200",
"bS c #ffc200",
"a. c #ffc200",
".o c #ffc200",
"bN c #ffc200",
"#m c #ffc200",
"bp c #ffc200",
"bA c #ffc200",
"#7 c #ffc200",
"#P c #ffc200",
"a# c #ffc200",
"bC c #ffc200",
"bo c #ffc200",
".I c #ffc200",
"#N c #ffc200",
".W c #ffc200",
"bz c #ffc200",
"a6 c #ffc200",
".r c #ffc200",
"ay c #ffc200",
"aM c #ffc200",
"aV c #ffc200",
"#M c #ffc200",
"bM c #ffc200",
".c c #ffc200",
"aE c #ffc200",
"bG c #ffc200",
".U c #ffc200",
"ba c #ffc200",
"bQ c #ffc200",
"bj c #ffc200",
"#W c #ffc200",
".8 c #ffc200",
"as c #ffc200",
"aH c #ffc200",
"bn c #ffc200",
"ag c #ffc200",
".X c #ffc200",
"#0 c #ffc200",
"#g c #ffc200",
".l c #ffc200",
"bR c #ffc200",
"a5 c #ffc200",
".L c #ffc200",
".i c #ffc200",
"a1 c #ffc200",
"bw c #ffc200",
".D c #ffc200",
"bb c #ffc200",
"#C c #ffc200",
".b c #ffc200",
"#z c #ffc200",
"aN c #ffc200",
"ax c #ffc200",
"aC c #ffc200",
"a3 c #ffc200",
".0 c #ffc200",
"ab c #ffc200",
"af c #ffc200",
"aA c #ffc200",
"#F c #ffc200",
".B c #ffc200",
".z c #ffc200",
"#6 c #ffc200",
"aB c #ffc200",
".j c #ffc200",
"#. c #ffc200",
"aD c #ffc200",
"#c c #ffc200",
"ai c #ffc200",
"#9 c #ffc200",
"## c #ffc200",
"ap c #ffc200",
"aw c #ffc200",
".5 c #ffc200",
"aq c #ffc200",
"aW c #ffc200",
"#r c #ffc200",
"#i c #ffc200",
"#s c #ffc200",
"aa c #ffc200",
"#x c #ffc200",
"aK c #ffc200",
"#Q c #ffc200",
"a0 c #ffc200",
".n c #ffc200",
"#8 c #ffc200",
"#f c #ffc200",
"ak c #ffc200",
".x c #ffc200",
"#D c #ffc200",
".w c #ffc200",
"al c #ffc200",
"au c #ffc200",
"at c #ffc200",
".J c #ffc200",
".q c #ffc200",
".7 c #ffc200",
".m c #ffc200",
".K c #ffc200",
"aj c #ffc200",
"#n c #ffc200",
".G c #ffc200",
".3 c #ffc200",
".A c #ffc200",
".S c #ffc200",
"ao c #ffc200",
"ae c #ffc200",
"#I c #ffc200",
"#K c #ffc200",
"#J c #ffc200",
".P c #ffc200",
"#4 c #ffc200",
"#R c #ffc200",
"#U c #ffc200",
"#3 c #ffc200",
"#S c #ffc200",
"#T c #ffc200",
"#5 c #ffc200",
"QtQtQtQtQtQtQtQtQtQtQtQtQtQtQtQtQtQtQtQtQtQtQtQtQtQtQtQtQtQtQtQtQtQtQtQtQtQtQtQtQtQtQtQtQtQtQtQtQtQtQtQtQtQtQtQtQtQtQtQtQtQtQtQtQtQtQtQtQt.#",
"QtQtQtQtQtQtQtQtQtQtQtQtQtQtQtQtQtQtQtQtQtQtQtQtQtQtQtQtQtQtQtQtQtQtQtQtQtQtQtQtQtQtQtQtQtQtQtQtQtQtQtQtQtQtQtQtQtQtQtQtQtQtQtQtQtQtQtQtQtQt",
"QtQtQtQtQtQtQtQtQtQtQtQtQtQtQtQtQtQtQtQtQtQtQtQtQtQtQtQtQtQtQtQtQtQtQtQtQtQtQtQtQtQtQtQtQtQtQtQtQtQtQtQtQtQtQtQtQtQtQtQtQtQtQtQtQtQtQtQtQtQt",
"QtQtQtQtQtQtQtQtQtQtQtQtQtQtQtQtQtQtQtQtQtQtQtQtQtQtQtQtQtQtQtQtQtQtQtQtQtQtQtQtQtQtQtQtQtQtQtQtQtQtQtQtQtQtQtQtQtQtQtQtQtQtQtQtQtQtQtQtQtQt",
"QtQtQtQtQtQtQtQtQtQtQtQtQtQtQtQtQtQtQtQtQtQtQtQtQtQtQtQtQtQtQtQtQtQtQtQtQtQtQtQtQtQtQtQtQtQtQtQtQtQtQtQtQtQtQtQtQtQtQtQtQtQtQtQtQtQtQtQtQtQt",
"QtQtQtQtQtQtQtQtQtQtQtQtQtQtQtQtQtQtQtQtQtQtQtQtQtQtQtQtQtQtQtQtQtQtQtQtQtQtQtQtQtQtQtQtQtQtQtQtQtQtQtQtQtQtQtQtQtQtQtQtQtQtQtQtQtQtQtQtQtQt",
"QtQtQtQtQtQtQtQtQtQtQtQtQtQtQtQtQtQtQtQtQtQtQtQtQtQtQtQtQtQtQtQtQtQtQtQtQtQtQtQtQtQtQtQtQtQtQtQtQtQtQtQtQtQtQtQtQtQtQtQtQtQtQtQtQtQtQtQtQtQt",
"QtQtQtQtQtQtQtQtQtQtQtQtQtQtQtQtQtQtQtQtQtQtQtQtQtQtQtQtQtQtQtQtQtQtQtQtQtQtQtQtQtQtQtQtQtQtQtQtQtQtQtQtQtQtQtQtQtQtQtQtQtQtQtQtQtQtQtQtQtQt",
"QtQtQtQtQtQtQtQtQtQtQtQtQtQtQtQtQtQtQtQtQtQtQtQtQtQtQtQtQtQtQtQtQtQtQtQtQtQtQtQtQtQtQtQtQtQtQtQtQtQtQtQtQtQtQtQtQtQtQtQtQtQtQtQtQtQtQtQtQtQt",
"QtQtQtQtQtQtQtQtQtQtQtQtQtQtQtQtQtQtQtQtQtQtQtQtQtQtQtQtQtQtQtQtQtQtQtQtQtQtQtQtQtQtQtQtQtQtQtQtQtQtQtQtQtQtQtQtQtQtQtQtQtQtQtQtQtQtQtQtQtQt",
"QtQtQtQtQtQtQtQtQtQtQtQtQtQtQtQtQtQtQtQtQtQtQtQtQtQtQtQtQtQtQtQtQtQtQtQtQtQtQtQtQtQtQtQtQtQtQtQtQtQtQtQtQtQtQtQtQtQtQtQtQtQtQtQtQtQtQtQtQtQt",
"QtQtQtQtQtQtQtQtQtQtQtQt.a.a.b.c.d.e.a.aQtQtQtQtQtQtQtQt.f.g.e.a.a.a.a.aQtQtQtQtQtQtQtQtQtQtQtQtQtQtQtQt.h.i.j.k.a.a.a.aQtQtQtQtQtQtQtQtQtQt",
"QtQtQtQtQtQtQtQtQtQtQtQt.a.a.l.m.n.o.p.aQtQtQtQtQtQtQtQt.q.r.e.a.a.a.a.a.s.t.u.a.a.a.a.a.a.a.a.a.a.a.v.c.w.x.r.y.a.a.a.aQtQtQtQtQtQtQtQtQtQt",
"QtQtQtQtQtQtQtQtQtQtQtQt.a.a.a.h.z.A.B.CQtQtQtQtQtQtQtQt.D.x.E.a.a.a.a.a.F.G.H.a.a.a.a.a.a.a.a.a.s.I.J.K.L.M.e.e.a.a.a.aQtQtQtQtQtQtQtQtQtQt",
"QtQtQtQtQtQtQtQtQtQtQtQt.a.a.a.a.N.O.P.w.Q.e.a.a.a.a.a.a.R.S.T.a.a.a.a.a.U.q.V.a.a.a.a.a.a.a.a.a.W.S.X.YQtQtQtQtQtQtQtQtQtQtQtQtQtQtQtQtQtQt",
"QtQtQtQtQtQtQtQtQtQtQtQt.a.a.a.a.a.a.Z.0.K.1.a.a.a.a.a.a.2.3.4.e.a.a.a.a.5.j.e.a.a.a.a.a.a.a.a.6.7.8.9.eQtQtQtQtQtQtQtQtQtQtQtQtQtQtQtQtQtQt",
"QtQtQtQtQtQtQtQtQtQtQtQt.a.a.a.a.a.a.a.k#.###a.a.a.a.a.a#b.5#c#d.a.a.a#e#f#g.e.a.a.a.a.a.a.a#h.n#i#j.e.aQtQtQtQtQtQtQtQtQtQtQtQtQtQtQtQtQtQt",
"QtQtQtQtQtQtQtQtQtQtQtQtQtQtQtQtQtQtQtQt#k.3#l.e.a.a.a.a.a#m#n#o.a.a.a#p#n#q.e.a.a.a.a.a.a.a#r#s#t.e.a.aQtQtQtQtQtQtQtQtQtQtQtQtQtQtQtQtQtQt",
"QtQtQtQtQtQtQtQtQtQtQtQtQtQtQtQtQtQtQtQt#u.i.m#v.e.a.a.a.a#w#x#c.p.F#y#z.3#A.a.a.a.a.a.a#B#C#D#o.e.a.a.aQtQtQtQtQtQtQtQtQtQtQtQtQtQtQtQtQtQt",
"QtQtQtQtQtQtQtQtQtQtQtQtQtQtQtQtQtQtQtQt.e#E.x#F#G.a.a.a.a.a#H.P.3#I#J#K#K.q.i#w.a.a.a.p#g.m.O.e.e.a.a.aQtQtQtQtQtQtQtQtQt#L#M#N#y#wQtQtQtQt",
"QtQtQtQtQtQtQtQtQtQtQtQtQtQtQtQtQtQtQtQt.a.a#O.S#P#d.a.a.a#o#Q#R.P#S#T#T#T#U#S.K#V.a.a#W.3#X#Y.e.a.a.a.aQtQtQtQtQtQtQtQt#Z#R#J.n.q#Q.vQtQtQt",
"QtQtQtQtQtQtQtQtQtQtQtQtQtQtQtQtQtQtQtQt.a.a#b#0.m#1.e.a#2.G#R#3#T#3.P#4#5#U#S#5#6.N#H.K#7.N.a.a.a.a.a.a.a.a.a.a.a.a.a#w.w#T#8#F#9#Ja.QtQtQt",
"QtQtQtQta##8aaab.Wac.e.aQtQtQtQtQtQtQtQt.a.a.aad#r#x.v.a#F#T#U#I#U.P.P#T#T.n.q#5aeaf.Jagah.e.a.a.a.a.a.a.a.a.a.a.a.a.Vai#S#Taj#s#8#S.XQtQtQt",
"QtQt#vak#5#5#T#R.3alam.eQtQtQtQtQtQtQtQt.a.a.a.aanal.X#v#J#5#3ae#K#4#Jao.A#S#T#S#I.J.c.dQtQtQtQtQtQtQtQt.a.a.a.a.a#h#f#R#5#3.S#U.K#Rap#dQtQt",
"Qt.V#J#T#S.l#D#Ial#DaqarQtQtQtQtQtQtQtQt.a.a.a.a.aasat.q.m#S#J.A.A.A.m#f.B.Bal#I.A.Pae.7#xa.#Y.a.a.a.a.a.a.a.a.a.Fak#f#T#T#D#4#3#S#S#s#dQtQt",
"Qt.U#3#Q#U.q.K.Aatau.K#PQtQtQtQtQtQtQtQt.a.a.aav#c#naj#Q#6.5#r#i.5aw.j#c#6ax#g.Way#8ao.S.q#n.0ad.e.a.a.a.a.a.aaz.w#r.3#5#U#J#Uaj.S.Pat#jQtQt",
"Qt#8#T.G#T#R#T.Saaau.Jalav.e.a.a.a.a.a.a.a.V#g.J.q.3.JapaA.z#.#caBaB.BaxaCaD#Qat.G.S.7.waeaj#JaE.a.a.a.a.a.a#k#n.0ai#S#5#K#3#4#S#4.0ak.VQtQt",
"Qtao#T#D#5#T#5#S#4apaj#faxaF.a.a.a.a.a.a#Hal.G.J.7#g.CahQtQtQtQtQtQtQtQt.eaG#u.Vac#yaHaw#n#U#4.r.a.a.a.a.aaIat.B.0.S#T#T#J.3#4#S#3#8ak.VQtQt",
"Qt#4#T.U#T#T#5#T#U.P#3#3.A#2.a.a.a.a.a.aaJak#naKaLaF.a.aQtQtQtQtQtQtQtQt.a.a.a.a.a.e.e.N.VaM.SaN.E.a.a.a.s#z.7.5ao#S#T.A.7#3#T#T#Tao.xaOQtQt",
"Qt#J#T#0#S#3#5#SaN#S#3#S#U.j.y.a.a.a.aaP#FajaQ.g.e.e.a.aQtQtQtQtQtQtQtQtQtQtQtQtQtQtQtQt.a#eaR.m.I.e.a.aaS.P.3#4#T#S#Jao#T#5#R#5#5.3ataOQtQt",
"Qt.G#T#.#S#I#5#5#R#R#T#R#I.3aT.a.a.a.aaN.J.taG.e.a.a.a.a#aaUaV.z.zaW#Q#Dat.7.7aK#i.baXaY.a.a#d#FaD#d.aaZ#K#3#K#T#3#U#S#5#5#S#5#5#4#Da0#uQtQt",
"Qt#f#Tae#Taoao#S#5#T#T#T#R#r.7.Z.a.a.aa0a1.a.a.a.Ea2a3alao#J#Iae.P#4#4#U#3#3#3#S#3#3#R.K.n.0a4a5#rahaU#4#S#U#T#S#4#5#5#5#J#5#5#S.A.Ga6QtQtQt",
"QtaB.P#S#5#U#K#I#S#T#5#5#5#Rat.wa7.a.a#F#6#EaU#Cal.3aK.5#T#T#T#3#4ao.3.S#I#K.P#K.P#U#T#U#D.7.5a1#D#W#3#T#S#5#T#R#S#5#5#S#5#5#S#R#Iaqa8QtQtQt",
"Qt#zal#x#5#5#T#T#T#5#T#5#5#5#K.Pao.Ia9.U.Gak.mat#caW.J.3#U#3#R#R#R#R#R#R#U#R#R#3#S#3#Uaeao.G#Jap#R#5#5#5#Jaqaw#K#T#5#5#5#T#I#I#3aub.QtQtQtQt",
"Qtb#.7af.j.A.K.n#c#R#T#T#T#5#5#T#T#4.baw#5#U.3#I#J#U#U#U#3#S#S#S#T#T#5#T#T#T#T#T#T#T#S#T.3#c#U#T#5#5#S.A.7.P#S#R.P#S#S.Paeao.Paw.YQtQtQtQtQt",
"Qt#Y#X.x.7#f.Kaeax.l#Q#3#T#S#T#5#3.j.7#4#5#5#S#S#S#3#S#4#R#3#R#4#R#3#3#U#R#R#R#U#T#J#I.P#R.A#K#5#5#4.G#S#T#3.S#4#5#5#S#4aeakba.uQtQtQtQtQtQt",
"QtQtQtaI#q.caa#U#3#Iae#I#R#T#5#5#5#T.3#T#5#T#K#J#T#K.Ja0#4#T#5#T#T#3#4#Jaeae.P#T#3.7.7.mao.Pao#T#TbaaDakaWbb.iaB#9.raTbcac.paFQtQtQtQtQtQtQt",
"QtQtQtQt.e.e#Yac.L#D.Aae#8#caj#3#T#T#T#5#5#3aK#n#5#T#4#n.7#R#T#3#3#S#3#T#5#5#5#5#U.3.x###9#n#4#3#5#Qbda8.9.e.e.e.e.e.e.aQtQtQtQtQtQtQtQtQtQt",
"QtQtQtQt.a.a.a.a#ebebfbg#i.A.G.G.3alaV###T#T#U.3#5#5#5#T.Sak.P#R#T#5#5#5#5#5#T#3#J#U.A.3#4#3#Rao#5.x.s.aQtQtQtQtQtQtQtQtQtQtQtQtQtQtQtQtQtQt",
"QtQtQtQtQtQtQtQtQtQtQtQt.ybhavbhbi.kaR.maK#K#R#3#3#T#5#5#5#5.S#x.3#3#S#T#U#naa#8.K.A.3auaK.J.S#U#SaM.a.aQtQtQtQtQtQtQtQtQtQtQtQtQtQtQtQtQtQt",
"QtQtQtQtQtQtQtQtQtQtQtQt.a.a.a.a.aa2#n.Darbj.7.P#U#U#U#S#T#5#5#5#T#4.P#J#J#J#4#R.P#4#K#K#J#Jae.xaw#D#h.aQtQtQtQtQtQtQtQtQtQtQtQtQtQtQtQtQtQt",
"QtQtQtQtQtQtQtQtQtQtQtQt.a.a.a.a.Z.m.b.u.a.a#wb.aSax.x#I#4#S#T#5#5#T#S#S#S#S#S#3#3#R.P#I#Da5#Hbk.V#r#QbeQtQtQtQtQtQtQtQtQtQtQtQtQtQtQtQtQtQt",
"QtQtQtQtQtQtQtQtQtQtQtQt.a.abe#Wat.za8.e.a.a.a.a.e.e#Y#Vblbmay.8bnbobp#m#Obqbr#Z#p.h.2#V#B.a.a.a.ab.aa#f#Xbs.e.a.a.a.a.aQtQtQtQtQtQtQtQtQtQt",
"QtQtQtQtQtQtQtQtQtQtQtQtaP#N#x.7aVbt.e.a#Gbu.y.a.a.a.a.aQtQtQtQtQtQtQtQtQtQtQtQtQtQtQtQt.a.a.a.a.a.e#vafaual.O.e.a.a.a.aQtQtQtQtQtQtQtQtQtQt",
"QtQtQtQt.a.a.a.a#jaJbjaq.J.qa3.f.e.e.a.a.1aobv.a.a.a.a.aQtQtQtQtQtQtQtQtQtQtQtQtQtQtQtQt.a.a.a.a.a.a.e.s#V#z.7bwbx.e.a.aQtQtQtQtQtQtQtQtQtQt",
"QtQtQtQt.a.aby#zau.7#Q.D.O#2.e.e.a.a.a.a.s#Salah.a.a.a.aQtQtQtQtQtQtQtQtQtQtQtQtQtQtQtQt.a#Haq.Z.a.a.a.a.a.9bg.w.xbz.v.eQtQtQtQtQtQtQtQtQtQt",
"QtQtQtQt.abA.Ja0.8bBa8.eQtQtQtQtQtQtQtQtaJ#3#TbCaF.a.a.aQtQtQtQtQtQtQtQt.a.a.a.a.a.yaX.n.K.S#UaH.a.a.a.a.a.a.ebD.X.q#QaJQtQtQtQtQtQtQtQtQtQt",
"QtQtQtQt.abE.W.g.e.e.a.a.a.a.a.a.a.a.a#h.wak#U.SaWaJ.V.aQtQtQtQtQtQtQtQt.a.aah#Zbpal#3#Sao#3#5a3.a.a.a.a.a.a.a.a.e#VaiaKbdQtQtQtQtQtQtQtQtQt",
"QtQtQtQtQtQtQtQtQtQtQtQt.a.a.a.a.a.a.a#iap#z.x#n.A#R.qap##awai#9#.aW#i.x.Kae.3.A.P#U#4#R#3.A#T#8.9.a.a.a.a.a.a.a.a.a#p#D.XQtQtQtQtQtQtQtQtQt",
"QtQtQtQtQtQtQtQtQtQtQtQt.a.a.a.a.a.aa#aubFalbG.x.7#T.Saa#f.Kae.P#R#R#4#4#K#R.A#4#S.P.m#Jbn#oaeaebH.a.a.a.a.a.a.a.a.a.ebI.tQtQtQtQtQtQtQtQtQt",
"QtQtQtQtQtQtQtQtQtQtQtQt.a.a.a.a.a.a#8bwbJatbBaJ.G#J#T#3#S#T#Ibj.4bqav.2#j#y#4#J#xaB.Abw#kaoat#caaar.a.aQtQtQtQtQtQtQtQtQtQtQtQtQtQtQtQtQtQt",
"QtQtQtQtQtQtQtQtQtQtQtQt.a.a.a.a.abi.JbK#Z.q.HaGbl#8#K#4#U#nav.e.e.e.a.a.aaGb#.n.m#8bo.g.j#RasbL.JbM.a.aQtQtQtQtQtQtQtQtQtQtQtQtQtQtQtQtQtQt",
"QtQtQtQtQtQtQtQtQtQtQtQt.a.a.a.a.abr.J.taM#IbN.a.a.MaRbC#q.u.e.a.a.a.a.a.a.a.e.yaI#u.e.a.Mat.7aL.XakbO.aQtQtQtQtQtQtQtQtQtQtQtQtQtQtQtQtQtQt",
"QtQtQtQtQtQtQtQtQtQtQtQt.a.a.a.a.abFat#C.A#3.Gbt.a.a.a.aQtQtQtQtQtQtQtQtQtQtQtQtQtQtQtQtazao.S.ZbP.nab#GQtQtQtQtQtQtQtQtQtQtQtQtQtQtQtQtQtQt",
"QtQtQtQtQtQtQtQtQtQtQtQt.a.a.a.a.abQ#faAau#r#SbRah.a.a.aQtQtQtQtQtQtQtQt.a.a.a.a.a.a.a.V#9.P#ibd.ab#atbSQtQtQtQtQtQtQtQtQtQtQtQtQtQtQtQtQtQt",
"QtQtQtQtQtQtQtQtQtQtQtQt.a.a.a.abk#8a1#p.J.S#3#KbK.a.a.aQtQtQtQtQtQtQtQt.a.a.a.a.a.abTal#4.GaL.a.a.aaxaaa8.a.a.a.a.a.a.aQtQtQtQtQtQtQtQtQtQt",
"QtQtQtQtQtQtQtQtQtQtQtQt.a.a.a.abU.q#p.ebPbz#R#T#3.Bbe.aQtQtQtQtQtQtQtQt.a.a.a.a.2bR.3#S#Ubj.N.a.a.abr.JbV.e.a.a.a.a.a.aQtQtQtQtQtQtQtQtQtQt",
"QtQtQtQtQtQtQtQtQtQtQtQt.a.a.a.aa5#Q.p.a.a.NaS.3#T#5#Tao.z.Wbcbt.a.a.a.a.a.aazaDaj#I#4#K#x.V.a.a.a.a.aaB.B.9.a.a.a.a.a.aQtQtQtQtQtQtQtQtQtQt",
"QtQtQtQtQtQtQtQtQtQtQtQt.a.a.a#a#Q.l.e.a.a.a.a.Mbaao#S#T#T#T#S.P.w.5aW#8ajao#J#Jae#I.Saubu.a.a.a.a.a.abK.qbW.e.a.a.a.a.aQtQtQtQtQtQtQtQtQtQt",
"QtQtQtQtQtQtQtQtQtQtQtQt.a.a.abT.K#H.e.a.a.a.a.aaGbkbH.i.K.P#4#3#3#3#3#3#U#4#J.A#I#Kai#vQtQtQtQtQtQtQtQtaKaf#b.a.a.a.a.aQtQtQtQtQtQtQtQtQtQt",
"QtQtQtQtQtQtQtQtQtQtQtQt.a.a.abB.SaL.a.aQtQtQtQtQtQtQtQtaYbrbG##.7.S#n.K.q.m.KalaEaz.9.eQtQtQtQtQtQtQtQta..J#Z.a.a.a.a.aQtQtQtQtQtQtQtQtQtQt",
"QtQtQtQtQtQtQtQtQtQtQtQt.a.a.a#M.q.V.a.aQtQtQtQtQtQtQtQt.a.e.e.e.V#AbcbcbXa7.Y#j.e.e.a.aQtQtQtQtQtQtQtQt.va3b..a.a.a.a.aQtQtQtQtQtQtQtQtQtQt",
"QtQtQtQtQtQtQtQtQtQtQtQt.a.a.aaB#iaG.a.aQtQtQtQtQtQtQtQtQtQtQtQtQtQtQtQtQtQtQtQtQtQtQtQtQtQtQtQtQtQtQtQtQtQtQtQtQtQtQtQtQtQtQtQtQtQtQtQtQtQt",
"QtQtQtQtQtQtQtQtQtQtQtQt.a.a.a#8as.e.a.aQtQtQtQtQtQtQtQtQtQtQtQtQtQtQtQtQtQtQtQtQtQtQtQtQtQtQtQtQtQtQtQtQtQtQtQtQtQtQtQtQtQtQtQtQtQtQtQtQtQt",
"QtQtQtQtQtQtQtQtQtQtQtQt.a.a.a#p#E.e.a.aQtQtQtQtQtQtQtQtQtQtQtQtQtQtQtQtQtQtQtQtQtQtQtQtQtQtQtQtQtQtQtQtQtQtQtQtQtQtQtQtQtQtQtQtQtQtQtQtQtQt",
"QtQtQtQtQtQtQtQtQtQtQtQtQtQtQtQtQtQtQtQtQtQtQtQtQtQtQtQtQtQtQtQtQtQtQtQtQtQtQtQtQtQtQtQtQtQtQtQtQtQtQtQtQtQtQtQtQtQtQtQtQtQtQtQtQtQtQtQtQtQt",
"QtQtQtQtQtQtQtQtQtQtQtQtQtQtQtQtQtQtQtQtQtQtQtQtQtQtQtQtQtQtQtQtQtQtQtQtQtQtQtQtQtQtQtQtQtQtQtQtQtQtQtQtQtQtQtQtQtQtQtQtQtQtQtQtQtQtQtQtQtQt",
"QtQtQtQtQtQtQtQtQtQtQtQtQtQtQtQtQtQtQtQtQtQtQtQtQtQtQtQtQtQtQtQtQtQtQtQtQtQtQtQtQtQtQtQtQtQtQtQtQtQtQtQtQtQtQtQtQtQtQtQtQtQtQtQtQtQtQtQtQtQt",
"QtQtQtQtQtQtQtQtQtQtQtQtQtQtQtQtQtQtQtQtQtQtQtQtQtQtQtQtQtQtQtQtQtQtQtQtQtQtQtQtQtQtQtQtQtQtQtQtQtQtQtQtQtQtQtQtQtQtQtQtQtQtQtQtQtQtQtQtQtQt",
"QtQtQtQtQtQtQtQtQtQtQtQtQtQtQtQtQtQtQtQtQtQtQtQtQtQtQtQtQtQtQtQtQtQtQtQtQtQtQtQtQtQtQtQtQtQtQtQtQtQtQtQtQtQtQtQtQtQtQtQtQtQtQtQtQtQtQtQtQtQt"};
