/* XPM */
static char *dummy[]={
"70 70 234 2",
".a c None",
".i c None",
"Qt c None",
"af c #844500",
".# c #ffffff",
".F c #844500",
"#7 c #844500",
"ag c #844500",
".w c #844500",
"ai c #844500",
".L c #844500",
"bN c #844500",
"## c #844500",
"aV c #844500",
"ab c #844500",
"aN c #844500",
"#z c #844500",
"#E c #844500",
".q c #844500",
"aE c #844500",
"bh c #844500",
"#M c #844500",
"a3 c #844500",
"bE c #844500",
"a# c #844500",
"am c #844500",
"#D c #844500",
"bB c #844500",
".X c #844500",
"ao c #844500",
".b c #844500",
"aq c #844500",
".n c #844500",
"#m c #844500",
"av c #844500",
".8 c #844500",
"bI c #844500",
"al c #844500",
"bt c #844500",
"bs c #844500",
"#J c #844500",
"aj c #844500",
"bK c #844500",
"au c #844500",
"ay c #844500",
"#I c #844500",
"#1 c #844500",
"bm c #844500",
".c c #844500",
"#6 c #844500",
"be c #844500",
"aY c #844500",
"aF c #844500",
"a8 c #844500",
".M c #844500",
".1 c #844500",
"bA c #844500",
"bx c #844500",
"#K c #844500",
"ap c #844500",
"#Z c #844500",
"bv c #844500",
"aB c #844500",
".h c #844500",
".d c #844500",
"#v c #844500",
"as c #844500",
"#U c #844500",
"a0 c #844500",
"bb c #844500",
"#q c #844500",
"ad c #844500",
"bf c #844500",
"bg c #844500",
"#u c #844500",
"#A c #844500",
"#r c #844500",
"br c #844500",
"aA c #844500",
"bq c #844500",
"#C c #844500",
"#n c #844500",
".2 c #844500",
"az c #844500",
"bJ c #844500",
".Q c #844500",
"bu c #844500",
".j c #844500",
"a7 c #844500",
"aP c #844500",
"#R c #844500",
"aS c #844500",
"a4 c #844500",
"#w c #844500",
"bl c #844500",
"#8 c #844500",
"bL c #844500",
"#T c #844500",
"#N c #844500",
"#5 c #844500",
"#Q c #844500",
"aw c #844500",
"ba c #844500",
"#t c #844500",
".E c #844500",
"#2 c #844500",
".Y c #844500",
"aU c #844500",
"#x c #844500",
"aC c #844500",
"bo c #844500",
"aJ c #844500",
"#d c #844500",
"bG c #844500",
"bF c #844500",
"bM c #844500",
".S c #844500",
"bj c #844500",
"aW c #844500",
".v c #844500",
"bn c #844500",
"#Y c #844500",
"bH c #844500",
"b# c #844500",
"aR c #844500",
"ac c #844500",
"aK c #844500",
".z c #844500",
"#V c #844500",
"bw c #844500",
"a6 c #844500",
"aa c #844500",
"aX c #844500",
"#l c #844500",
"bD c #844500",
".o c #844500",
"bC c #844500",
".y c #844500",
".6 c #844500",
"bd c #844500",
"aG c #844500",
"#X c #844500",
"aI c #844500",
"aZ c #844500",
"bp c #844500",
"at c #844500",
"#g c #844500",
"ax c #844500",
"ak c #844500",
".G c #844500",
"#0 c #844500",
"b. c #844500",
".5 c #844500",
"an c #844500",
"#L c #844500",
"aQ c #844500",
"aL c #844500",
"a5 c #844500",
"a9 c #844500",
"bi c #844500",
"#W c #844500",
"aH c #844500",
".4 c #844500",
"by c #844500",
"bk c #844500",
"#3 c #844500",
"ar c #844500",
".T c #844500",
".p c #844500",
"aT c #844500",
".7 c #844500",
"a1 c #844500",
"#h c #844500",
".e c #844500",
".9 c #844500",
".s c #844500",
"ah c #844500",
".B c #844500",
"bz c #844500",
"#9 c #844500",
"a. c #844500",
"#i c #844500",
"#P c #844500",
"#b c #844500",
"bc c #844500",
"#O c #844500",
".K c #844500",
"#e c #844500",
"a2 c #844500",
"#s c #844500",
"ae c #844500",
"#k c #844500",
"aD c #844500",
".V c #844500",
"#S c #844500",
"#. c #844500",
"aM c #844500",
"aO c #844500",
".W c #844500",
".O c #844500",
"#B c #844500",
"#4 c #844500",
"#j c #844500",
".U c #844500",
"#f c #844500",
".r c #844500",
"#H c #844500",
"#G c #844500",
".g c #844500",
".I c #844500",
"#F c #844500",
".k c #844500",
"#a c #844500",
"#y c #844500",
".N c #844500",
".A c #844500",
".P c #844500",
".H c #844500",
".3 c #844500",
"#o c #844500",
"#c c #844500",
".f c #844500",
".u c #844500",
".D c #844500",
".R c #844500",
".0 c #844500",
".x c #844500",
".J c #844500",
".Z c #844500",
"#p c #844500",
".t c #844500",
".m c #844500",
".C c #844500",
".l c #844500",
"QtQtQtQtQtQtQtQtQtQtQtQtQtQtQtQtQtQtQtQtQtQtQtQtQtQtQtQtQtQtQtQtQtQtQtQtQtQtQtQtQtQtQtQtQtQtQtQtQtQtQtQtQtQtQtQtQtQtQtQtQtQtQtQtQtQtQtQtQt.#",
"QtQtQtQtQtQtQtQtQtQtQtQtQtQtQtQtQtQtQtQt.a.a.a.a.a.a.b.cQtQtQtQtQtQtQtQtQtQtQtQtQtQtQtQtQtQtQtQtQtQtQtQtQtQtQtQtQtQtQtQtQtQtQtQtQtQtQtQtQtQt",
"QtQtQtQtQtQtQtQtQtQtQtQtQtQtQtQtQtQtQtQt.a.a.a.a.d.e.f.g.h.i.a.a.a.a.a.aQtQtQtQtQtQtQtQtQtQtQtQtQtQtQtQtQtQtQtQtQtQtQtQtQtQtQtQtQtQtQtQtQtQt",
"QtQtQtQtQtQtQtQtQtQtQtQtQtQtQtQtQtQtQtQt.a.a.a.j.k.f.l.m.k.n.a.a.a.a.o.p.q.a.a.a.a.a.a.aQtQtQtQtQtQtQtQtQtQtQtQtQtQtQtQtQtQtQtQtQtQtQtQtQtQt",
"QtQtQtQtQtQtQtQtQtQtQtQtQtQtQtQtQtQtQtQt.a.a.a.r.s.t.t.u.v.w.a.a.a.a.g.x.y.i.a.a.a.a.a.aQtQtQtQtQtQtQtQtQtQtQtQtQtQtQtQtQtQtQtQtQtQtQtQtQtQt",
"QtQtQtQtQtQtQtQtQtQtQtQtQtQtQtQtQtQtQtQt.a.a.z.A.B.C.D.E.F.a.a.a.a.a.G.f.H.v.F.a.a.a.a.aQtQtQtQtQtQtQtQtQtQtQtQtQtQtQtQtQtQtQtQtQtQtQtQtQtQt",
"QtQtQtQtQtQtQtQtQtQtQtQtQtQtQtQtQtQtQtQt.a.a.I.J.f.C.K.L.a.a.a.a.a.a.M.N.O.P.Q.i.a.a.a.aQtQtQtQtQtQtQtQtQtQtQtQtQtQtQtQtQtQtQtQtQtQtQtQtQtQt",
"QtQtQtQtQtQtQtQtQtQtQtQtQtQtQtQtQtQtQtQt.a.d.f.R.C.t.S.a.a.a.a.a.a.a.i.T.U.V.W.X.a.a.a.aQtQtQtQtQtQtQtQtQtQtQtQtQtQtQtQtQtQtQtQtQtQtQtQtQtQt",
"QtQtQtQtQtQtQtQtQtQtQtQtQtQtQtQtQtQtQtQt.a.Y.P.Z.C.0.1.a.a.a.a.a.a.a.a.2.3.4.P.y.i.a.a.aQtQtQtQtQtQtQtQtQtQtQtQtQtQtQtQtQtQtQtQtQtQtQtQtQtQt",
"QtQtQtQtQtQtQtQtQtQtQtQtQtQtQtQtQtQtQtQt.a.5.U.0.t.f.n.a.a.a.a.a.a.a.a.L.6.k.7.g.8.a.a.aQtQtQtQtQtQtQtQtQtQtQtQtQtQtQtQtQtQtQtQtQtQtQtQtQtQt",
"QtQtQtQtQtQtQtQtQtQtQtQtQtQtQtQtQtQtQtQt.a.9.r.u.t#..i.aQtQtQtQtQtQtQtQt###a#b#c#d.i.a.aQtQtQtQtQtQtQtQtQtQtQtQtQtQtQtQtQtQtQtQtQtQtQtQtQtQt",
"QtQtQtQtQtQtQtQtQtQtQtQtQtQtQtQtQtQtQtQt.a#e.f#f.C#g.i.aQtQtQtQtQtQtQtQt.a#h.t#c#i.i.a.aQtQtQtQtQtQtQtQtQtQtQtQtQtQtQtQtQtQtQtQtQtQtQtQtQtQt",
"QtQtQtQtQtQtQtQtQtQtQtQtQtQtQtQtQtQtQtQt.a#j.J#k.C.E.a.aQtQtQtQtQtQtQtQt.a#l.D.J#c#m.a.aQtQtQtQtQtQtQtQtQtQtQtQtQtQtQtQtQtQtQtQtQtQtQtQtQtQt",
"QtQtQtQtQtQtQtQtQtQtQtQtQtQtQtQtQtQtQtQt.a.k.J.U.m#n.a.aQtQtQtQtQtQtQtQt.a.E#o.A#p#q.a.aQtQtQtQtQtQtQtQtQtQtQtQtQtQtQtQtQtQtQtQtQtQtQtQtQtQt",
"QtQtQtQtQtQtQtQtQtQtQtQtQtQtQtQtQtQtQtQt.a.H.x#f#p#r.a.aQtQtQtQtQtQtQtQt.a.Q#c#s.t#t.a.aQtQtQtQtQtQtQtQtQtQtQtQtQtQtQtQtQtQtQtQtQtQtQtQtQtQt",
"QtQtQtQtQtQtQtQtQtQtQtQtQtQtQtQtQtQtQtQt.a.P.0#c.0#u.a.aQtQtQtQtQtQtQtQt.a#v.H#b#p.G.i.aQtQtQtQtQtQtQtQt.a.a.a.a.a.X#w.B#xQtQtQtQtQtQtQtQtQt",
"QtQtQtQtQtQtQtQtQtQtQtQtQtQtQtQtQtQtQtQt.a.A.0#c.f.d.a.aQtQtQtQtQtQtQtQt.a.c#y#b.R#s#z.aQtQtQtQtQtQtQtQt.a.a.a.a#A#a.t#B#CQtQtQtQtQtQtQtQtQt",
"QtQtQtQtQtQtQtQtQtQtQtQtQtQtQtQtQtQtQtQt.a.N.R.N.T#D.a.aQtQtQtQtQtQtQtQt.a#E#j#F#G#H#I.aQtQtQtQtQtQtQtQt.a.a.a.v.Z.t.B#JQtQtQtQtQtQtQtQtQtQt",
"QtQtQtQt.a.a.a.a.a#K.B#L#M.a.a.a.a.a.a.a.a#y.0#F#N.i.a.aQtQtQtQtQtQtQtQt.a.i#O.3#P.I#Q.iQtQtQtQtQtQtQtQt.a#R#S.t.D#T.F.aQtQtQtQtQtQtQtQtQtQt",
"QtQtQtQt.a.a.a.a.a#U.3.R#V.i.a.a.a.a.a.a.a.I.J#a#T.a.a.aQtQtQtQtQtQtQtQt.a.a#W.u.p.W#X.iQtQtQtQtQtQtQtQt#Y#F.D.I#Z.a.a.aQtQtQtQtQtQtQtQtQtQt",
"QtQtQtQt.a.a.a.a.a.a#0.R.g#1.a.a.a.a.a.a.a#..t#c#2.i.a.aQtQtQtQtQtQtQtQt.a.a.o.x.9.K#3.i.a.a.a.a.a.a.a.v.N#4.f#5.a.a.a.aQtQtQtQtQtQtQtQtQtQt",
"QtQtQtQt.a.a.a.a.a.a#6#G.0#3#7.a.a.a.a.a.a.4.m.R.o.i.a.aQtQtQtQtQtQtQtQt.a.a#8#p#b#9a..i.a.a.a.a.a.aa#.N#G.Aaaab.a.a.a.aQtQtQtQtQtQtQtQtQtQt",
"QtQtQtQt.a.a.a.a.a.a.iac.D.Pad.a.a.a.a.a.a.z#p.Raeaf.a.aQtQtQtQtQtQtQtQt.a.a.1#p.Wa.#P.i.a.a.a.a.aagah#p#aacai.a.a.a.a.aQtQtQtQtQtQtQtQtQtQt",
"QtQtQtQt.a.a.a.a.a.a.aaj#F#oak.a.a.a.a.a.a.c.0#p.Nal.aaman#K.a.a.a.a.a.a.a.a.i#p#H.s.B.i.a.a.a.aaoa..m.N#u.i.i.a.a.a.a.aQtQtQtQtQtQtQtQtQtQt",
"QtQtQtQtQtQtQtQtQtQtQtQtan.0.Pap.a.a.a.a.a.a#4.m.R#Taq#F.lar.a.a.a.a.a.aas#Z.a#p#H#fat.a.a.a.aala..t.NauQtQtQtQtQtQtQtQtQtQtQtQtQtQtQtQtQtQt",
"QtQtQtQtQtQtQtQtQtQtQtQtav#S#p.4.a.a.a.a.a.aaw.m.Jaxay#p.C.S.a.a.a.a.a.a#P.s.a.Z.3.Aaz.a.aaj.U#O.0.RaA.aQtQtQtQtQtQtQtQtQtQtQtQtQtQtQtQtQtQt",
"QtQtQtQtQtQtQtQtQtQtQtQt.aaB.u#paC.a.a.a.a.aag.N.m.I#q.m.t#R.a.a.a.a.a.a.g.0#E.J.JaDaE.aaF#H.m.J.0aGai.aQtQtQtQtQtQtQtQtQtQtQtQtQtQtQtQtQtQt",
"QtQtQtQtQtQtQtQtQtQtQtQt.a.a#d#p.maHab.a.a.a.aaI.C.x#2.Z.CaJ#raKaL.s#iaM#p.m.d#p.t.z.aaNaO.R.m#o#f#m.a.aQtQtQtQtQtQtQtQtQtQtQtQtQtQtQtQtQtQt",
"QtQtQtQtQtQtQtQtQtQtQtQt.a.a#7aP.H.C#c#x.w.a.a.8.J.C#h.u.l.A.P#y#4aeahaQ#4.maD.C.Z.1.aaR.m.C.J.AaS.a.a.a.a.a.a.a.a#z.jaz#7QtQtQtQtQtQtQtQtQt",
"QtQtQtQtQtQtQtQtQtQtQtQt.a.a.a.a.XaT.Z.m.raUaV.a.K.m.C.Z.C.u.3.N.r#H#f.TaQ#s.D.maDaN#v.D.l#p#H.Saf.a.a.a.a.a.a.a.a.4#p.3.MQtQtQtQtQtQtQtQtQt",
"QtQtQtQtQtQtQtQtQtQtQtQt.a.a.a.a.a.a#A.W.t.m#GaW#N#o.Z#X.C.l.l.l.C.C.C.x.faM.Z.xaX.K.x.t.DahaY.a.a.a.a.a.a.a.a.aaZ.J.Z.DawQtQtQtQtQtQtQtQtQt",
"QtQtQtQtQtQtQtQtQtQtQtQt.a.a.a.a.a.a.a.F#r#4#p.t.D.0.f.J.l.l.C.C.f.Z.Z.C.C.JaD.m#p.m.A.5a0ab.i.a.a.a.a.a.a.a.wa1.t.Z.3a2a3QtQtQtQtQtQtQtQtQt",
"QtQtQtQtQtQtQtQtQtQtQtQtQtQtQtQtQtQtQtQt.aaVa4#.#p.l.l.l.l.l.H.l.ma5#c.l.J.l.0#9.Pa6aE.a.a.a.a.a##.M#Aaw.9#j.J.l.t#c#3#mQtQtQtQtQtQtQtQtQtQt",
"QtQtQtQtQtQtQtQtQtQtQtQtQtQtQtQtQtQtQtQt.a.a.a#I.H.l.l.l.l.l.Z.l.l.t.R.C.t.l.l.I#9.ka7a8a9#h#PaD#F.u.J#p.t.m.C#o.G.d.a.aQtQtQtQtQtQtQtQtQtQt",
"QtQtQtQt.a.a.a#A.P#aaw.aQtQtQtQtQtQtQtQt.a.a#EaT.t.C.l.l.l.l.A.l.l.l.l.t.t.l.l.l#o.e#ab..J.C.m.m#p.Z.J.u.f.gb#ab.a.a.a.aQtQtQtQtQtQtQtQtQtQt",
"QtQtQtQt.a.a.aau#s.t.m.N#L#Vba#rbba0#Zam.a#m#3.l.m.C.C.l.l.l.A.l.l.l.l.m#p.l.l.l.l#ca..ga2.H.3.f.D#o#fbcbd.c.i.i.a.a.a.aQtQtQtQtQtQtQtQtQtQt",
"QtQtQtQt.a.a.a.a##.Q#..Z.D.3.f.R.0.R.R.D.x.Z#p.C#F.C.C.l.l.l.H.m.l.l.l.C.t.x.l.m.l.l.J.u#c.Obe.8#mav#E.aQtQtQtQtQtQtQtQtQtQtQtQtQtQtQtQtQtQt",
"QtQtQtQt.a.a.a.a.a.a#zaWaM.N#c.R.u#o.H.H.I#j#p.C.N.C.C.l.l.C.t.J.l.l.C.l.Z.f.l.l.C.l.l.m.u.t.1.a.a.a.a.aQtQtQtQtQtQtQtQtQtQtQtQtQtQtQtQtQtQt",
"QtQtQtQtQtQtQtQtQtQtQtQta3.1bfbg#I#Jaobhag.a.O.R.Z.J.C.l.l.C.N.t.l.l.l.l.l.m.l.l.l.l.l.m#4.t#v.a.a.a.a.aQtQtQtQtQtQtQtQtQtQtQtQtQtQtQtQtQtQt",
"QtQtQtQtQtQtQtQtQtQtQtQtQtQtQtQtQtQtQtQt.a.aa2.R.m.x.f.C.l.C.U.x.m.m.C.l.l.l.l.C.m.l.l#Y.N#p#I.a.a.a.a.aQtQtQtQtQtQtQtQtQtQtQtQtQtQtQtQtQtQt",
"QtQtQtQtQtQtQtQtQtQtQtQtQtQtQtQtQtQtQtQt.a.a.e.0.k#p.t.l.C.C.N.m.C.g.r.l.l.l.l#p.f.C.l#i.Z.H#z.a.a.a.a.aQtQtQtQtQtQtQtQtQtQtQtQtQtQtQtQtQtQt",
"QtQtQtQtQtQtQtQtQtQtQtQtQtQtQtQtQtQtQtQtaN#g.Z.u.W.C.C.Z.l.l.C.C.m.A.Z.l.l.Z.C#paX.C.Cbi.t#caX#D.a.a.a.aQtQtQtQtQtQtQtQtQtQtQtQtQtQtQtQtQtQt",
"QtQtQtQtQtQtQtQtQtQtQtQt.a.a.a.a.a.a.aabat.f.R.m#c#f.C#p.C.l.l.l.C.C.l.C#c#o.t.f.f#p.R#2#c.J.J#ham.a.a.aQtQtQtQtQtQtQtQtQtQtQtQtQtQtQtQtQtQt",
"QtQtQtQtQtQtQtQtQtQtQtQt.a.a.a.a.a.a.abj.Z.C.3.J.C#o.u.D.C.C#p.m.m.m.l.l.m.m.C.f.0#B#2b##obk.R.ubl.a.a.aQtQtQtQtQtQtQtQtQtQtQtQtQtQtQtQtQtQt",
"QtQtQtQtQtQtQtQtQtQtQtQt.a.a.a.a.a.abm#G.m.C.Sbn.m.rbo#S.C.C.D.I.r#HaO#H.u.3#y#FaZaqaN.P.C#5#W.t.WaE.a.aQtQtQtQtQtQtQtQtQtQtQtQtQtQtQtQtQtQt",
"QtQtQtQtQtQtQtQtQtQtQtQt.a.a.a.a.a.a.z.u.m.xbf.F.g.t#X#z#8#B#p.x.x.x.0.f.3.N.e#u.F.abp.C#pbm.X.k#pbq.a.aQtQtQtQtQtQtQtQtQtQtQtQtQtQtQtQtQtQt",
"QtQtQtQtQtQtQtQtQtQtQtQt.a.a.a.a.a.a.B.D#p.D.d.a.Y.x.ubnafaVawa1#S#.aD#PaG#u#z.a.abr.Z.C.e.w.a#t.Cbc.a.aQtQtQtQtQtQtQtQtQtQtQtQtQtQtQtQtQtQt",
"QtQtQtQtQtQtQtQtQtQtQtQt.a.a.a.a.a#E#a.f.Z.ubs.aag#B.0.D.ebt.a.aag#7ag.a.a.a.aaNa6.x.m#cbu.a.a#7.f.0.X.aQtQtQtQtQtQtQtQtQtQtQtQtQtQtQtQtQtQt",
"QtQtQtQtQtQtQtQtQtQtQtQt.a.a.a.a.a#K.f.R#p#y#E.a.aau.9.0.u.Uanbv.a.a.a.a.a.a.a.5.x.J.Aa2a#.a.a.a.4.mbw.aQtQtQtQtQtQtQtQtQtQtQtQtQtQtQtQtQtQt",
"QtQtQtQtQtQtQtQtQtQtQtQt.a.a.a.a.abx.f.0.m#B.a.a.a.a##aX.3.9#c.u.Wbya7.a.a#U#H.0.fbz.k#R.a.a.a.a#5.t#kafQtQtQtQtQtQtQtQtQtQtQtQtQtQtQtQtQtQt",
"QtQtQtQtQtQtQtQtQtQtQtQt.a.a.a.a.a#K.P#a.Ca..a.a.a.a.aau#o.K.x.x#s#j.HaO.g.x.Z.A#3.k#3#z.a.a.a.a#A#p#FabQtQtQtQtQtQtQtQtQtQtQtQtQtQtQtQtQtQt",
"QtQtQtQtQtQtQtQtQtQtQtQt.a.a.a.a.a#K#cbk.C#3.a.a.a.a.aap.P.t.x#F.P.k#o.x.J.Ha9.o#yahbs.a.a.a.a.aad.Z#a#zQtQtQtQtQtQtQtQtQtQtQtQtQtQtQtQtQtQt",
"QtQtQtQtQtQtQtQtQtQtQtQt.a.a.a.a.abA.ta.#yaG.i.a.a.a.a.a#q.3.l.m.Z.t#p.Zbcbi.W#FaL#m.i.a.a.a.a.abb.J.I#zQtQtQtQtQtQtQtQtQtQtQtQtQtQtQtQtQtQt",
"QtQtQtQtQtQtQtQtQtQtQtQt.a.a.a.a.a#1.t#e.r.o.i.a.a.a.a.a.ial.W.C.m#p.Z.t#o.W#Lbr.L.i.a.a.a.a.a.aad.0.gaVQtQtQtQtQtQtQtQtQtQtQtQtQtQtQtQtQtQt",
"QtQtQtQtQtQtQtQtQtQtQtQt.a.a.a.a.abB.x#F.UbC.i.a.a.a.a.a.a.a.wbfaZ.4.4bD#UbEaf.i.i.a.a.a.a.a.a.a#K.Z.O.aQtQtQtQtQtQtQtQtQtQtQtQtQtQtQtQtQtQt",
"QtQtQtQtQtQtQtQtQtQtQtQt.a.a.a.a.a.a#y.x.U.o.a.a.a.a.a.aQtQtQtQtQtQtQtQtQtQtQtQtQtQtQtQt.a.a.a.a.c#p#e.aQtQtQtQtQtQtQtQtQtQtQtQtQtQtQtQtQtQt",
"QtQtQtQtQtQtQtQtQtQtQtQt.a.a.a.a.a.a#3.m#c.y.a.a.a.a.a.aQtQtQtQtQtQtQtQtQtQtQtQtQtQtQtQt.a.a.a.aaz.mbk.aQtQtQtQtQtQtQtQtQtQtQtQtQtQtQtQtQtQt",
"QtQtQtQtQtQtQtQtQtQtQtQt.a.a.a.a.a.abg.C.l#0.a.a.a.a.a.aQtQtQtQtQtQtQtQtQtQtQtQtQtQtQtQt.a.a.a.abF.m#l.aQtQtQtQtQtQtQtQtQtQtQtQtQtQtQtQtQtQt",
"QtQtQtQtQtQtQtQtQtQtQtQt.a.a.a.a.a.a.a#c.Cbw.a.a.a.a.a.aQtQtQtQtQtQtQtQtQtQtQtQtQtQtQtQt.a.a.a.abz.mbG.aQtQtQtQtQtQtQtQtQtQtQtQtQtQtQtQtQtQt",
"QtQtQtQtQtQtQtQtQtQtQtQt.a.a.a.a.a.a.abH.C.p.F.a.a.a.a.aQtQtQtQtQtQtQtQtQtQtQtQtQtQtQtQt.a.a.abI#a.J#N.aQtQtQtQtQtQtQtQtQtQtQtQtQtQtQtQtQtQt",
"QtQtQtQtQtQtQtQtQtQtQtQt.a.a.a.a.a.a.a.w.R.Z.E.a.a.a.a.aQtQtQtQtQtQtQtQtQtQtQtQtQtQtQtQt.a.a.aa7.3.DbJ.aQtQtQtQtQtQtQtQtQtQtQtQtQtQtQtQtQtQt",
"QtQtQtQtQtQtQtQtQtQtQtQtQtQtQtQtQtQtQtQtaa#p.3bK.a.a.a.aQtQtQtQtQtQtQtQtQtQtQtQtQtQtQtQt.a.a.aa..J#ka#.aQtQtQtQtQtQtQtQtQtQtQtQtQtQtQtQtQtQt",
"QtQtQtQtQtQtQtQtQtQtQtQtQtQtQtQtQtQtQtQtab#B.t.G.a.a.a.aQtQtQtQtQtQtQtQtQtQtQtQtQtQtQtQt.aa8.5.x.f#A.a.aQtQtQtQtQtQtQtQtQtQtQtQtQtQtQtQtQtQt",
"QtQtQtQtQtQtQtQtQtQtQtQtQtQtQtQtQtQtQtQt.aas.x.Zbg.a.a.aQtQtQtQtQtQtQtQtQtQtQtQtQtQtQtQt.abd.u.JaW.a.a.aQtQtQtQtQtQtQtQtQtQtQtQtQtQtQtQtQtQt",
"QtQtQtQtQtQtQtQtQtQtQtQtQtQtQtQtQtQtQtQt.a.abL.t.x#t.a.aQtQtQtQtQtQtQtQtQtQtQtQtQtQtQtQtbM#S#yaZbN.a.a.aQtQtQtQtQtQtQtQtQtQtQtQtQtQtQtQtQtQt",
"QtQtQtQtQtQtQtQtQtQtQtQtQtQtQtQtQtQtQtQt.a.a.a#d.R.W.L.aQtQtQtQtQtQtQtQtQtQtQtQtQtQtQtQtbk.eaPbN.i.a.a.aQtQtQtQtQtQtQtQtQtQtQtQtQtQtQtQtQtQt",
"QtQtQtQtQtQtQtQtQtQtQtQtQtQtQtQtQtQtQtQt.a.a.a.a.8bm.a.aQtQtQtQtQtQtQtQtQtQtQtQtQtQtQtQtaNai.i.i.a.a.a.aQtQtQtQtQtQtQtQtQtQtQtQtQtQtQtQtQtQt",
"QtQtQtQtQtQtQtQtQtQtQtQtQtQtQtQtQtQtQtQtQtQtQtQtQtQtQtQtQtQtQtQtQtQtQtQtQtQtQtQtQtQtQtQtQtQtQtQtQtQtQtQtQtQtQtQtQtQtQtQtQtQtQtQtQtQtQtQtQtQt",
"QtQtQtQtQtQtQtQtQtQtQtQtQtQtQtQtQtQtQtQtQtQtQtQtQtQtQtQtQtQtQtQtQtQtQtQtQtQtQtQtQtQtQtQtQtQtQtQtQtQtQtQtQtQtQtQtQtQtQtQtQtQtQtQtQtQtQtQtQtQt",
"QtQtQtQtQtQtQtQtQtQtQtQtQtQtQtQtQtQtQtQtQtQtQtQtQtQtQtQtQtQtQtQtQtQtQtQtQtQtQtQtQtQtQtQtQtQtQtQtQtQtQtQtQtQtQtQtQtQtQtQtQtQtQtQtQtQtQtQtQtQt"};
